<svg xmlns="http://www.w3.org/2000/svg" viewBox="0 0 1920 1080">
  <defs>
    <style>
      .a, .b {
        fill: #fff;
      }

      .a {
        opacity: 0.5;
      }

      path {
      	animation: _ infinite alternate-reverse;
      }
      
      .w {
      	animation-delay: -5s;
      	animation-duration: 13s;
      }
      
      .x {
      	animation-delay: -8s;
      	animation-duration: 15s;
      }
      
      .y {
      	animation-delay: -13s;
      	animation-duration: 17s;
      }
      
      .z {
      	animation-delay: -21s;
      	animation-duration: 19s;
      }
      
      @keyframes _ {
      	0% { transform: translateX(0%); }
      	25% { transform: translateX(10%); }
      	50% { transform: translateX(-8%); }
      	75% { transform: translateX(6%); }
      	100% { transform: translateX(10%); }
      }
    </style>
  </defs>
  <path class="a w" d="M-640.269,991.42476l2.50068,130.98326,3045.19659-16.76575q1.41033-82.52942,2.82036-165.05884c-495.86048,83.38638-887.638,75.05782-1149.11113,53.38905C801.51486,955.88266,540.52312,859.66636,53.95192,883.11794A3306.47261,3306.47261,0,0,0-640.269,991.42476Z"/>
  <path class="a x" d="M2441,993.43105l-2.50069,130.98326-3045.19659-16.76575q-1.41031-82.52943-2.82036-165.05885c495.86049,83.38638,887.638,75.05783,1149.11114,53.38905C999.2161,957.889,1260.20784,861.67265,1746.779,885.12423A3306.47206,3306.47206,0,0,1,2441,993.43105Z"/>
  <path class="a y" d="M-626.81192,921q-5.37375,101-10.7475,202,1496.88914-2.5,2993.77833-5,2.98555-98.5,5.97083-197c-131.87025,37.952-332.46957,82.69214-577.97714,84-319.95458,1.70447-382.97564-72.13269-705.75309-98-417.43733-33.45334-514.605,73.808-1004.295,79A3442.18342,3442.18342,0,0,1-626.81192,921Z"/>
  <path class="b z" d="M-588.59855,1025l-3.5825,73,3014.07918,26q1.19432-39,2.38833-78a2385.84276,2385.84276,0,0,0-459.75455-87c-448.49-39.89973-531.0737,81.43236-969.66414,87-511.98962,6.49939-638.99366-155.80045-1160.731-103A2374.45227,2374.45227,0,0,0-588.59855,1025Z"/>
</svg>
