<svg xmlns="http://www.w3.org/2000/svg" viewBox="0 0 1920 1080">
  <defs>
    <style>
      .a, .b {
        fill: #fff;
      }

      .a {
        opacity: 0.5;
      }

      path {
      	animation: _ infinite alternate-reverse;
      }
      
      .w {
      	animation-delay: -5s;
      	animation-duration: 13s;
      }
      
      .x {
      	animation-delay: -8s;
      	animation-duration: 15s;
      }
      
      .y {
      	animation-delay: -13s;
      	animation-duration: 17s;
      }
      
      .z {
      	animation-delay: -21s;
      	animation-duration: 19s;
      }
      
      @keyframes _ {
      	0% { transform: translateX(0%); }
      	25% { transform: translateX(10%); }
      	50% { transform: translateX(-8%); }
      	75% { transform: translateX(6%); }
      	100% { transform: translateX(10%); }
      }
    </style>
  </defs>
  <path class="a z" d="M-631.63452,796.475l2.50068-130.98326,3045.1966,16.76575q1.41032,82.52943,2.82035,165.05884c-495.86048-83.38637-887.638-75.05782-1149.11113-53.389C810.14938,832.01709,549.15764,928.23339,62.58644,904.78181A3306.47194,3306.47194,0,0,1-631.63452,796.475Z"/>
  <path class="a x" d="M2449.63452,794.46871l-2.50068-130.98327L-598.06276,680.2512q-1.41031,82.52941-2.82035,165.05884c495.86048-83.38638,887.638-75.05783,1149.11113-53.389,459.6226,38.08981,720.61434,134.30611,1207.18554,110.85453A3306.47273,3306.47273,0,0,0,2449.63452,794.46871Z"/>
  <path class="a y" d="M-618.17739,866.89975q-5.37377-101-10.74751-202,1496.88915,2.5,2993.77833,5,2.98556,98.5,5.97084,197c-131.87025-37.952-332.46958-82.69214-577.97715-84-319.95457-1.70447-382.97564,72.13269-705.75309,98-417.43733,33.45334-514.605-73.808-1004.295-79A3442.18332,3442.18332,0,0,0-618.17739,866.89975Z"/>
  <path class="b w" d="M-579.964,762.89975l-3.5825-73,3014.07918-26q1.19431,39,2.38833,78a2385.842,2385.842,0,0,1-459.75455,87c-448.49,39.89973-531.0737-81.43236-969.66414-87-511.98962-6.49939-638.99365,155.80045-1160.731,103A2374.45155,2374.45155,0,0,1-579.964,762.89975Z"/>
  <rect class="b" x="-100" y="-56" width="2104" height="760"/>
</svg>
