<svg xmlns="http://www.w3.org/2000/svg" viewBox="0 0 491.65584 84.45042">
  <defs>
    <style>
      .a {
        fill: #fff;
      }

      .b {
        fill: #e50012;
      }
    </style>
  </defs>
  <g>
    <g>
      <path class="a" d="M246.4141,54.72539a10.728,10.728,0,0,1,.9531-1.9034,22.86419,22.86419,0,0,1,2.1426-3.6191.55883.55883,0,0,1,.4785-.5225.756.756,0,0,1,.332.8565,24.89694,24.89694,0,0,1-.1914,3.0937,15.24811,15.24811,0,0,1-.2383,2.7119.6898.6898,0,0,1-.2383.7168.55739.55739,0,0,1-.6191,0,11.68852,11.68852,0,0,0-2-.9072A.73653.73653,0,0,1,246.4141,54.72539Zm1.8574-7.711c0-.0635.0176-.0957.0508-.0957a2.1512,2.1512,0,0,1,1.666-.3808,6.19421,6.19421,0,0,1,.8066-.0489l2.0469-.0947a3.09243,3.09243,0,0,0,.5254-.0488,3.54868,3.54868,0,0,1,.5215-.0469l1.4297-.1436a12.46731,12.46731,0,0,1,.1894-2.1396,12.04773,12.04773,0,0,0,.2383-1.8574.46214.46214,0,0,0-.0938-.6192,4.23329,4.23329,0,0,1-.4785-.0449h-.4765c-.0938,0-.2852-.0195-.5703-.0508h-1.7149c-.2519.0313-.4258.0508-.5215.0508-.3808-.3496-.3183-.6523.1914-.9092.6328,0,1.2422-.0127,1.8321-.0468a17.87643,17.87643,0,0,1,1.832,0l.0957-.6641a3.90388,3.90388,0,0,1,0-1.7148.84012.84012,0,0,0-1.0488-.0459,3.36664,3.36664,0,0,1-1.3789.1884c-.1895.0313-.3887.0557-.5957.0703-.2051.0176-.4219.0245-.6426.0245l-.5235.0468a1.68669,1.68669,0,0,1-1.0468.2383,1.93553,1.93553,0,0,1-.5235-.0459.65489.65489,0,0,1-.4765-.8066q-.09675-5.6235.0976-11.2373a.77944.77944,0,0,0,.2852-.4278,9.07513,9.07513,0,0,1,2.6152-.5732,7.81105,7.81105,0,0,1,1.5235-.1416,14.3473,14.3473,0,0,0,1.5253-.1914,2.00053,2.00053,0,0,1,.4747-.0469,2.92516,2.92516,0,0,0,.4765-.0459l.4746-.0967a2.04673,2.04673,0,0,1,.4766-.0468,9.97053,9.97053,0,0,0,3.1894-.4288,3.502,3.502,0,0,1,.5254-.0966l.4278-.0459a10.50008,10.50008,0,0,0,2-.0957,7.83042,7.83042,0,0,1,1.0234-.1192c.3301-.0166.5938-.0244.7832-.0244.6367-.0625,1.2539-.1103,1.8555-.1416a1.79124,1.79124,0,0,1,.5742-.0967,2.81593,2.81593,0,0,0,.666-.0957,1.58805,1.58805,0,0,1,.5703-.164c.1895-.0186.3965-.0245.6192-.0245h.334a.63477.63477,0,0,0,.7617-.1416l1.666.1416a2.66764,2.66764,0,0,1,.1894,1.2383,4.67258,4.67258,0,0,0-.0957.9034,13.22193,13.22193,0,0,0-.4746,2.2851q-.3837,1.4751-.7148,3.0449a4.38357,4.38357,0,0,1-.2383,1.1465,9.20809,9.20809,0,0,1-.5723,2.2334,1.47589,1.47589,0,0,0-.0918,1.0479l-.8593.4287a1.41251,1.41251,0,0,0-.7129.0967.92051.92051,0,0,1-.5703.0957c-.8594.1572-1.7325.3017-2.6192.4267l-3.7617.7627a.71135.71135,0,0,0-.5723.1426,12.98392,12.98392,0,0,0-.1875,2.1904.85829.85829,0,0,0,.1875.8067l3.7149-.0948a1.40108,1.40108,0,0,1,.9512.1416.45442.45442,0,0,1,.0957.7657,1.26022,1.26022,0,0,1-.9512.1884,11.19822,11.19822,0,0,1-2.332.1416,1.80974,1.80974,0,0,0-1.2852,0c-.4141.0332-.5566.336-.4316.9053q-.1377,1.2861-.1895,2.5733c.0645.4101.3496.5068.8574.2841a1.77,1.77,0,0,1,.5703-.0976l1.334-.0918a6.59383,6.59383,0,0,0,.8086-.0498,3.22165,3.22165,0,0,0,.9531-.1426,7.62658,7.62658,0,0,1,.8575-.0459,3.45312,3.45312,0,0,0,1.6191-.1924,4.7604,4.7604,0,0,1,.6152-.0478q.85845-.047,1.67-.1416a.424.424,0,0,1,.4257.1894c.2832.4121.2051.7149-.2382.9033a3.47185,3.47185,0,0,1-.5704.0498,34.85165,34.85165,0,0,0-3.998.5225,3.08159,3.08159,0,0,0-1.9043.2393,3.4306,3.4306,0,0,1-.5723.0468,1.36843,1.36843,0,0,0-.7148.0957,4.12236,4.12236,0,0,1-.5234.0713c-.1895.0176-.3555.0254-.4981.0254a1.12587,1.12587,0,0,1-.3555-.0498,2.20462,2.20462,0,0,0-1.4765.334,16.91814,16.91814,0,0,0-4,.1924.48978.48978,0,0,1-.4278.3799,2.214,2.214,0,0,1-.4277-.334l-1.3809.1885c-.2851.0312-.4472.0507-.4765.0507l-1.9531.0948a2.01717,2.01717,0,0,1-.4746.0468l-1,.0957a.86278.86278,0,0,0-.6192.1416C248.5273,48.07789,248.2402,47.77609,248.2715,47.01439Zm1.0957,5.0459a1.05665,1.05665,0,0,0-.1914.4268C249.3359,52.45779,249.4004,52.31229,249.3672,52.06029Zm.6211-17.7588.1406.9063a3.3512,3.3512,0,0,0,0-1.3799A.5028.5028,0,0,0,249.9883,34.30149Zm.1855-2.5683a.67381.67381,0,0,0-.0449.334Zm.1465,6.0957c0,.0312.0606.0918.1895.1865C250.541,37.86009,250.4785,37.79469,250.3203,37.82889Zm.9024-.7168a.12486.12486,0,0,0-.1407.1435C251.4297,37.28689,251.4766,37.24,251.2227,37.11209Zm.4785-5.2364.0937,1.1426a1.70654,1.70654,0,0,0,.1914-.8574C252.0176,31.93919,251.9219,31.84249,251.7012,31.87569Zm.8535.7149c.0976,0,.1289-.207.0976-.6182A1.02455,1.02455,0,0,0,252.5547,32.59059Zm.4297,4.8535a18.99288,18.99288,0,0,0,2.7617-.2861,3.01,3.01,0,0,0,.332-1.9502q.1905-1.38135.334-2.7598c-.0957,0-.1426.1231-.1426.3809l-1.1425,1.8545q-.9054.3822-1.045-.8555a17.54209,17.54209,0,0,0-.9062-1.5215.26766.26766,0,0,0-.1426.3301Q253.08015,35.06514,252.9844,37.44409Zm.1426-7.1875q.7617.3354,1.4765.7149.85545.5229,1.8086,1.0009.09675-1.8588.3809-3.7617a6.72461,6.72461,0,0,1,.1211-1.2637c.0781-.4267-.0118-.7041-.2637-.833a3.45185,3.45185,0,0,0-.9531.0498c-.0918,0-.293.0078-.5938.0205a1.04956,1.04956,0,0,0-.5488.1211,1.63891,1.63891,0,0,0-1.2832.2403,5.5151,5.5151,0,0,1-.1914,1.7617q0,.56835-.0469,1.0693A1.95746,1.95746,0,0,0,253.127,30.25659Zm2.6191,24.1846a7.3548,7.3548,0,0,0-.1914-2.6201,3.67793,3.67793,0,0,1,.1914-2.1875,6.05084,6.05084,0,0,1,1.1445-.1924.4527.4527,0,0,1,.6172.2373,15.48114,15.48114,0,0,1,1.2852,3.0967.80465.80465,0,0,1-.0469.9502,10.2814,10.2814,0,0,1-2.7617,1.0459C255.7949,54.77129,255.7148,54.66089,255.7461,54.44119Zm.1895-10.0459a1.99047,1.99047,0,0,0,.0976-.8574A1.284,1.284,0,0,0,255.9356,44.39529Zm.3339.9502a.27157.27157,0,0,0,.1426.2383C256.4766,45.26639,256.4258,45.18819,256.2695,45.34549Zm.8086-14.2324c-.0644.0644-.0937.1113-.0937.1425C256.9531,31.47929,256.9844,31.43039,257.0781,31.11309Zm0-.5694a.66571.66571,0,0,0-.0468.2842C257.1563,30.89329,257.1738,30.79759,257.0781,30.54369Zm.0957,9.8057c0,.1885.0625.2226.1914.0937C257.3027,40.18819,257.2363,40.159,257.1738,40.34939Zm.0489-.3799c.1582.0615.205-.0332.1425-.2881C257.2363,39.52419,257.1895,39.61989,257.2227,39.96949Zm.7617,4.1416.0469.4727a1.78956,1.78956,0,0,0,.1425-.9493C258.0137,43.53789,257.9512,43.69609,257.9844,44.11109Zm.0918-13.9971a.71637.71637,0,0,0,.1445.4297C258.3809,30.25659,258.334,30.114,258.0762,30.114Zm.2871-3.1884q.2373.2373.1445-.3799C258.3809,26.60819,258.334,26.73409,258.3633,26.92559Zm.668,18.8505a.523.523,0,0,0,.4765-.1425.72659.72659,0,0,0-.2871-.2383C259.0313,45.491,258.9668,45.616,259.0313,45.77609Zm.2851-16.5664c-.0957,0-.1426.0313-.1426.0957l-.0468,1.8545A4.0823,4.0823,0,0,0,259.3164,29.20969Zm.2383,5.3799v-.0957C259.6191,34.33379,259.6191,34.367,259.5547,34.58959Zm.2383-1.3818a1.16071,1.16071,0,0,0-.1934.9062A1.23745,1.23745,0,0,0,259.793,33.20779Zm.4765-7.4248.0938.6172c0,.1591.0312.1123.0937-.1416C260.5547,25.909,260.4902,25.75069,260.2695,25.783Zm.0489,5.3301c.0605.1269.125-.0635.1894-.5694A.62374.62374,0,0,0,260.3184,31.11309Zm.0449,2.6191a.22525.22525,0,0,0-.0235.1894C260.3555,34.01639,260.3633,33.95389,260.3633,33.73219Zm0-6.4756.1445-.4726C260.3477,26.81519,260.3008,26.97239,260.3633,27.25659Zm1.0937,8.9522a.94575.94575,0,0,0,.7149,0,30.20362,30.20362,0,0,0,3.3808-.668,3.83115,3.83115,0,0,1,.2852-1.4268q.2373-1.61865.5723-3.2861a.76933.76933,0,0,0-.67.4775c-.0918-.0966-.2187-.0654-.3789.0918a17.53856,17.53856,0,0,1-2.8554,1.5733c-.1582.2529-.3985.3027-.7149.1426A20.121,20.121,0,0,0,261.457,36.20879Zm1.2852,17.9931.0508-.2861a3.1286,3.1286,0,0,1-.5254-1.4746,8.7136,8.7136,0,0,1-.4766-1.7617,1.55855,1.55855,0,0,1,1.334-.9541.82189.82189,0,0,1,.6172.0498,11.672,11.672,0,0,1,1.4766,1.9023,6.24944,6.24944,0,0,1,.7148,1.6201,5.94853,5.94853,0,0,1-2.5234,1.7608Q262.7421,55.01144,262.7422,54.20189Zm-.8555-21.8506c.0313.2198.0801.2705.1426.1436C262,32.20879,261.9492,32.16089,261.8867,32.35129Zm.1426-1.0459a3.47844,3.47844,0,0,1-.0488.667q1.0956-1.47645,2.0488-3.0009a.73354.73354,0,0,1,.6191-.4756,6.9348,6.9348,0,0,1,1.7618,1.5693l.8086-4.8545c-.0977-.2842-.3809-.334-.8575-.1426a2.64847,2.64847,0,0,1-.8574.1426l-.1894-.0459c-.0313,0-.1914.0137-.4766.0459-.2852.0313-.4453.0469-.4766.0469l-.8535.1914a1.8191,1.8191,0,0,0-.9082.1416l-.2383,3.0478A11.02239,11.02239,0,0,0,262.0293,31.30539Zm2.5703-.0498a.27045.27045,0,0,0-.1894.0498C264.3457,31.55739,264.4102,31.54079,264.5996,31.25559Zm2.2852-1.0449a.08518.08518,0,0,0,.0957-.0967C266.9141,29.92459,266.8848,29.95779,266.8848,30.21069Zm1.5254-5.1426c.0605-.0312.0918-.1289.0918-.2841C268.4102,24.81519,268.3789,24.908,268.4102,25.06809Zm.3808,2.0948a2.92729,2.92729,0,0,0-.2383,1.1445l.2383-.6699C268.9492,27.41769,268.9492,27.25659,268.791,27.16289Zm0,22.8007a.45029.45029,0,0,1,.1406-.4267,3.42245,3.42245,0,0,1,.7618.0967q1.5702,1.37685,2.9511,2.8535a1.3845,1.3845,0,0,1,.5723.7148,13.76426,13.76426,0,0,1-2.1426,2.3799.94771.94771,0,0,1-.7597-.2393q-.5274-1.998-1.1446-3.997A9.4431,9.4431,0,0,1,268.791,49.96359Zm.3301-16.4707c-.125,0-.1895.0791-.1895.2393C269.1211,33.73219,269.1856,33.65209,269.1211,33.49289Zm.6211-8.6162.1894-.1426C269.8691,24.60909,269.8047,24.655,269.7422,24.87669Zm.3809,3.7617a1.91338,1.91338,0,0,0-.2383.9512Zm.2363-1.1904a.86107.86107,0,0,0-.0957.5713C270.4551,27.79759,270.4883,27.60819,270.3594,27.448Z"/>
      <path class="a" d="M277.334,52.34549a.60174.60174,0,0,0,.1894-.6211,3.5026,3.5026,0,0,1,.2852-1.8067,7.51914,7.51914,0,0,1,.4297-1.8564,1.19451,1.19451,0,0,1,.1426-.6201,49.545,49.545,0,0,1,1.1425-6.8067,4.58123,4.58123,0,0,0-.9531.9512,38.23726,38.23726,0,0,1-3.2363,2.7139,1.06614,1.06614,0,0,1-.2852.2842.921.921,0,0,1-.5722.3828.5959.5959,0,0,1-.5235.2871,4.63387,4.63387,0,0,1,1.0489-2.1416A80.641,80.641,0,0,0,279,35.01639h-.0957a7.31719,7.31719,0,0,0-1.1895.0957,8.673,8.673,0,0,1-1.1679.1172,3.19274,3.19274,0,0,1-1.166-.1641c-.2246-.1914-.1739-.3652.1425-.5254a1.921,1.921,0,0,1,.5723-.1416,6.89957,6.89957,0,0,0,1.6191-.0967,8.34029,8.34029,0,0,1,.8555-.0459,7.93542,7.93542,0,0,0,1.9512-.2392l.7168-3.711c.1582-1.1103.2656-2.2373.3301-3.3798a1.40088,1.40088,0,0,1,.1933-.7149c.9492-.2539,1.9356-.4912,2.9492-.7148q.33405-.09375.334,0a3.00345,3.00345,0,0,0,.4766-.0469,3.21835,3.21835,0,0,1,.5254-.0459c.0937,0,.1387.0459.1387.1416q-.33405,4.09425-1,8.1406c.3183.0322.4296-.1455.3359-.5254q1.33005-2.2866,2.7617-4.5683a3.23769,3.23769,0,0,1,.8066-1.1436,7.48181,7.48181,0,0,1,1.9532,1.9053.39039.39039,0,0,0,.332.3799.7636.7636,0,0,1,.1914.6181l-4.7129,3.0957h.9043c.125,0,.2852-.0078.4746-.0244a2.77623,2.77623,0,0,0,.4785-.0713l1.3321-.0966c.5058.1601.5566.415.1445.7617a.67141.67141,0,0,1-.8594.0508c-.0625,0-.2851.0224-.664.0703-.3809.0468-.6055.0713-.668.0713l-.9043.0468a7.06837,7.06837,0,0,1-.7617.0459l-1.1895.1465-1.1914,6.3291a2.52854,2.52854,0,0,1,.9043.3809,33.762,33.762,0,0,1,3.4297,2.9023.74466.74466,0,0,1,.2832.4307q-.9522,1.2393-1.8555,2.5703-.2841.5229-.6191.5225c-.2227,0-.4141-.1573-.5703-.4756a10.01907,10.01907,0,0,0-2-2.5244,12.576,12.576,0,0,0-.5723,2.6699q-.37785,2.2836-.8086,4.5215l-.7597.332a3.77823,3.77823,0,0,1-.6192.0478.85923.85923,0,0,0-.6211.0479c-.6035.2236-1.2031.4434-1.8105.665a.81325.81325,0,0,1-.5703.1426C277.4121,52.949,277.2676,52.72539,277.334,52.34549Zm-.4317-24.375a4.45722,4.45722,0,0,1,.0723-.6641.46085.46085,0,0,1,.502-.4307h.1425a16.46221,16.46221,0,0,0,2.8067,2.0958c.1914.0966.2207.2695.0957.5234a10.29455,10.29455,0,0,1-2.8067,2.2851,1.66938,1.66938,0,0,1-.5722-1.7148A9.31434,9.31434,0,0,1,276.9023,27.97049Zm1.9063,19.7099.0508.1885a10.47065,10.47065,0,0,0,.1855-1.998Zm1.2852,1.8077a.70887.70887,0,0,0-.1915.5244c-.0957.2851-.0625.414.0958.3799A2.15285,2.15285,0,0,0,280.0938,49.48809Zm1.1445.2373-.336.4775C281.125,50.17069,281.2383,50.01249,281.2383,49.72539Zm-.1914-6.6133.2363-1.3809a1.86451,1.86451,0,0,1,.0977-.8594.55478.55478,0,0,0-.0977-.4765A8.58417,8.58417,0,0,0,281.0469,43.11209Zm.1406-6.7617c.1289.0966.1934-.0166.1934-.334C281.2188,35.92159,281.1563,36.034,281.1875,36.35039Zm.2383-1.4766-.1426.9053A1.17176,1.17176,0,0,0,281.4258,34.87379Zm.9551-2.7598-.1914,1.333A2.40312,2.40312,0,0,0,282.3809,32.114Zm-.1914,9.6641c.0957.0625.1582-.0801.1914-.4277C282.3164,41.25469,282.252,41.39629,282.1895,41.77809Zm.3339-11.2344.0957.0918a3.99041,3.99041,0,0,0,.0918-1.5215A5.33981,5.33981,0,0,1,282.5234,30.54369Zm.0957.3311c-.0644,0-.0957.081-.0957.2383C282.584,31.27319,282.6191,31.19219,282.6191,30.87479Zm.3301,5.4756a.12661.12661,0,0,0,.1426.1435,6.71075,6.71075,0,0,0,.334-1.8105c-.1602.0332-.2383.1601-.2383.3818A6.46066,6.46066,0,0,0,282.9492,36.35039Zm.334,5.8525-.0957.3359C283.1875,42.63359,283.2188,42.52419,283.2832,42.20289Zm.0469-10.042c.0644.126.1094.0479.1426-.2383C283.3789,31.92259,283.3301,32.00169,283.3301,32.16089Zm.1426,9.0938a.38786.38786,0,0,0-.0938.2841C283.4727,41.60129,283.5059,41.50659,283.4727,41.25469Zm.2871-11.0928a11.18541,11.18541,0,0,0-.2871,1.4736c.0644.0342.1269-.1074.1914-.4267A2.00591,2.00591,0,0,0,283.7598,30.16189Zm-.1914,10.5195a.53156.53156,0,0,0-.0469.2373C283.5859,40.98319,283.5996,40.905,283.5684,40.68139Zm0-12.2822a.26664.26664,0,0,0,.0488-.1885C283.5859,28.04959,283.5684,28.115,283.5684,28.39919Zm.1425,14.4736c.2227-.0332.2383-.1435.0489-.334Zm.0489-4.7138c.1269,0,.1582-.1573.0918-.4776Zm.33-11.045c-.0292-.0302-.0449,0-.0449.0957C284.1406,27.43339,284.1543,27.40109,284.0898,27.114Zm1,2.8106c-.123,0-.1855.0801-.1855.2373C285.0273,30.28879,285.0898,30.21069,285.0898,29.92459Zm.4317-3.7139a1.65308,1.65308,0,0,0-.0977.999,1.02821,1.02821,0,0,0,.1446-.3808A.768.768,0,0,0,285.5215,26.21069Zm.0937,25.3721a.64321.64321,0,0,1,.3829-.6182l2.3789-4.1406,1.4296-3.001a8.12564,8.12564,0,0,0,1.045-2.6172,81.06022,81.06022,0,0,0,4.3789-11.5195c.6679,0,1.3261-.0176,1.9765-.0488.6504-.0293,1.3086-.0479,1.9746-.0479a3.35236,3.35236,0,0,1,1.2364.1436,26.38021,26.38021,0,0,1,2.7168.0459c.3144,0,.664-.0137,1.0449-.0459l1.9043.0459a8.128,8.128,0,0,1,1.7598.0966h3.4316l.4258.1895c.1914.3184.1269.5254-.1895.6211a3.90762,3.90762,0,0,0-1.1894.0928c-.1602,0-.3321-.0069-.5254-.0225a3.25925,3.25925,0,0,1-.4766-.0703.74878.74878,0,0,1-.1875-.0508,18.21887,18.21887,0,0,1-3.5234-.1416c-.3809-.0322-.6055-.0449-.666-.0449h-.7129c-.3203.0312-.5098.0449-.5723.0449l-.5234-.0449a5.795,5.795,0,0,1-1.4766-.0977,4.37521,4.37521,0,0,0-.666.0479,4.16253,4.16253,0,0,1-.666.0498,2.83764,2.83764,0,0,1-.5-.0498,3.3167,3.3167,0,0,0-.5489-.0479h-.1425l-.5254,1.7627q-1.28325,3.28125-2.5215,6.6631-1.09275,2.19-2.332,4.1885a16.55164,16.55164,0,0,1-1.9512,2.8105,19.67978,19.67978,0,0,1-5.4746,5.9483.72777.72777,0,0,1-.4531.1435C285.7031,51.86789,285.6152,51.77519,285.6152,51.58279Zm.9532-8.1397c0,.0635.0449.0948.1425.0948C286.9629,43.50659,286.918,43.47439,286.5684,43.44309Zm1.1406,6.2823-.4258.5244.3301-.1905C287.8047,49.86789,287.8379,49.75949,287.709,49.72539Zm4.1914-6.7598a2.05154,2.05154,0,0,0-.8106,1.0947A2.82549,2.82549,0,0,0,291.9004,42.96559Zm.998-2.3809-.7617,1.4766a1.821,1.821,0,0,0-.1894.8115l1-2.3799Zm.2383-3.1865a4.12888,4.12888,0,0,1-.4277.8809,1.86835,1.86835,0,0,0-.2852,1.0215,4.87428,4.87428,0,0,0,.6641-1.4268A.86654.86654,0,0,0,293.1367,37.39819Zm.8574,1.0947a4.0373,4.0373,0,0,0-.9062,1.6182c.1269.0947.207-.0176.2383-.333A4.50076,4.50076,0,0,0,293.9941,38.49289Zm1.7149,17.042a.72055.72055,0,0,1,.0957-.7148q.7119-2.75835,1.2363-5.5713a3.32034,3.32034,0,0,0,.2871-1.0928,5.00785,5.00785,0,0,1,3.3789-.7607l.1426-3.6192h-.5234c-.2871.0323-.4453.0469-.4766.0469l-.2851-.0928a6.43046,6.43046,0,0,1-1.6192.1885.48841.48841,0,0,0-.4746-.0459.43.43,0,0,1-.3809-.1426c.0313-.3183.2657-.5078.7129-.5712a3.88176,3.88176,0,0,0,.4746-.0469,3.74051,3.74051,0,0,1,.4766-.0498l.3809.0498a10.48547,10.48547,0,0,0,1.7148-.0498l.0469-3q-1.8105.0981-3.6192.1435l-.1406-.2851c0-.2217.0625-.3633.1914-.4278a5.31638,5.31638,0,0,1,1.711-.2871c.5722,0,1.1601-.0136,1.7617-.0468a1.16833,1.16833,0,0,0,.2383-1.1885c-.1289-.0967-.1426-.1612-.0469-.1914a2.92241,2.92241,0,0,1,0-.7627l.0469-.7608a.91211.91211,0,0,0-.8086,0,3.02989,3.02989,0,0,1-.4766.0459,2.02987,2.02987,0,0,0-.4766.0489,1.49055,1.49055,0,0,0-.7617-.0948c-.2519-.4453-.1093-.7754.4297-1.0009a4.783,4.783,0,0,1,1.0938-.0957,1.906,1.906,0,0,0,1-.1885l.0488-.5225a3.18882,3.18882,0,0,1,.1426-1.8115.56888.56888,0,0,1,.2383-.7608,1.94227,1.94227,0,0,1,.6191-.0957c0,.0323.0293.0479.0918.0479a3.59744,3.59744,0,0,1,1.668.1914,1.99053,1.99053,0,0,1,1.7617.5225,6.779,6.779,0,0,0,.0937,1.9521,5.65283,5.65283,0,0,0,1.4766-.0957,6.11077,6.11077,0,0,1,.9531-.0469,6.01428,6.01428,0,0,1,.9492.0469.73831.73831,0,0,1,.5235-.1426l.8125.1426a2.05117,2.05117,0,0,1,.3808,1.334,7.35765,7.35765,0,0,0-.2382,1.3799,2.00325,2.00325,0,0,1-.0977.9033c-.0293.2861.0644.4131.2871.3809a5.92255,5.92255,0,0,1,1.334-.1426h.4746c.2871.2549.2539.542-.0957.8574l-2.1406.0947a3.10356,3.10356,0,0,1-.1914,1.3321,5.71,5.71,0,0,1-.4278,2.4277c-.2871,0-.5254.0098-.7129.0254a4.17367,4.17367,0,0,0-.6679.1211,22.04649,22.04649,0,0,1-2.5235.2344c-.2519.0654-.3632.288-.332.6689a9.36813,9.36813,0,0,0,0,2.665c.0293.2549.1895.334.4727.2383.0351,0,.1933-.0146.4785-.0469a3.5741,3.5741,0,0,1,.4765-.0478l.2383-.0469a14.49083,14.49083,0,0,0,2-.0498c.8574.0625,1.2207.6358,1.0938,1.7129l-.9512,4.4277a7.00154,7.00154,0,0,0-.1426,1.8106,2.64734,2.64734,0,0,0-.3594.4512.59336.59336,0,0,1-.5449.2597l-.3847-.0469a.75315.75315,0,0,1-.4727-.1416.90448.90448,0,0,1-.7617.1416,6.10655,6.10655,0,0,1-.7149.0469,2.79565,2.79565,0,0,0-.666.0967.51088.51088,0,0,0-.4746.0488,25.84371,25.84371,0,0,0-5.4277.3799.39137.39137,0,0,0-.4297.0498,10.08952,10.08952,0,0,0-1.0449.0459c-.3809.0303-.7305.0488-1.0489.0488A1.56745,1.56745,0,0,1,295.709,55.53489Zm1.2363-20.6611-.5234,1.0977c-.0332.2519.0625.1582.2851-.2872A1.11982,1.11982,0,0,0,296.9453,34.87379Zm-.0488-4.3799c-.0938,0-.1445.0645-.1445.1924C296.9141,30.62179,296.9609,30.55839,296.8965,30.49389Zm.5742,3.2383a3.74278,3.74278,0,0,0-.4297,1.0459Zm.4746-3.3809c-.0937,0-.1426.0323-.1426.0977C297.832,30.66869,297.8809,30.63549,297.9453,30.35129Zm.3809,19.708-.2871,1.4766a2.24271,2.24271,0,0,0,.2382-.668A1.0412,1.0412,0,0,0,298.3262,50.05929Zm.2832-1.2832.1894.0928C298.8652,48.616,298.7988,48.58469,298.6094,48.77609Zm.5722,6.3291.7129.0469c.543,0,1.0645-.0156,1.5743-.0469l1.9492-.1884c.2539-.0655.3496-.2559.289-.5733a21.09675,21.09675,0,0,0,1.0469-3.9511,6.57405,6.57405,0,0,0,.3301-1.712c.1914-.4775.207-.7461.0488-.8115a2.16866,2.16866,0,0,0-.666.0957,5.20934,5.20934,0,0,1-2,.1914,3.10041,3.10041,0,0,0-1.0488.1895.84507.84507,0,0,0-.6172.1914q-.75885,2.61765-1.332,5.2832a1.366,1.366,0,0,0-.1661.7158A.95956.95956,0,0,1,299.1816,55.10519Zm.3829-32.2285a.8581.8581,0,0,1,.3808-.997,1.30664,1.30664,0,0,1,.8555,0c.3808.1572.8105.3173,1.2871.4736a1.46734,1.46734,0,0,0,.9492.7158,4.92,4.92,0,0,1,1.3809.9033q.38085.955-.711,1.5723a23.50326,23.50326,0,0,1-2.4765,2.1406c-.1914-.0605-.2559-.2051-.1914-.4287q-.62115-1.32855-1.1446-2.7607A3.03778,3.03778,0,0,1,299.5645,22.87669Zm2.6152,14.043c.1601.0332.207-.1885.1465-.6641C302.1973,36.28689,302.1484,36.51049,302.1797,36.91969Zm.0508-2.6641a.56861.56861,0,0,0,.0957.334C302.3535,34.39819,302.3262,34.28689,302.2305,34.25559Zm.0449,12.4717c-.0293.1582.0176.2549.1426.2871C302.5801,46.824,302.5293,46.72729,302.2754,46.72729Zm.0977-13.4219c0-.0634.0937-.0976.2851-.0976C302.4981,33.04959,302.4043,33.08079,302.3731,33.30539Zm0,13.1348c0,.1299.0449.1924.1406.1924V45.491a.19434.19434,0,0,1-.0469.1426A1.74086,1.74086,0,0,1,302.3731,46.44019Zm2.3808-2.2822c.0313.0947.0469.0166.0469-.2393C304.8008,43.73019,304.7852,43.80839,304.7539,44.158Zm.0938-6.7598c.125.0967.1718-.081.1445-.5254C304.8633,36.81129,304.8164,36.98509,304.8477,37.39819Zm.2851,14.1846.1426-.4766C305.0195,51.17069,304.9727,51.32989,305.1328,51.58279Zm.1895-.9522a.55218.55218,0,0,0-.0938.3809Q305.3692,50.966,305.3223,50.63059Zm.0508-.1416a1.00385,1.00385,0,0,0,.1875-.5713C305.3731,50.01249,305.3086,50.20289,305.3731,50.489Zm.0449-7.9502c.0332.1905.1426.2373.3359.1416a2.12762,2.12762,0,0,0,.9024-.0947,24.52445,24.52445,0,0,0,.3808-3.0469,2.121,2.121,0,0,0-1.5215,0l-.0976.7618A8.5901,8.5901,0,0,1,305.418,42.53879Zm1.2851-6.9033-.9492.2383-.2871,2.9033a3.87515,3.87515,0,0,0,.4277-.0469,6.92952,6.92952,0,0,1,1.1426-.0947v-.5723a11.08215,11.08215,0,0,0,.1426-2.2841A.51987.51987,0,0,0,306.7031,35.63549Zm.3809,17.0899a1.53909,1.53909,0,0,0-.1895.666.55631.55631,0,0,0,.3809-.2852C307.4961,52.91769,307.4316,52.79079,307.084,52.72539Zm2.0937-14.71-.0449.4277C309.2891,38.25369,309.3066,38.11309,309.1777,38.01539Z"/>
      <path class="a" d="M314.3887,43.63449c.1914-.3173.1738-.3984-.0489-.2382-.2851.2197-.4589.1416-.5214-.2373a11.72323,11.72323,0,0,1-.1446-2.8096,4.89238,4.89238,0,0,1,.0508-1.5264.47171.47171,0,0,0-.0976-.4267l-.0469-3.9981a.79688.79688,0,0,1,.6172-.331.55342.55342,0,0,1,.7148.0468,2.29964,2.29964,0,0,1,.9531.0948,1.14027,1.14027,0,0,0,.8086-.1924.73527.73527,0,0,1,.5235.0976,1.40878,1.40878,0,0,1,.8086.1416,3.42883,3.42883,0,0,0,.9785-.0468,5.02431,5.02431,0,0,1,.9726-.0948,12.48537,12.48537,0,0,1,2.1914.0948,1.23792,1.23792,0,0,1,.7637.0468,2.33523,2.33523,0,0,1,2.0918.3809,26.07192,26.07192,0,0,1-.332,5.2373,1.99848,1.99848,0,0,1-.0957,1.0449.60428.60428,0,0,0,.0469.5244c0,.2549-.1094.3975-.3321.4297,0,.666-.3965.9815-1.1914.9512-.0957,0-.3027.0156-.6191.0488-.3164.0322-.5078.0469-.5703.0469l-1.0489.2393a1.49431,1.49431,0,0,1-.7617-.0967q-1.7109.2871-3.4258.6679a5.53922,5.53922,0,0,1-.664.0459,1.25361,1.25361,0,0,0-.9551.1895C314.7695,44.158,314.5469,44.04569,314.3887,43.63449Zm-.0957-2.5244c-.0313-.0312-.0469,0-.0469.0957C314.2754,41.39629,314.293,41.365,314.293,41.11009Zm.6679-5.5693a.52435.52435,0,0,0,.0938.2871C315.0547,35.54079,315.0234,35.44609,314.9609,35.54079Zm.5235,7.5215c-.0938,0-.1446.0166-.1446.0498C315.3711,43.33079,315.4199,43.31719,315.4844,43.06229Zm.0469-7.9033.1445.4287C315.7363,35.27219,315.6895,35.13059,315.5313,35.159Zm.8574-.2383c-.1582,0-.2364.0957-.2364.2871a.47161.47161,0,0,1,.5684,0C316.7207,35.01639,316.6113,34.92069,316.3887,34.92069Zm1.1894,7.4746a5.08833,5.08833,0,0,0,1.5723-.1416,2.51646,2.51646,0,0,0,.5234-.0508,2.31521,2.31521,0,0,0,1.1407-.2842l-.334-.2832q.0966-2.8095-.0469-5.6191a1.07758,1.07758,0,0,0-.2363-1.1885,3.73778,3.73778,0,0,0-1.334.0459,7.03391,7.03391,0,0,1-.7852-.0459,7.1656,7.1656,0,0,0-.83-.0498,6.93088,6.93088,0,0,0,.0917,1.6191c-.1269.1914-.1269.3487,0,.4756l.0489,2.5713A23.40445,23.40445,0,0,1,317.5781,42.39529Zm4.1055,8.0322a.53756.53756,0,0,1,.1738-.6162q2.66025-2.13435,5.4492-4.0537,1.8135-1.44585,3.5176-2.9736c.4785-.1856.7031-.1143.666.2158-.1757-.0948-.2265-.0078-.1425.2676l-1.1524,1.6171q-1.374,1.75785-2.6113,3.6778c-.6777,1.0625-1.3692,2.1084-2.084,3.1455-.2344.2998-.4785.6367-.7324,1.0049a4.54725,4.54725,0,0,1-.9649,1.3388c-.1894.3594-.3847.3633-.5761.0117Q322.5498,52.25269,321.6836,50.42749Zm-.1543-11.8389v.6172c-.0312.3516.0156.5088.1426.4756a8.87258,8.87258,0,0,0-.0957-1.8076Zm1.2852,13.8526.1894-.334C322.7188,52.13939,322.6563,52.24879,322.8145,52.44119Zm3.666-19.375a1.28082,1.28082,0,0,1,.334-.5713,1.51649,1.51649,0,0,1,1.3789-.0967.37862.37862,0,0,0,.1914.3809,56.34517,56.34517,0,0,1,3.664,5.4287,2.06457,2.06457,0,0,1-.8554,1.7129,10.09523,10.09523,0,0,1-1.3809,1.4756,7.66693,7.66693,0,0,1-1.1406-1.9522,7.99165,7.99165,0,0,0-.5274-1.7129,6.11086,6.11086,0,0,1-.8066-1.999,4.52782,4.52782,0,0,1-.2383-.7158A4.13042,4.13042,0,0,1,326.4805,33.06619Zm1.3398-4.9854a2.18511,2.18511,0,0,1,.8223-.7627,28.754,28.754,0,0,1,5.2109,2.4864c.1016.3388.3067.4609.6153.3632a.56533.56533,0,0,0-.3457.3252L334.5,30.45a.36952.36952,0,0,1-.2637.2197,3.68141,3.68141,0,0,0-.9121,1.2519.535.535,0,0,0-.4511.6729.69441.69441,0,0,0-.002.4326.86222.86222,0,0,1-.4688.5322Q330.1787,30.78639,327.8203,28.08079Zm.0391,18.791a.13258.13258,0,0,0,.0469-.0947C327.9063,46.617,327.8926,46.64819,327.8594,46.87179Zm1.334,7.4717.2851-.333a1.58273,1.58273,0,0,0,.2871-.7129c.3789-.8564.7461-1.7617,1.0938-2.7138a4.23531,4.23531,0,0,0,.6191-1.3809,2.74382,2.74382,0,0,1,.2871-.7148l3.2813-11.376a5.79291,5.79291,0,0,0,.5-1.7852,1.83521,1.83521,0,0,1,.9765-1.4512h2.334a3.03763,3.03763,0,0,0,.7129.0958,6.77057,6.77057,0,0,1,.7617.0449h.8106l.666-6.2334a1.44373,1.44373,0,0,1,.1895-1.1446.47536.47536,0,0,1,.6406.0245.48057.48057,0,0,0,.6445.0263l2.0469.6172a2.75968,2.75968,0,0,1,.8105.5693c.0293,1.1133.0157,2.2237-.0488,3.3331a1.00563,1.00563,0,0,1-.1426.5244l-.1875,2.2832c-.0976.1924-.0664.3349.0918.4316a4.67431,4.67431,0,0,0,1.4766.2354,3.54079,3.54079,0,0,1,1.1426.0947c.1582,0,.3398-.0068.5488-.0205a1.41521,1.41521,0,0,1,.5918.0703l2,.5225q.5244.38085,0,.9511-1.52055,1.7622-3.1406,3.4297a1.94373,1.94373,0,0,0-1.2383.8535c-.2207-.0283-.2696-.1699-.1426-.4257a.47037.47037,0,0,1-.4277-.0967l.5234-4.2832c.2227-.3174.1582-.4912-.1914-.5244a8.44354,8.44354,0,0,0-1.2852-.0957l-.6191,5.7597,1.6699.2393a8.527,8.527,0,0,0,1.0918.0234,3.57189,3.57189,0,0,1,1.0957.1201l.7149.3789q.6621.57135,0,1.2393a.55829.55829,0,0,1-.1211.4766.48184.48184,0,0,0-.1172.4267,46.22878,46.22878,0,0,1-2.9043,4.1416,1.27766,1.27766,0,0,0,.7363.4307,1.26377,1.26377,0,0,1,.6445.2851,8.26627,8.26627,0,0,1,2.7129,1.4248q-1.0956,1.2891-2.2851,2.5254a1.14356,1.14356,0,0,0-.7149.667,2.749,2.749,0,0,0-1.1445-.7607l-1.5195-1.1914a1.35493,1.35493,0,0,0-.7168-.5694,20.28309,20.28309,0,0,0-1.8086,1.5235c-.2188.2187-.4356.4502-.6426.6894a3.58573,3.58573,0,0,1-.7363.6397c-.2539.4463-.4785.4463-.666,0q.7587-2.19,1.666-4.3799a.58.58,0,0,0,.0957-.4727l-2.4746-1.9043a6.91148,6.91148,0,0,0-.8594-1.0488.52344.52344,0,0,1-.332-.5224q2.09475.61515,4.1894,1.4267c.2852.127.4766-.0156.5703-.4287a19.683,19.683,0,0,0,1.5703-3.998c.0977-.3819-.1601-.5694-.7617-.5694a3.37493,3.37493,0,0,0-.8086-.1924,21.66354,21.66354,0,0,1-3.8066-.2373c-.4785-.1572-.5566-.3965-.2402-.7168h1.3789l.6211-5.4257c-.0313-.254-.2207-.3809-.5704-.3809s-.4765.2236-.3808.668a21.50689,21.50689,0,0,0-1.0488,3.4277.74447.74447,0,0,1-.2383.6191l-.4746,1.4258a40.00117,40.00117,0,0,1-4.3809,8.2383.81385.81385,0,0,0-.1894.5215,44.06189,44.06189,0,0,1-4.1407,4.9043c-.1289-.0635-.2226,0-.2871.1885A.45053.45053,0,0,1,329.1934,54.34349Zm3.625-21.79c-.0996-.0215-.1426.0156-.1289.1123C332.6992,32.75659,332.7402,32.72239,332.8184,32.55349Zm.7656-.4688-.5391.3457Q333.11825,32.23569,333.584,32.08469Zm-.4395,16.6416a1.84943,1.84943,0,0,0-.4277.9073l.2832-.335A.83389.83389,0,0,0,333.1445,48.72629Zm.3809-.331c-.1895,0-.2871.1103-.2871.331Q333.5722,48.72629,333.5254,48.39529Zm.2832-.4776c-.123,0-.1855.0791-.1855.2383C333.7461,48.156,333.8086,48.07789,333.8086,47.91769Zm.5254-1.0459-.2383.5235C334.3828,47.23409,334.459,47.06129,334.334,46.87179Zm.1894-5.5214a3.77306,3.77306,0,0,0,.334-.8125.73332.73332,0,0,0,.0469-.7598A4.63106,4.63106,0,0,0,334.5234,41.35039Zm2.4278-2.7618-.2364.7627c0,.0928.0801.0459.2364-.1455A.975.975,0,0,0,336.9512,38.58859Zm5.1914-.9521a.58208.58208,0,0,0,.0937-.334C342.1426,37.33469,342.1113,37.44409,342.1426,37.63649Zm.0937,2.0449c.1895.0967.2852.0498.2852-.1426C342.2988,39.41379,342.207,39.45969,342.2363,39.68139Zm.2364-8.9951a.12464.12464,0,0,0-.1407.1416C342.3945,31.17749,342.4414,31.13159,342.4727,30.68629Zm-.0469-.0957c.1601-.0635.1933-.1914.0957-.3799C342.4609,30.14629,342.4258,30.27219,342.4258,30.59059Zm.9551,8.8535c-.1914.0313-.2871.0947-.2871.1924C343.1563,39.699,343.252,39.63649,343.3809,39.44409Zm.0468.999c.0938.1914.2051.21.334.0498C343.6328,40.20579,343.5215,40.18819,343.4277,40.44309Zm1.6192,9.4746c0,.1602.1094.2383.332.2383C345.3789,49.99779,345.2656,49.91769,345.0469,49.91769Zm.2832-.4296a.46715.46715,0,0,0,.334.1455A.27436.27436,0,0,0,345.3301,49.48809Zm1.0488-7.377c-.0957.0322-.1445.1426-.1445.3311C346.3926,42.34839,346.4414,42.23709,346.3789,42.11109Zm.1895,4.1875a.35253.35253,0,0,0-.2852.4287A.59194.59194,0,0,0,346.5684,46.29859Zm.2851-.5723a.49443.49443,0,0,0-.332.4776A.77934.77934,0,0,0,346.8535,45.72629Zm.668-3.6152a.18727.18727,0,0,0-.0957.1895C347.5215,42.46069,347.5488,42.39529,347.5215,42.11109Zm1.2363-6.2832c-.0937,0-.1426.0312-.1426.0937C348.6777,36.17649,348.7246,36.14429,348.7578,35.82789Z"/>
      <path class="a" d="M354.9883,43.57789c.1875-.3594.1719-.4502-.0508-.2686-.2852.2491-.459.1612-.5234-.2705a14.97428,14.97428,0,0,1-.1426-3.1787,6.31987,6.31987,0,0,1,.0488-1.7275.57933.57933,0,0,0-.0957-.4844l-.0488-4.5273a.78883.78883,0,0,1,.6191-.3741.50728.50728,0,0,1,.7149.0518,2.06507,2.06507,0,0,1,.9531.1084,1.0319,1.0319,0,0,0,.8086-.2178.674.674,0,0,1,.5215.1094,1.30849,1.30849,0,0,1,.8125.1611,2.976,2.976,0,0,0,.9746-.0527,4.54245,4.54245,0,0,1,.9765-.1084,11.13347,11.13347,0,0,1,2.1895.1084,1.1013,1.1013,0,0,1,.7617.0527,2.12582,2.12582,0,0,1,2.0938.4317,33.52559,33.52559,0,0,1-.3321,5.9287,2.57954,2.57954,0,0,1-.0957,1.1846.78258.78258,0,0,0,.045.5937c0,.2871-.1075.4492-.3301.4863,0,.7539-.3985,1.1123-1.1914,1.0762-.0957,0-.3028.0176-.6192.0557-.3164.0351-.5058.0517-.5683.0517l-1.0508.2705a1.31733,1.31733,0,0,1-.7617-.1074c-1.1407.2168-2.2832.4658-3.4258.7549a4.81627,4.81627,0,0,1-.666.0527,1.13842,1.13842,0,0,0-.9532.2149C355.3672,44.17069,355.1445,44.04469,354.9883,43.57789Zm-.0977-2.4678c-.0332-.0312-.0449,0-.0449.0957C354.8731,41.39629,354.8906,41.365,354.8906,41.11009Zm.666-5.5693a.52739.52739,0,0,0,.0957.2871C355.6523,35.54079,355.6211,35.44609,355.5566,35.54079Zm.5254,7.5215c-.0957,0-.1464.0166-.1464.0498C355.9707,43.33079,356.0176,43.31719,356.082,43.06229Zm.0469-7.9033.1406.4287C356.3359,35.27219,356.2852,35.13059,356.1289,35.159Zm.8574-.2383c-.1601,0-.2382.0957-.2382.2871a.47146.47146,0,0,1,.5683,0C357.3164,35.01639,357.207,34.92069,356.9863,34.92069Zm1.1895,7.4746a5.0939,5.0939,0,0,0,1.5723-.1416,2.51714,2.51714,0,0,0,.5234-.0508,2.31456,2.31456,0,0,0,1.1406-.2842l-.332-.2832q.09375-2.8095-.0469-5.6191a1.08478,1.08478,0,0,0-.2383-1.1885,3.7499,3.7499,0,0,0-1.3359.0459,6.9975,6.9975,0,0,1-.7832-.0459,7.22892,7.22892,0,0,0-.832-.0498,7.03654,7.03654,0,0,0,.0937,1.6191c-.125.1914-.125.3487,0,.4756l.0488,2.5713A23.40461,23.40461,0,0,1,358.1758,42.39529Zm3.8555,7.0459a.53779.53779,0,0,1,.2851-.5723q3-1.61715,6.0938-2.998,2.0448-1.09425,4-2.2852c.5058-.0947.7129.0156.6171.333-.1582-.125-.2226-.0459-.1894.2393l-1.4258,1.3799q-1.66995,1.47795-3.2383,3.1425-1.28895,1.38135-2.6191,2.7129c-.2852.2549-.5879.5391-.9043.8555a4.53809,4.53809,0,0,1-1.1914,1.1426c-.2539.3203-.4434.2871-.5684-.0938Q362.5537,51.39184,362.0313,49.44119Zm.0976-10.8526v.6172c-.0332.3516.0137.5088.1406.4756a8.866,8.866,0,0,0-.0937-1.8076Zm1.2832,13.8526.1895-.334C363.3164,52.13939,363.2539,52.24879,363.4121,52.44119Zm3.6641-19.375a1.30308,1.30308,0,0,1,.3359-.5713,1.51652,1.51652,0,0,1,1.3789-.0967.38058.38058,0,0,0,.1895.3809,56.00056,56.00056,0,0,1,3.666,5.4287,2.07,2.07,0,0,1-.8555,1.7129,10.09456,10.09456,0,0,1-1.3808,1.4756,7.66419,7.66419,0,0,1-1.1407-1.9522,8.1002,8.1002,0,0,0-.5273-1.7129,6.10867,6.10867,0,0,1-.8066-1.999,4.51765,4.51765,0,0,1-.2383-.7158A4.13362,4.13362,0,0,1,367.0762,33.06619Zm.8144-6.7129a2.14889,2.14889,0,0,1,.9004-.6651,28.81284,28.81284,0,0,1,4.9024,3.045c.0644.3496.2558.4941.5703.4306a.56725.56725,0,0,0-.3789.2842h.3789a.36747.36747,0,0,1-.2832.1895,3.62709,3.62709,0,0,0-1.0449,1.1416.5364.5364,0,0,0-.5254.6181.69846.69846,0,0,0-.0489.4307.87143.87143,0,0,1-.5234.4785Q369.93365,29.30489,367.8906,26.35329Zm.5684,20.5185a.13743.13743,0,0,0,.0449-.0947C368.5039,46.617,368.4902,46.64819,368.459,46.87179Zm1.9199,7.9395.2734-.3457a1.54179,1.54179,0,0,0,.252-.7246q.51855-1.30665.9824-2.7569a4.28212,4.28212,0,0,0,.5606-1.4062,2.75306,2.75306,0,0,1,.2539-.7266L375.5,37.34739a5.80626,5.80626,0,0,0,.4277-1.8066,1.82125,1.82125,0,0,1,.9121-1.4902l2.3321-.0977a2.85279,2.85279,0,0,0,.7148.0635,6.87668,6.87668,0,0,1,.7617.0156l.8106-.0352.4004-6.2548a1.44221,1.44221,0,0,1,.1445-1.1534.4793.4793,0,0,1,.6445-.0019.479.479,0,0,0,.6426-.0029l2.0703.5312a2.75226,2.75226,0,0,1,.834.5342c.0742,1.1113.1074,2.2217.0899,3.334a.99257.99257,0,0,1-.1192.5293l-.0918,2.291a.289.289,0,0,0,.1094.4248,4.758,4.758,0,0,0,1.4863.1738,3.468,3.468,0,0,1,1.1465.0459c.1582-.0068.3379-.0224.5449-.0459a1.46532,1.46532,0,0,1,.5977.0488l2.0195.4375c.3594.2383.3711.5538.0391.9493q-1.44435,1.8237-2.9922,3.5595a1.94234,1.94234,0,0,0-1.2031.9063c-.2207-.0195-.2774-.1621-.1602-.4219a.46252.46252,0,0,1-.4297-.0762l.3418-4.3037q.31065-.48915-.2148-.5146a8.57218,8.57218,0,0,0-1.2852-.043l-.3769,5.7842,1.6777.166a8.59306,8.59306,0,0,0,1.0918-.0225,3.55241,3.55241,0,0,1,1.0996.0723l.7305.3506c.459.3623.4746.7744.0547,1.2363a.56649.56649,0,0,1-.1016.4815.48665.48665,0,0,0-.1016.4336,46.12441,46.12441,0,0,1-2.7265,4.2597,1.294,1.294,0,0,0,.7578.3994,1.24265,1.24265,0,0,1,.6523.2559,8.281,8.281,0,0,1,2.7715,1.3115q-1.04,1.33305-2.1777,2.6162a1.152,1.152,0,0,0-.6836.6983,2.78481,2.78481,0,0,0-1.1758-.7129l-1.5703-1.127a1.37454,1.37454,0,0,0-.7383-.539,21.14566,21.14566,0,0,0-1.7441,1.5986c-.209.2314-.416.4707-.6133.7178a3.5916,3.5916,0,0,1-.709.6719c-.2324.4531-.457.4628-.6641.0283q.6651-2.21925,1.4805-4.4463a.59677.59677,0,0,0,.0723-.4785l-2.5528-1.7969a6.7662,6.7662,0,0,0-.9003-1.0117.52091.52091,0,0,1-.3536-.5088q2.1183.53025,4.2442,1.249.4365.1728.5547-.4512a19.8327,19.8327,0,0,0,1.4004-4.0634q.11415-.57435-.7871-.5362a3.36535,3.36535,0,0,0-.8145-.1572,22.09069,22.09069,0,0,1-3.8184-.0752c-.4824-.1387-.5703-.373-.2675-.7051l1.3789-.0595.3906-5.4483c-.0449-.25-.2363-.3701-.5859-.3564-.3516.0156-.4668.2461-.3536.6855a21.275,21.275,0,0,0-.9004,3.4678.756.756,0,0,1-.2148.6289l-.4121,1.4463a40.10083,40.10083,0,0,1-4.0293,8.4131.82364.82364,0,0,0-.168.5283,43.88246,43.88246,0,0,1-3.9316,5.0752q-.19335-.08505-.2754.2021A.45226.45226,0,0,1,370.3789,54.81129Zm1.9824-23.4609c-.0976-.0303-.1425,0-.1425.0976C372.2188,31.54079,372.2637,31.51249,372.3613,31.35039Zm.8125-.3789-.5761.2841C372.6641,31.13159,372.8535,31.03489,373.1738,30.97149Zm.5684,17.7548a1.81532,1.81532,0,0,0-.4277.9073l.2851-.335A.8525.8525,0,0,0,373.7422,48.72629Zm.3789-.331c-.1875,0-.2832.1103-.2832.331C374.0586,48.72629,374.1563,48.616,374.1211,48.39529Zm.2852-.4776c-.125,0-.1875.0791-.1875.2383C374.3438,48.156,374.4063,48.07789,374.4063,47.91769Zm.5253-1.0459-.2382.5235C374.9785,47.23409,375.0566,47.06129,374.9316,46.87179Zm.1915-5.5214a4.09852,4.09852,0,0,0,.3339-.8125.74666.74666,0,0,0,.0469-.7598A4.54163,4.54163,0,0,0,375.1231,41.35039Zm2.4257-2.7618-.2343.7627c0,.0928.0781.0459.2343-.1455A.97356.97356,0,0,0,377.5488,38.58859Zm5.1914-.9521a.59813.59813,0,0,0,.0957-.334C382.7402,37.33469,382.709,37.44409,382.7402,37.63649Zm.0957,2.0449c.1895.0967.2832.0498.2832-.1426C382.8965,39.41379,382.8027,39.45969,382.8359,39.68139Zm.2344-8.9951a.1268.1268,0,0,0-.1426.1416C382.9941,31.17749,383.0391,31.13159,383.0703,30.68629Zm-.0449-.0957c.1582-.0635.1914-.1914.0937-.3799C383.0566,30.14629,383.0254,30.27219,383.0254,30.59059Zm.9512,8.8535c-.1914.0313-.2871.0947-.2871.1924C383.7539,39.699,383.8496,39.63649,383.9766,39.44409Zm.0488.999c.0957.1914.2051.21.334.0498C384.2305,40.20579,384.1211,40.18819,384.0254,40.44309Zm1.6172,9.4746c0,.1602.1113.2383.334.2383C385.9766,49.99779,385.8652,49.91769,385.6426,49.91769Zm.2871-.4296a.45637.45637,0,0,0,.332.1455A.27186.27186,0,0,0,385.9297,49.48809Zm1.0469-7.377c-.0938.0322-.1446.1426-.1446.3311C386.9902,42.34839,387.0391,42.23709,386.9766,42.11109Zm.1894,4.1875a.34991.34991,0,0,0-.2832.4287A.58935.58935,0,0,0,387.166,46.29859Zm.2871-.5723a.49378.49378,0,0,0-.334.4776A.79723.79723,0,0,0,387.4531,45.72629Zm.666-3.6152a.18743.18743,0,0,0-.0957.1895C388.1191,42.46069,388.1484,42.39529,388.1191,42.11109Zm1.2344-6.2832c-.0918,0-.1426.0312-.1426.0937C389.2754,36.17649,389.3223,36.14429,389.3535,35.82789Z"/>
      <path class="a" d="M394.0684,51.24879l2.3808-4.7598q1.9044-4.4736,3.6172-8.9941a.98948.98948,0,0,0,.1426-.5244q.7149-2.66895,1.5723-5.335c.0918-.2197.2226-.3301.3808-.3301a23.96846,23.96846,0,0,1,3.0469,1.6651.55959.55959,0,0,1,.1914.665,7.30709,7.30709,0,0,1-1.2871,2.8584c-.2207.4131-.2207.6182,0,.6182a32.03379,32.03379,0,0,1,3.3808-1.9043,8.26754,8.26754,0,0,1,.6641,1.665q.38385,1.002-.3809,1.3809a32.85167,32.85167,0,0,0-4.9023,1.7617,1.94318,1.94318,0,0,0-1.0469.9531c-.0312.1895.0957.2373.3809.1416a31.03373,31.03373,0,0,0,3.5723,4.6162,1.13038,1.13038,0,0,1-.0508.9541,12.748,12.748,0,0,0-1.3301,1.5713,1.34821,1.34821,0,0,0-.5273.7617.67923.67923,0,0,1-.5684.2354c-.1602,0-.2852-.1406-.3789-.4268q-.67095-1.4736-1.3828-2.9043a.34922.34922,0,0,1-.2832-.4267,12.50085,12.50085,0,0,1-.668-1.333.37444.37444,0,0,0-.334-.335,41.54923,41.54923,0,0,1-5.6172,7.4756c-.1914.2842-.3808.4258-.5722.4258h-.0469A.49964.49964,0,0,1,394.0684,51.24879Zm2.6679-9.5684-.5722-1.331a1.07956,1.07956,0,0,1-.1914-.3799q-.80565-1.95405-1.5235-3.998v-.9551a.54345.54345,0,0,1,.5235-.1426l2.2871,1.667,1.8554,1.6182a1.25969,1.25969,0,0,0,.0489.9033,8.65441,8.65441,0,0,1-.7168.8115l-1.045,1.665A.43834.43834,0,0,1,396.7363,41.68039Zm4.9043-.3789a.281.281,0,0,0,.1407.2373A.281.281,0,0,0,401.6406,41.30149Zm3.3301,9.1875a41.44848,41.44848,0,0,0,3.9981-5.666,3.26332,3.26332,0,0,0,.6191-1.1885l-1.9023.0459q-.7149-.37935.0917-.7148a3.52811,3.52811,0,0,1,.67-.0928,6.8308,6.8308,0,0,0,1.8066-.0488,1.81673,1.81673,0,0,0,1.4766-.334l.1894-3.5693c-.0937-.2539-.3164-.3174-.666-.1905-.1582,0-.373-.0058-.6406-.0234-.2715-.0156-.4063-.1357-.4063-.3555a1.35891,1.35891,0,0,1,1.7129-.6699,9.003,9.003,0,0,0,.2871-1.8535c.0938-.2236.2539-.2715.4746-.1436a3.141,3.141,0,0,1,2.4297.5245l-.0507.7617q-.1875.09375,0,.4277c.0644.3154.2578.3809.5742.1914a3.82287,3.82287,0,0,0,1.5703-.0488l.1445-.7627a.40326.40326,0,0,0,.1426-.4766.49614.49614,0,0,1,.2851-.6172,2.17771,2.17771,0,0,1,1.2364-.3837,5.61111,5.61111,0,0,0,1.8086-.3799.80766.80766,0,0,1,.9531.2383,6.17213,6.17213,0,0,1,0,2.1435l1.2383.0479a.84992.84992,0,0,1-.1426.9511l-1.2402-.0478v3.8574h1.0468a2.6863,2.6863,0,0,1,1.334-.1455c.0938,0,.3008-.0147.6192-.0469a3.479,3.479,0,0,0,1.1425-.0947,1.07423,1.07423,0,0,1,.4766-.0928l.0469.0469c.1894,0,.3965.0068.6211.0234.2187.0157.3301.1641.3301.4522a.95516.95516,0,0,1-.9512.4756c-.2246.0654-.3653.0468-.4317-.0489l-1.7089.1436a1.83579,1.83579,0,0,1,.2832.2383,1.52939,1.52939,0,0,0,.7168.4287,3.12417,3.12417,0,0,0,.9023.7617,5.71506,5.71506,0,0,1,.4277.4756c.7305.5381,1.4453,1.1123,2.1426,1.7119a.52868.52868,0,0,1,.1445.4785,16.421,16.421,0,0,1-2.8574,1.7139,1.4041,1.4041,0,0,1-.9512.2861c-.2226.0625-.3339-.0342-.3339-.2861a6.75637,6.75637,0,0,0-1.1895-1.7139,17.10657,17.10657,0,0,1-3.7129-3.7148,1.74255,1.74255,0,0,0-1.334-.1416.98708.98708,0,0,0-1.1406.334c-.1914.2197-.3828.1582-.5742-.1924a2.68829,2.68829,0,0,0-2.6172.8115,49.15742,49.15742,0,0,1-8.5215,6.9023Q405.11335,51.155,404.9707,50.489Zm2.5703,2.0948a.22473.22473,0,0,1,.1914-.2383,1.34572,1.34572,0,0,1,1.0469-.5703,28.11155,28.11155,0,0,0,4.5703-1.6192,1.24721,1.24721,0,0,0,.7617.1895.38716.38716,0,0,1,.1895.4756c-.1895.1601-.2539.3046-.1895.4277a4.92245,4.92245,0,0,1-1.1425.668q-2.048,1.5702-4.1426,3.0937a.5195.5195,0,0,1-.8574.0479A8.76,8.76,0,0,1,407.541,52.58379Zm2.2852-19.9473a1.4183,1.4183,0,0,0-.0469-.9522,1.76077,1.76077,0,0,1-.0957-.5712q-.4776-3.33255-.7598-6.6631a.786.786,0,0,1,.045-.7168c-.127,0-.1719-.0918-.1426-.2842a5.71109,5.71109,0,0,1,2.5215-.2852c.4785,0,.9531-.0166,1.4296-.0478a.9025.9025,0,0,0,.2872-.0469,7.17494,7.17494,0,0,0,1.664-.0957,1.13368,1.13368,0,0,0,.4766.0508,1.66265,1.66265,0,0,0,.4765-.0508q2.56935-.09225,5.0918-.3809a2.825,2.825,0,0,1,.5254-.0468,2.10652,2.10652,0,0,1,2.1895.8574,25.46741,25.46741,0,0,1-.0469,2.7109,43.00084,43.00084,0,0,1-.3808,7.5713l-.5704.2862a1.81467,1.81467,0,0,1-.5254.1181c-.1894.0156-.3652.0244-.5234.0244h-.8594a6.25018,6.25018,0,0,1-1.7109.1416.723.723,0,0,0-.7148,0c-.5684.0313-1.1094.0459-1.6172.0459-.5703,0-1.1114.0196-1.6211.0498l-1.711.1426a.91779.91779,0,0,0-.7148,0,.82146.82146,0,0,1-.8574,0,2.22408,2.22408,0,0,0-.4766.0459,1.51519,1.51519,0,0,1-.4746.0967.826.826,0,0,1-.7148-.4775A8.21318,8.21318,0,0,0,409.8262,32.63649Zm.8574-1.4766a.79468.79468,0,0,0,.0937.4297C410.8086,31.17749,410.7773,31.03489,410.6836,31.15989Zm.0937-2.8056c.127-.0342.1426-.127.0489-.2862C410.7969,27.87569,410.7773,27.97049,410.7773,28.35429Zm.1915-4.2383a.921.921,0,0,0,.4765.1894C411.3828,23.991,411.2227,23.92559,410.9688,24.116Zm.8574,25.4668-.1914-1.2852a2.77032,2.77032,0,0,1-.1426-1.665.7229.7229,0,0,1,.5723-.1436,10.71372,10.71372,0,0,1,1.9043,2.0479,4.8216,4.8216,0,0,1-1,1.6191.35674.35674,0,0,0-.334.2862.45539.45539,0,0,0-.334-.1446C412.0156,50.23509,411.8555,49.99779,411.8262,49.58279Zm-.334-18.8965c-.0313-.0645-.0469-.0508-.0469.0469C411.5391,30.82789,411.5547,30.81129,411.4922,30.68629Zm.0469,1.7617a.21.21,0,0,0,.2382.2373C411.7773,32.42949,411.6973,32.35129,411.5391,32.448Zm.3808,21.708q.61815-.95505,1.8125-.0986c.2188.0986.3301.0176.3301-.2373q.38085-2.2368.9512-4.4258a18.22514,18.22514,0,0,0,.6679-3.2393.40564.40564,0,0,1,.1446-.4287,11.28116,11.28116,0,0,1,4.5683,1.1455,12.68984,12.68984,0,0,1-.9531,4.2832c.0957.3165.2715.3331.5234.0469a19.28666,19.28666,0,0,1,1.4766-2.0937.56036.56036,0,0,0,.334-.3819.65392.65392,0,0,1,.8066-.331.30644.30644,0,0,1,.2891.331l1.0918.6182a.71364.71364,0,0,1,.4297.5732q-1.4268.9507-2.9512,1.8067l2.4297.8125c.0605,0,.2344.0127.5215.0469l1.1894.3798c.3184.1924.334.3985.0508.6182a5.38017,5.38017,0,0,1-1.0019,2.0459.37261.37261,0,0,1-.3809.2871,2.58578,2.58578,0,0,1-.7617-.333l-4.0469-3.3789c-.2207-.0957-.3496-.0156-.3808.2383a21.15441,21.15441,0,0,1-.9043,3.665c-.1895.3496-.379.6963-.5684,1.0449a1.17548,1.17548,0,0,1-1.0957-.2382.4764.4764,0,0,0-.5234-.3301,11.22,11.22,0,0,1-1.9532-1.1934,1.20243,1.20243,0,0,0-.4297-.2373A13.04506,13.04506,0,0,1,411.9199,54.156Zm.2871-23.8994a.63263.63263,0,0,0-.0957-.5234A.67353.67353,0,0,0,412.207,30.25659Zm1.5254,3.4287h.9961c.3496,0,.7149-.0156,1.0977-.0498a9.67657,9.67657,0,0,1,1.2363-.1885,1.01025,1.01025,0,0,0,.5254-.0488c.6328-.0928.8535-.5381.6641-1.331q0-2.7159.0957-5.4288a17.88771,17.88771,0,0,0-.0489-2.9052l-3.7597-.045a4.87569,4.87569,0,0,1-1.8086.1426,11.13178,11.13178,0,0,1,.2383,2.2364,20.51242,20.51242,0,0,0,.2382,3.1425.86874.86874,0,0,0,.1426.666c.8242-.1562,1.6817-.2861,2.5703-.3808a1.423,1.423,0,0,1,.5215-.0957,3.23073,3.23073,0,0,1,1.5723.1904c.0625.2539-.0645.4151-.3809.4756a17.9521,17.9521,0,0,1-3.1875.3838,6.53734,6.53734,0,0,1-.7129.0947.69681.69681,0,0,0-.4785.9502,1.06687,1.06687,0,0,0,.0957.4785A3.08656,3.08656,0,0,0,413.7324,33.68529Zm-.7636,7.6162-.0977.4297C413.125,41.53879,413.1582,41.39629,412.9688,41.30149Zm.4746,1.1407a.59768.59768,0,0,0,.4765,0A.29956.29956,0,0,0,413.4434,42.44219Zm1.4746-1.5235-.0918,1.667c.2519,0,.4726-.0068.664-.0234.1914-.0157.4297-.0381.7168-.0723l.6153-.0478.334-3.9043h-2l-.0957.1923a1.20981,1.20981,0,0,0,0,.667Zm1.0957,7.2373a4.29464,4.29464,0,0,0-.5235,1.9033A5.27948,5.27948,0,0,0,416.0137,48.156Zm.0469,4.9502c.0976.0957.1738-.0312.2382-.3808C416.1387,52.72539,416.0606,52.85229,416.0606,53.10619Zm.3808-.9033a.321.321,0,0,0-.1426.2842C416.3945,52.48709,416.4414,52.39139,416.4414,52.20289Zm2.2383-25.3272a.77376.77376,0,0,0,.1914.5723l.1426-1.4267c0-.3838-.0801-.5401-.2383-.4766A4.703,4.703,0,0,1,418.6797,26.87569Zm.6191,20.3272v-.0947c0-.1573-.1289-.2364-.3808-.2364A.39293.39293,0,0,0,419.2988,47.20289Zm-.1894-5.3301c0,.0313-.0176.0459-.0488.0459C419.1231,42.01639,419.1406,42.00069,419.1094,41.87279Zm2.4746-10.7597c.125.2841.2383.1923.332-.2852C421.7578,30.63549,421.6484,30.73319,421.584,31.11309Zm1.8105,18.6621-.1933.0927C423.1387,50.09249,423.2012,50.05929,423.3945,49.77519Zm2.9493-3.5225c0,.126.0312.1875.0957.1875C426.6621,46.28589,426.6309,46.22049,426.3438,46.25269Zm1.6171.2363a.77459.77459,0,0,0-.1406.4766C428.0723,46.87179,428.1231,46.71169,427.9609,46.489Z"/>
      <path class="a" d="M438.1445,54.72539a2.33166,2.33166,0,0,1,.0957-.7149,3.00442,3.00442,0,0,0,.1426-1.1885q.8613-5.42865,1.2383-10.9492l-1.3809,1.4737a3.74071,3.74071,0,0,1-.8105,1.1914q-.85545.76305-1.666,1.5224l-1.2852,1.3809a.30375.30375,0,0,0-.2832.3349,3.21219,3.21219,0,0,0-1.2402,1.0459,3.53132,3.53132,0,0,0-1.3789.7608q-1.2861.71475-2.5723,1.5234-.5214.57285-.8574.1426a11.10764,11.10764,0,0,1,1.7656-2.5684,76.69124,76.69124,0,0,0,5.1875-8.2373,24.96879,24.96879,0,0,0,1.9043-3.6152c-.2266-.2559-.4941-.2559-.8105,0a37.29929,37.29929,0,0,0-4.6661.7617,1.96367,1.96367,0,0,1-.621.0918,1.035,1.035,0,0,1-.5215-.6182.42139.42139,0,0,1,.5215-.4277c.7343-.125,1.4472-.2383,2.1464-.334a2.71619,2.71619,0,0,0,.5235-.0459l4.9961-.7627a6.69246,6.69246,0,0,1,.8105-.0468,2.23329,2.23329,0,0,0,.8086-.1455,2.347,2.347,0,0,0,.2871-1.1416,29.74513,29.74513,0,0,1,.1406-3.7598,1.03159,1.03159,0,0,1,.1446-.7129,5.02987,5.02987,0,0,1,.2851-2.5723,1.323,1.323,0,0,0,.1426-.9502A5.39688,5.39688,0,0,1,444,25.21069a3.72889,3.72889,0,0,1,.4746-.0459,14.23781,14.23781,0,0,1,2.668-.5234q.2373.139.0937.4267c-.0625.2539-.1093.4444-.1425.5694a2.79814,2.79814,0,0,1-.0469.9082l.2383-.3819q-.43065,2.52405-.6192,5.0918c-.0644.8252-.0957,1.6368-.0957,2.4297a1.08751,1.08751,0,0,1,.1914.6162l2.0469-.33a.55322.55322,0,0,0,.0957-.6202,12.02763,12.02763,0,0,0,.6191-1.7617l.8086-4.8056a2.74161,2.74161,0,0,1,2.2364-.4307c.2851.0312.4765.0469.5722.0469.2871.0341.5547.0556.8086.0732q.38085.0234.8086.0234a.5382.5382,0,0,1,.1406.5713.38344.38344,0,0,0-.1875.4278,26.54325,26.54325,0,0,1-1.7148,4.332,2.7818,2.7818,0,0,0-.5703,1.332c-.127.1914-.0488.2549.2383.1914a1.05909,1.05909,0,0,1,.4765-.0966,2.71514,2.71514,0,0,0,.4766-.0469l2.6152-.4287a1.3748,1.3748,0,0,0,.7149-.0938q1.0956-.33255,1.2851.7129a.4402.4402,0,0,0-.334.2871c-.6328.0322-1.2851.0938-1.9492.1904a6.66422,6.66422,0,0,1-.8125.0459,2.29861,2.29861,0,0,1-.9472.1924c-.0977,0-.2969.0069-.5957.0235a.986.986,0,0,0-.5489.1181,2.71585,2.71585,0,0,1-.5234.0459l-2.1426.4297a22.938,22.938,0,0,0,3.7129,4.8574,27.36732,27.36732,0,0,0,3.3809,4.0918,2.224,2.224,0,0,1-1.2871,1.6651,11.91255,11.91255,0,0,1-1.7129,1.0947,4.57814,4.57814,0,0,0-.9043,1.001c-.1914.2236-.3477.2236-.4766,0l-1.5234-2.0957a10.80668,10.80668,0,0,1-1.4766-2.2334,26.08217,26.08217,0,0,1-1.6172-2.335,3.42167,3.42167,0,0,1-.9043-1.5713c-.1601.0664-.2383.0157-.2383-.1435-.3496,0-.4765-.1416-.3808-.4268q-.28425-.4761-.6192-.2842c-.2851,0-.4453.1241-.4765.3789a.2655.2655,0,0,1-.1895.3809l-.1914,2.6201a4.1906,4.1906,0,0,1-.1426,2.0918c0,.1279-.0468.0801-.1425-.1426-.0313.3496-.0157.4776.0488.3799v.9063q-.334,3.8583-.8086,7.6172a3.68261,3.68261,0,0,0,0,.8564,1.17728,1.17728,0,0,1-.4785.4756,2.59112,2.59112,0,0,1-1.4727.333,1.911,1.911,0,0,0-.4765.0488l-1,.2852a4.65353,4.65353,0,0,1-2.0957.4756C438.5254,55.24779,438.2734,55.13649,438.1445,54.72539Zm-6.6172-5.9034a.25521.25521,0,0,0-.1894.2862C431.6231,49.04569,431.6856,48.95,431.5273,48.822Zm1.1915-.6191a1.73574,1.73574,0,0,0-.9532.6191,1.30327,1.30327,0,0,0,.5723-.3339C432.6211,48.39529,432.75,48.29759,432.7188,48.20289Zm1.8554-1.665a18.21391,18.21391,0,0,0-1.6191,1.5234l1.2851-1.0469C434.5586,46.78979,434.6699,46.63259,434.5742,46.53789Zm-.1406-3.0948a.28061.28061,0,0,0-.1934.0479,8.92467,8.92467,0,0,0-1.0937,1.8096l.8105-1.0479A2.43418,2.43418,0,0,0,434.4336,43.44309Zm-.6699,2.7119-.6172.7168.2383-.1445A.76409.76409,0,0,0,433.7637,46.155Zm1.6191-14.0878c-.0312,0-.0469.0136-.0469.0468-.1894,0-.2363-.1513-.1406-.4521a1.218,1.218,0,0,0-.1465-.9756,32.13707,32.13707,0,0,1-1.0918-3.9023,1.45107,1.45107,0,0,1-.0254-.6915,3.26936,3.26936,0,0,1,.1915-.6435.4426.4426,0,0,1,.4511-.2842,7.11136,7.11136,0,0,1,1.7129,1.1885l2.336,2.5723a1.09922,1.09922,0,0,1,.1406.5693,19.39383,19.39383,0,0,1-1.9512,1.9531,1.89237,1.89237,0,0,1-1.1426.8086A.257.257,0,0,0,435.3828,32.06719Zm1.7168,10.8056c-.0957,0-.1758.0645-.2402.1895C436.9551,43.06229,437.0332,42.99679,437.0996,42.87279Zm.4746-1.8574-.332.2861C437.2422,41.52319,437.3516,41.42849,437.5742,41.01539Zm.7617-1.1416-.4296.4756c-.2852.2539-.3497.4453-.1895.5693Zm1.3321,10.9473q-.04695-.04845-.0469.0966C439.6856,51.04469,439.7012,51.01149,439.668,50.82109Zm.9511-8.1407c-.0957,0-.1269.0713-.0957.2139C440.5566,43.03879,440.5879,42.96559,440.6191,42.68039Zm0-.8076.0469.3809a4.0362,4.0362,0,0,0,.1446-1.8584.6885.6885,0,0,0-.1172.5957,1.46267,1.46267,0,0,1-.0274.6894Zm.334,5.9961-.1894,1.2393A2.44558,2.44558,0,0,0,440.9531,47.86889Zm.1914-11.1377q-.0468-.0966-.0468.0469C441.127,36.97049,441.1445,36.95289,441.1445,36.73119Zm.4278-5.4756c.2207.0948.2871-.1103.1914-.6201a1.16276,1.16276,0,0,0-.1426-.7598Zm.0488.2383a.39581.39581,0,0,0,.0937.3818Q441.8555,31.54464,441.6211,31.49389Zm0,.7149a.57064.57064,0,0,0,.0937.333Q441.76175,31.87819,441.6211,32.20879Zm.4277-5.7588c0,.1269.1094.2392.334.334C442.5723,26.55929,442.4609,26.45,442.0488,26.45Zm.6641,21.1836.0977-.4307C442.7441,47.17359,442.7129,47.31619,442.7129,47.63359Zm.0508.5693-.0508.8105C442.9043,48.63259,442.9199,48.36209,442.7637,48.20289Zm.0957-19.9463a1.75706,1.75706,0,0,0-.0957.8574A2.01323,2.01323,0,0,0,442.8594,28.25659Zm.0449,3.9043.0469.1904a.73321.73321,0,0,0,.1426.6192l.1445-2.335c-.1602-.0596-.2227.0508-.1914.336C443.0156,31.38449,442.9668,31.78,442.9043,32.16089Zm.7148-4.7129a.48357.48357,0,0,0,.1895.5713,4.48256,4.48256,0,0,0-.0957-1.2852Zm.2403,6.3311a.32158.32158,0,0,0,.0449.3799,14.43179,14.43179,0,0,0,.1914-2.379A4.67116,4.67116,0,0,0,443.8594,33.77909Zm0,17.8506a.41569.41569,0,0,0,.1875-.5694C443.8867,51.02809,443.8262,51.22049,443.8594,51.62969Zm.1875-15.6133.0488-.2373C444.0957,35.62179,444.0801,35.7,444.0469,36.01639Zm.9043-10.3282-.4278.045c-.2246,0-.3652.0644-.4277.1924l.4277-.0957C444.7461,25.86209,444.8867,25.81419,444.9512,25.68819Zm-.3321,1.8077c0,.1582.0489.2363.1426.2363l-.0469-.7129C444.6484,26.989,444.6191,27.14629,444.6191,27.49589Zm.1895,18.2304a.20692.20692,0,0,1-.0469.1446C444.791,46.09449,444.8086,46.04659,444.8086,45.72629Zm.7148-18.6123a3.80172,3.80172,0,0,0-.1425,1.001A1.50925,1.50925,0,0,0,445.5234,27.114ZM446,31.06619l-.1914,2.8095h.0937l.2872-2.8095Zm.0938-.1416a1.67922,1.67922,0,0,0,.0507-.4756Zm2,6.7119a.25133.25133,0,0,0,.2871.2842C448.3809,37.82889,448.2852,37.73119,448.0938,37.63649Zm.5234.5225c.0293.1269.1445.2373.334.3339Zm4.332-9.4258a3.17144,3.17144,0,0,0-.5722,1.332,1.52165,1.52165,0,0,0-.3301.9531Zm-.5234,10.5215a1.10627,1.10627,0,0,0,.3808.7607C452.8711,39.76249,452.7422,39.50659,452.4258,39.25469Zm.0469,1.33.5234.5254c.1289-.0312.0957-.1269-.0938-.2871C452.7422,40.60329,452.5996,40.52419,452.4727,40.58469Zm1.2851,5.3809c0,.0947.0488.1416.1465.1416.1563-.0606.0918-.1416-.1934-.2363C453.4277,45.90309,453.4395,45.93629,453.7578,45.96559Zm.1914-2.8535a.25192.25192,0,0,0,.2852.2842A.25192.25192,0,0,0,453.9492,43.11209Zm.2852.331c0,.1914.0781.3028.2383.333C454.5684,43.58569,454.4883,43.47439,454.2344,43.44309Zm.2851.4297a.18527.18527,0,0,0,.1446.1875C454.6641,43.90309,454.6152,43.84059,454.5195,43.87279Zm.3789,1.711c-.1562.1269-.2832.2392-.3789.3339C454.8379,45.85429,454.9629,45.74489,454.8984,45.58379Zm.9082-.6641c-.2871.0312-.4453.1582-.4785.3809A.74351.74351,0,0,0,455.8066,44.91969Zm.379-1.666c.0312.2207.1269.332.2851.332C456.4707,43.364,456.377,43.25369,456.1856,43.25369Z"/>
      <path class="a" d="M461.418,55.67649l.0937-.4756a1.33734,1.33734,0,0,1,.1914-.8574l.4785-4.9492a1.13422,1.13422,0,0,1,.0957-.668,2.97551,2.97551,0,0,1,.0938-1.0459c.0957-1.0136.2051-2.0644.334-3.1425a3.29083,3.29083,0,0,1,.1894-1.5723,18.87418,18.87418,0,0,0-3.3789,1c-.3808.0312-.7773.0801-1.1933.1455a1.16694,1.16694,0,0,0-.4258.0928.44721.44721,0,0,1-.668-.1436.33679.33679,0,0,1,.3809-.3799,44.95065,44.95065,0,0,0,6.664-5.0918.58651.58651,0,0,1,.4766-.2373l1.5254-1.4785c.1894-.2519.3144-.3789.3789-.3789a7.36113,7.36113,0,0,0,1.7148-1.4287.3209.3209,0,0,1,.4747.1895,8.05974,8.05974,0,0,1,1.6679,2.2402l.7149.7588a1.79052,1.79052,0,0,1-1.5254,1.3828c-.1582.2197-.3184.2676-.4746.1416-.4141.2529-.8262.5078-1.2383.7598q-.14355,1.812-.2852,3.5732a18.48324,18.48324,0,0,0-.4297,2.9502,1.15552,1.15552,0,0,0,.0957.5225,54.509,54.509,0,0,0-.8574,6.4267,11.53583,11.53583,0,0,1-3.0449,1.5713,6.39861,6.39861,0,0,1-1.5234.5713A.626.626,0,0,1,461.418,55.67649Zm10.9961-20.4218.0488-.7608a30.81846,30.81846,0,0,0,1.332-3.1885c.1602-.2871.2071-.4941.1426-.6191a5.3627,5.3627,0,0,0,.5254-1.2383,2.13067,2.13067,0,0,0-.7402-.1211c-.3633-.0137-.5957-.0215-.6895-.0215l-.7129.0479a1.40645,1.40645,0,0,1-.9512-.0479,4.28825,4.28825,0,0,0-.6679-.0498,4.05729,4.05729,0,0,0-1.9512.1924q-.5244,1.56885-.9512,3.2373c-.2558.6026-.5078,1.2061-.7656,1.8086a.69393.69393,0,0,1-.6152,0,2.19757,2.19757,0,0,0-.4766.0459.37666.37666,0,0,1-.5723-.0459.67043.67043,0,0,1-.6191-.1426l.3809-3.7607a3.52244,3.52244,0,0,1,.1914-1.4268l-1.4766-.2881a7.17028,7.17028,0,0,1-1.6641.0958l-.6191-.4756a1.612,1.612,0,0,0,.3809-.2852,1.57731,1.57731,0,0,1,.4765-.0478l2.3301.0478c.6367.0635.9531-.3027.9531-1.0967a1.13663,1.13663,0,0,1,.0957-.664,2.57447,2.57447,0,0,1,.0957-.9541c-.0957-.666.125-1.0459.668-1.1416.4102.0302.8066.0488,1.1875.0488a8.23626,8.23626,0,0,1,1.1914.0928l.7129.0966c.2539.1582.3027.3965.1426.7139a12.37036,12.37036,0,0,1-.5703,3.001l1.9043.0918a3.27328,3.27328,0,0,0,1.0957.0967,4.35354,4.35354,0,0,1,.6172.0488l.2832.0469a3.15645,3.15645,0,0,0,.4785.0713c.1894.0156.3633.0234.5234.0234a1.35858,1.35858,0,0,0,.7149-.0947l1.4257-4.7608a.43224.43224,0,0,1,.3809-.2842l.4785.045c.0313,0,.2383.0322.6172.0966a2.8915,2.8915,0,0,0,.6191.1426l1.4278.333a.63069.63069,0,0,0,.5234.1416,1.53827,1.53827,0,0,1,1.3809.4786,3.24039,3.24039,0,0,1-1.045,1.4267,8.58679,8.58679,0,0,1-1.666,2.334c-.1601.125-.1797.2519-.0507.3809l1.0488-.0499a.82037.82037,0,0,0,.7617-.0957l2.6152.1915a.42555.42555,0,0,0,.4766,0c.4141-.0645.6055.0966.5742.4765a1.84449,1.84449,0,0,1-1,.3799,42.48213,42.48213,0,0,0-5.334-.1416,22.20367,22.20367,0,0,0-2.4258,2.7617,7.90054,7.90054,0,0,1-1.2851,1.4277,4.50076,4.50076,0,0,1-1.5723,1.6172C472.543,35.65309,472.4141,35.572,472.4141,35.25469Zm-8.9473,8.331.1895-1A1.28268,1.28268,0,0,0,463.4668,43.58569Zm1-.2392a.41536.41536,0,0,0,0-.5225Zm.9023,3.0478c-.0312-.0615-.0468-.0488-.0468.0459C465.418,46.53789,465.4336,46.52319,465.3691,46.39429Zm.2383-2.6641c.0645.2207.1114.1729.1426-.1445C465.7188,43.45879,465.6719,43.50659,465.6074,43.73019Zm.1426-.8105v.1924C465.8125,43.30149,465.8125,43.23609,465.75,42.91969Zm.1445-.2861.1895-.7608c-.0645-.2871-.1289-.2558-.1895.0928A.631.631,0,0,0,465.8945,42.63359Zm.668-9.3282-.0977.0459c-.2558.1592-.3183.253-.1894.2842C466.6231,33.53979,466.7188,33.43039,466.5625,33.30539Zm6.5645,15.2315-3.8067.9043c-.2871-.0655-.3496-.1924-.1914-.3809q2.0478-1.2378,4.0957-2.6201l-.0976-1.665a.67592.67592,0,0,0-.0938-.5225,16.5734,16.5734,0,0,1-.2383-2.8096,1.22156,1.22156,0,0,1,.5235-1.332,1.14106,1.14106,0,0,1,.5722-.0957,3.95583,3.95583,0,0,1,.6192-.0947l.1914-.0469a7.39377,7.39377,0,0,1,1.2344-.0957l1.6679-.0469a.606.606,0,0,1,.8086.3799,9.91955,9.91955,0,0,0,.5742,2.665,3.958,3.958,0,0,0,1.1875-.9521,2.4461,2.4461,0,0,0,1-.5693,1.05151,1.05151,0,0,1,.4766-.1915,3.00167,3.00167,0,0,1,1.0215-.8808,9.38342,9.38342,0,0,0,1.0722-.6436.94268.94268,0,0,1,.668.0498,10.77573,10.77573,0,0,1,1.7129,3.9024c.0625.2851,0,.4277-.1894.4277-.129-.0957-.2266-.0459-.2872.1416a36.91277,36.91277,0,0,1-5.7128,2.3799,1.3501,1.3501,0,0,0-1,.5254c.0644.5078.1425.9844.2382,1.4297a9.44139,9.44139,0,0,0,.0977,3.2822,23.02268,23.02268,0,0,0,2.6172-.332,1.88941,1.88941,0,0,1,.6211-.0967h.664c.0957.2871.1563.2705.1875-.0469a1.0033,1.0033,0,0,1,.5723-.0957,4.47559,4.47559,0,0,1,.6211-.0947l1.1406-.0469a7.509,7.509,0,0,1,.8086-.0469l1.0488-.1416a2.652,2.652,0,0,1,.2852-1.1933,11.55082,11.55082,0,0,0,.9531-2.9024,4.20445,4.20445,0,0,1,1.4766-2.5224.64521.64521,0,0,1,.7129-.2393l.6191,1.8574a6.42219,6.42219,0,0,0,0,1.0957l.0469,1.5684a.86531.86531,0,0,1-.1426.6201,4.89226,4.89226,0,0,0,.0488,1.1895.49614.49614,0,0,1-.4765.5713q-3.4278.66945-6.9512,1.1416a5.69908,5.69908,0,0,1-1.666.1445,1.41291,1.41291,0,0,1-1.1426.1924,5.0119,5.0119,0,0,0-.6191.0693,3.5848,3.5848,0,0,0-.9043.2617,2.16379,2.16379,0,0,0-.5703-.0937h-.5704a3.54844,3.54844,0,0,0-.621.0469l-.6172.0947a4.74617,4.74617,0,0,1-3.666-.7158l-.5235-2.3799A2.88749,2.88749,0,0,0,473.127,48.53689Zm-3.9004-10.708.3808.0449C469.543,37.62179,469.416,37.60229,469.2266,37.82889Zm4.9492,3.0898c.1914.1914.2695.1602.2363-.0957C474.3184,40.63449,474.2402,40.66679,474.1758,40.91869Zm.2871,2.7158c-.0957,0-.1445.0323-.1445.0957V44.823h.1445Zm1.5684,3.3311c-.1582,0-.2364.0488-.2364.1426C475.9551,47.13939,476.0313,47.09249,476.0313,46.96559Zm.2851-5.2344a1.58567,1.58567,0,0,0,.2402.8545l.0489-.5244A.30509.30509,0,0,0,476.3164,41.73119Zm.4297-16.8545a.4042.4042,0,0,0-.0957.2881C476.8106,25.13159,476.8438,25.03689,476.7461,24.87669Zm1.4277,18.2823c.2539.0634.3184-.0342.1914-.2862C478.3027,42.68039,478.2383,42.77609,478.1738,43.159Zm1.7618-16.6133a13.60751,13.60751,0,0,0-1.4278,1.8086c-.2226.2216-.2832.3642-.1914.4257l1.2402-1.5234A1.42679,1.42679,0,0,1,479.9356,26.54569Zm-1.4278,24.8476c.0957.1582.1738.1582.2403,0C478.7773,51.10619,478.6992,51.10619,478.5078,51.39329Zm1.0957-7.4746c-.1601,0-.2383.0469-.2383.1416C479.6504,44.06029,479.7305,44.01539,479.6035,43.91869Zm1.3321,1.6192a.87228.87228,0,0,0-.6192.2851A.77589.77589,0,0,0,480.9356,45.53789Zm1.0957-3.6192c-.129,0-.1915.082-.1915.2393Zm.5703,2.0469a2.98725,2.98725,0,0,0-.7618.3799c0,.0644.1602.0195.4766-.1416C482.5684,44.11109,482.6641,44.03,482.6016,43.96559Zm1.4297-3.665-.5723.2841c-.0645.3203.0488.334.334.0498A1.31242,1.31242,0,0,0,484.0313,40.30059Zm.0937,2.333c.1582.0957.2871-.0157.3828-.333A.39275.39275,0,0,0,484.125,42.63359Zm.4766-1.5235h.0937C484.666,40.85619,484.6328,40.85619,484.6016,41.11009Zm.7148,2.1436c0,.1582.0449.2373.1406.2373C485.457,43.33079,485.4102,43.25369,485.3164,43.25369Zm3.8555,4.0928c-.0957,0-.1406.08-.1406.2373C489.0898,47.71169,489.1406,47.63359,489.1719,47.34649Z"/>
    </g>
    <g>
      <g>
        <path class="a" d="M104.31444,45.55132c-.25913-.53523-.15429-.82762.52-.87619,4.31062-.43809,8.206-2.48393,11.73754-2.62963,2.64964-.099,4.93549.68006,6.18316,4.042,1.08958,2.924.20764,5.74789-1.56005,8.33179-2.59629,3.80016-8.20608,7.45364-15.01019,8.67079a5.03691,5.03691,0,0,1-3.2229-.48666c-1.4515,2.67918-3.01155,5.89544-4.82879,9.93845-.20763.48676-.46667.48676-.83054.14766-.72766-.73146-1.24767-2.19437-.46667-4.82489,1.34861-4.43263,6.23075-13.59291,10.75086-20.26653A3.85248,3.85248,0,0,1,104.31444,45.55132Zm16.20441.9744c-1.08958-2.67918-6.28214-.1457-9.71278.78a10.57838,10.57838,0,0,1-1.97152,5.35924c-1.35241,2.241-2.80772,4.483-4.364,7.21071C116.10533,57.829,121.92276,49.93724,120.51885,46.52572Z"/>
        <path class="a" d="M147.47988,73.51533c-3.22105.1971-5.4554-.29142-7.27449-1.85059a4.717,4.717,0,0,1-1.66109-3.16585c-2.69917,4.62789-5.60969,10.08427-8.15458,15.53967-.20764.43907-.57141.58575-.83054.14766-.779-.97528-1.09144-2.3868-.10475-5.35925,1.04-3.11825,5.45355-11.35095,9.19461-17.734a7.362,7.362,0,0,1-4.882,1.26766c-1.09153,4.18969-4.31258,9.25655-8.20793,10.42512a5.89082,5.89082,0,0,1-6.54313-2.09431c-2.3391-2.82674-1.45531-7.11366.83055-10.96142,1.97142-3.31341,5.19442-6.13927,8.31072-6.33549a3.583,3.583,0,0,1,3.47822,1.65816c1.19628,1.50963,2.75448,1.75345,2.49349,5.35924a4.03732,4.03732,0,0,1-.15624.77818c3.32589-.04857,6.64983-3.55537,9.40235-7.55079.46667-.63237.98669-.53621,1.24757.09811a4.55231,4.55231,0,0,1,.41528,2.19155c2.2325-1.89916,5.40215-3.40967,7.58316-1.121,2.3906,2.48579,1.29917,6.77262-.67431,10.71849-1.61145,3.21539-3.42868,5.50494-5.35066,6.6269,4.98494-.24479,8.10319-3.7039,9.76418-6.96786.31238-.68191.88389-.48666,1.03818,0a4.48457,4.48457,0,0,1-.7772,3.16585C154.69927,71.66474,151.16574,73.27336,147.47988,73.51533Zm-20.517-16.51494a19.90011,19.90011,0,0,0-4.00009,4.62875c-2.23446,3.65349-2.962,8.18413-1.66295,9.208,1.45531,1.16858,4.623-.63334,7.16789-5.01926a21.77441,21.77441,0,0,0,1.922-4.18872A5.78546,5.78546,0,0,1,126.96289,57.00039Zm4.10114,0c-.20764-1.5582-1.29722-1.31526-1.5582.14765a3.65177,3.65177,0,0,0,1.24582,3.26386A9.2541,9.2541,0,0,0,131.064,57.00039Zm18.90934-1.65622c-1.301-.48676-4.31258,1.80387-6.75457,5.55449-.57141.92476-1.24572,1.9-1.922,2.922-1.19432,2.97245-1.45335,5.79831-.05139,6.87072,1.71434,1.31429,5.08967-2.242,7.48027-6.87072C150.75057,59.8757,151.27058,55.83083,149.97337,55.34417Z"/>
        <path class="a" d="M176.10005,62.45774c1.29917,3.264-2.02672,6.91744-4.20773,8.37938A11.08284,11.08284,0,0,1,161.03476,71.86c-2.33725-1.16858-4.36017-4.19057-4.46686-8.185-.20764-10.32808,9.04032-19.14653,14.8558-21.24181,2.80587-1.02287,5.35066-1.21724,7.0136.14668a9.07112,9.07112,0,0,1,2.75057,3.55537,5.267,5.267,0,0,1-.46667,4.28868c-.7772,1.51061-1.50475,3.40967-2.07626,4.82313-.15615.38953-.52.68192-1.14293.29239-1.19618-.73146-2.02672-2.24109-1.24767-4.67733.83249-2.582,2.70112-5.35934,1.5068-6.52791-1.45531-1.46292-9.349,2.48481-14.0234,9.74418-4.57161,7.11172-4.05159,14.32252-1.5068,16.27112,3.32393,2.53348,8.829-.73048,12.77768-7.98888C175.2696,61.82342,175.83916,61.82342,176.10005,62.45774Z"/>
        <path class="a" d="M204.61548,73.27336c-4.0001-.19613-5.6097-3.46009-4.31063-7.4555,1.03818-3.263,4.31063-6.86887,6.49359-9.25557a12.47236,12.47236,0,0,1-6.2841,1.9,8.02939,8.02939,0,0,1-6.44209,3.94685c-1.04,4.14112-4.26118,9.15843-8.10318,10.328a5.86888,5.86888,0,0,1-6.59648-2.09528c-2.23251-2.87443-1.45531-7.11269.779-10.96143,1.97347-3.362,5.24592-6.08972,8.36417-6.33354,1.55625-.1457,2.38679.341,3.47637,1.65719,1.24952,1.50866,2.75438,1.802,2.49534,5.35837,0,.24381-.10484.48763-.10484.779a5.87878,5.87878,0,0,0,4.05159-3.02014c-3.842-1.55908,1.24582-7.99073,3.32394-8.03843,1.81918-.04856.88389,3.50778-.15429,6.08983a14.004,14.004,0,0,0,5.60784-2.3392c.67811-.43907,1.14488-.58478,1.56-.09617.93529,1.02287,2.23251,3.31155.67431,4.96874-2.442,2.583-4.93539,5.89457-5.86873,8.47652-.98678,2.68016-.36387,4.58019,1.29907,4.67733,2.07822.14571,4.7259-3.11815,6.38884-6.6745.20569-.43809.56956-.53621.77905-.09714a4.00716,4.00716,0,0,1-.15614,3.16673C210.48625,71.17808,207.47274,73.41916,204.61548,73.27336Zm-17.2978-16.273a18.30014,18.30014,0,0,0-3.99639,4.58019c-2.23436,3.70205-2.962,8.13653-1.61145,9.25654,1.35056,1.121,4.56966-.63334,7.16789-5.06685a19.79676,19.79676,0,0,0,1.81909-3.99444A6.03843,6.03843,0,0,1,187.31768,57.00039Zm4.10494-.04857c-.20764-1.60765-1.35056-1.21715-1.5582.19622a3.49924,3.49924,0,0,0,1.29916,3.21442A10.42916,10.42916,0,0,0,191.42262,56.95182Z"/>
        <path class="a" d="M225.54969,53.29833c1.71434.24382,3.32393,2.63062,2.02477,5.164-1.08958,2.144-3.63437,5.74887-4.83064,8.28225-1.35057,2.82684-1.04,5.11542.83239,5.01828,2.12776-.09811,4.6745-3.3134,6.64788-6.72307.261-.43907.62486-.43907.88389-.04856.36378.53523.259,1.65523-.46862,3.06861-1.402,2.72775-4.6745,5.21353-7.68791,5.21353-4.41537,0-5.45355-3.02-3.94489-7.25927,1.71239-4.77447,6.284-9.93846,5.34685-10.329-.51621-.19525-3.53157,1.17052-6.85551,4.58019-3.063,3.11815-5.3488,7.79451-7.58316,12.37382-.20764.43809-.52.63422-.98669.19613-1.03818-.97528-1.35056-2.58195-.52-5.01926,1.03809-3.06861,5.04023-9.84132,8.31082-14.371.36378-.53621.779-.48764,1.08958,0a5.44907,5.44907,0,0,1,.15809,4.6268C220.30182,55.73467,223.8372,53.05549,225.54969,53.29833Z"/>
      </g>
      <g>
        <path class="b" d="M210.82031,14.49061a10.46911,10.46911,0,0,0-8.48268,4.33444,10.49162,10.49162,0,1,0,0,12.313,10.487,10.487,0,1,0,8.48268-16.64744Zm-17.5424,5.26063c-.01694.17647-.6422,2.4352-1.35342,5.04633a33.08642,33.08642,0,0,1-1.79367,5.54261,4.25019,4.25019,0,0,1-1.96434.3048c-.32307,0-.42471-.04816-.42471-.19342a1.65578,1.65578,0,0,1,.13679-.49567c1.26879-3.20378,2.08159-6.05522,2.96215-9.08446a7.58921,7.58921,0,0,0-1.8627,1.95527c-.13552.20775-.21889.32046-.28792.32046-.22016,0-.44025-.144-.44025-.28791,0-.09638.54189-1.2818,2.89573-3.013a2.38144,2.38144,0,0,1,1.74418-.52755c.33867,0,.40643.04822.40643.241Zm1.627,10.87746c-.01694,0-.2371-.12832-.35561-.19341a.15584.15584,0,0,1-.06776-.112c0-.06315.03388-.0957.20321-.19147,3.50538-1.84256,4.35072-7.593,4.35072-8.667,0-.92945-.47412-1.569-1.16841-1.569-1.472,0-2.11674,2.89832-2.11674,3.89286,0,.7197.4754,1.29674.93265,1.29674a3.02606,3.02606,0,0,0,.67608-.14326.23023.23023,0,0,1,.18628.224,3.41769,3.41769,0,0,1-1.94613.97694,2.428,2.428,0,0,1-2.18317-2.53164,4.64012,4.64012,0,0,1,4.60343-4.29277c1.84582,0,3.082,1.4414,3.082,3.60368C201.10146,27.88931,196.14108,30.6287,194.90491,30.6287Zm10.0744-1.1528c-.15366.52755-.254.736-.40636.86428a5.14637,5.14637,0,0,1-2.0139.3048c-.27224,0-.39076-.08077-.39076-.25658a4.68905,4.68905,0,0,1,.3048-1.074,16.97944,16.97944,0,0,1,3.40373-5.12644,13.30932,13.30932,0,0,0,1.98-2.78627,6.31887,6.31887,0,0,1-.82847.06316c-.42338,0-2.4216-.224-2.87879-.224a1.38437,1.38437,0,0,0-1.5579,1.20229,1.18289,1.18289,0,0,1-.40517.09571c-.13545,0-.18754-.06443-.18754-.19341a1.53378,1.53378,0,0,1,.11985-.46439l.47286-1.4576a1.76158,1.76158,0,0,1,.47546-.83174,4.96847,4.96847,0,0,1,1.79367-.27292,9.23275,9.23275,0,0,1,1.52409.1446,7.56473,7.56473,0,0,0,1.37163.14266,2.96455,2.96455,0,0,0,1.23618-.2241.51146.51146,0,0,1,.185-.06316.22747.22747,0,0,1,.18627.19148,12.145,12.145,0,0,1-1.20236,2.5968A43.07938,43.07938,0,0,0,204.97931,29.4759Zm7.34942,1.1528c-1.84582,0-3.082-1.44266-3.082-3.60494,0-4.96564,4.96038-7.705,6.19655-7.705.01694,0,.2371.12766.35561.19148a.16374.16374,0,0,1,.06776.11272c0,.06449-.03388.0951-.20321.19341-3.504,1.84062-4.35079,7.59232-4.35079,8.66636,0,.92811.47419,1.56964,1.16715,1.56964,1.4746,0,2.1168-2.90032,2.1168-3.89286,0-.721-.47286-1.29874-.93012-1.29874a3.05509,3.05509,0,0,0-.67861.1446.22988.22988,0,0,1-.185-.224A3.42672,3.42672,0,0,1,214.749,23.805a2.42583,2.42583,0,0,1,2.1845,2.5297A4.64152,4.64152,0,0,1,212.32873,30.6287Z"/>
        <path class="b" d="M101.54006,0a7.37509,7.37509,0,0,1-6.57563,3.96323,7.37534,7.37534,0,0,1,.66567,7.649,7.37779,7.37779,0,0,1,6.5769-3.96256A7.37676,7.37676,0,0,1,101.54006,0Z"/>
      </g>
      <path class="a" d="M179.76027,28.8953c-2.56908,2.45585-4.44406,4.02606-6.47823,4.02606-1.77855,0-2.89569-1.829-2.89569-4.67378,0-.91476.10186-2.23568.20378-3.5566,6.75663-7.41711,9.60136-13.31036,9.60136-19.91506,0-2.388-.66048-3.91184-1.62573-3.91184a1.49417,1.49417,0,0,0-.45758.1014l-6.299,2.33712c-2.34257,4.34219-7.3043,15.94405-7.69547,24.86719-3.0167,3.01442-4.01739,3.93873-5.15638,3.93873-.91522,0-1.52474-.7624-1.52474-2.13381a41.25588,41.25588,0,0,1,1.67668-7.519l2.18425-7.26513h-1.37187l-5.08,2.79378a4.39933,4.39933,0,0,0-4.31848-2.84427c-4.2794,0-11.89937,5.34288-12.8546,13.0274-2.00595,2.18746-3.17772,2.62186-4.062,2.671a4.09454,4.09454,0,0,1-2.64188-1.169c1.72759-4.62282,2.54-8.07755,2.54-11.37987,0-1.37188,0-3.099-4.52142-3.099a13.74242,13.74242,0,0,0-13.59235,12.991c-3.21047,3.31509-5.16094,4.435-7.59085,4.435-3.15043,0-5.18186-2.54043-5.18186-6.45233,0-4.52138,2.33619-8.78848,4.82525-8.78848,1.01709,0,1.67753.96478,1.67753,2.43811,0,.45712-.30565,2.23521-.30565,2.64184,0,.30523.10187.50812.35661.50812a2.18776,2.18776,0,0,0,.76146-.25385l2.89569-1.37188a1.62564,1.62564,0,0,0,1.21906-1.72759c0-2.64184-2.03236-4.41993-4.97808-4.41993-5.66129,0-11.41085,6.28083-12.11954,12.87774-3.58343,3.43475-4.05014,3.83681-5.25462,3.83681-1.11807,0-1.77855-.91471-1.77855-2.28658,0-1.47286.40668-2.69191,2.2871-8.02664l2.28523-6.35038-2.23427.101c-2.2871,4.16658-4.16664,5.84322-7.21515,6.30034A13.937,13.937,0,0,0,86.1584,17.172c0-1.321-.60953-1.9814-1.93045-1.9814-3.81,0-4.87709,4.97943-4.87709,6.24944s.65955,2.13329,2.13334,2.79377a32.78008,32.78008,0,0,1-2.94484,3.71035v-.00135c-3.20045,3.2-4.21661,4.16571-5.38563,4.16571-.91523,0-1.52382-.7624-1.52382-2.13381a41.2556,41.2556,0,0,1,1.67664-7.519l2.1843-7.26513H74.119l-5.08,2.79378a4.39939,4.39939,0,0,0-4.31853-2.84427c-4.28121,0-11.903,5.34516-12.85548,13.03243-2.77742,3.08992-4.59506,4.5455-5.63581,4.5455A1.30052,1.30052,0,0,1,45.112,31.34612a21.46443,21.46443,0,0,1,1.42191-4.87663c1.37187-3.65851,2.13422-6.55374,2.13422-7.92561,0-1.98141-1.11807-3.30233-2.84562-3.30233-1.62573,0-2.54.559-6.60469,2.8957,4.72516-6.24856,6.6556-10.10991,6.6556-13.51368,0-2.03236-.66043-3.65809-1.52381-3.65809a63.87921,63.87921,0,0,0-8.43323,2.9976c-5.33561,8.72574-7.84829,15.88537-8.33867,24.158-3.47881,3.92461-6.2444,5.35927-9.79695,5.35927-6.09614,0-10.41462-4.92852-10.41462-11.83751,0-8.48418,6.0961-18.84836,11.02415-18.84836,2.13427,0,3.50615,1.7276,3.50615,4.47089,0,3.91189-2.69284,7.92519-5.38564,7.92519a2.355,2.355,0,0,1-2.1843-1.47333,3.68314,3.68314,0,0,0-1.06711,2.49c0,2.08239,1.82858,3.55618,4.41951,3.55618,4.928,0,9.14466-5.08046,9.14466-11.07563C26.82358,4.06453,23.4703.915,18.69507.915,10.21089.915,0,10.87254,0,23.57333c0,7.82374,5.5876,13.31083,13.56417,13.31083a18.33567,18.33567,0,0,0,13.92171-5.851c0,.07094-.00363.14011-.00363.21152a48.29963,48.29963,0,0,0,.30565,5.63944l5.53664-1.27A54.55619,54.55619,0,0,1,34.18881,24.64c2.64188-2.94618,5.4875-5.02949,6.85849-5.02949a.94791.94791,0,0,1,.96525,1.01573,12.41333,12.41333,0,0,1-1.219,3.81045c-1.47379,3.60755-2.28617,6.50278-2.28617,8.3832a3.85824,3.85824,0,0,0,3.91185,4.06425c2.54179,0,5.52575-1.86449,9.42851-5.86824.42215,3.3469,2.52088,5.81775,5.15,5.81775,2.89663,0,5.48756-2.03236,8.89086-6.90992-.05091,1.52428-.10187,6.90992,3.709,6.90992,2.54,0,4.67425-2.03236,8.94181-6.04612v-.00182a27.54328,27.54328,0,0,0,5.07906-6.39951,13.30672,13.30672,0,0,0,4.01283-1.321c-2.59092,4.06426-3.759,7.01091-3.759,9.39852,0,2.48948,1.57477,4.42039,3.60713,4.42039,2.32255,0,5.14907-1.75987,9.52312-6.02111a7.095,7.095,0,0,0,7.29154,5.97062c3.68077,0,6.863-1.70575,11.23249-5.95287.60771,3.66577,2.98028,5.95287,6.29355,5.95287,3.04852,0,5.79139-1.779,8.17947-5.38564a5.70493,5.70493,0,0,0,3.55612,1.37188,7.138,7.138,0,0,0,4.09109-1.84265c.41119,3.36693,2.51542,5.85641,5.15456,5.85641,2.89569,0,5.48662-2.03236,8.89086-6.90992-.05091,1.52428-.10187,6.90992,3.70811,6.90992,2.51086,0,4.62781-1.98825,8.79533-5.90871.49853,3.65529,2.67463,5.90871,5.78407,5.90871,2.8657,0,5.83233-1.5934,10.38468-5.69906A7.308,7.308,0,0,1,179.76027,28.8953Zm-6.0716-17.66709c1.42283-4.57275,2.84478-7.46891,3.65809-7.46891.55857,0,.9652.81378.9652,2.03325,0,4.31717-3.04852,10.92186-7.06135,15.29177A94.67568,94.67568,0,0,1,173.68867,11.22821Zm-138.78936,9.398a54.70956,54.70956,0,0,1,2.74376-8.73757c2.03324-4.77518,4.06472-7.92561,5.28377-7.92561.50854,0,.81331.559.81331,1.47333C43.74015,8.07825,41.65683,12.75161,34.89931,20.62626ZM60.40193,32.15943c-1.37188,0-2.33708-1.21994-2.33708-2.9971,0-4.16617,3.2523-11.99033,6.90941-11.99033,1.42283,0,2.28617,1.11761,2.28617,2.94707C67.26043,24.28477,64.06,32.15943,60.40193,32.15943Zm65.83852-8.38274a9.79769,9.79769,0,0,0,2.33624,6.29947c-1.42283,2.2352-2.59093,3.25141-3.81,3.25141-1.87954,0-2.99761-1.9305-2.99761-5.28331,0-4.26757,1.62573-11.27894,6.8585-11.27894a2.79136,2.79136,0,0,1,1.06716.15241C127.25573,19.001,126.24045,20.9824,126.24045,23.77669Zm19.9642,8.38274c-1.37187,0-2.33712-1.21994-2.33712-2.9971,0-4.16617,3.2523-11.99033,6.90945-11.99033,1.42284,0,2.28617,1.11761,2.28617,2.94707C153.06315,24.28477,149.86269,32.15943,146.20465,32.15943Z"/>
    </g>
  </g>
</svg>
