<svg xmlns="http://www.w3.org/2000/svg" viewBox="0 0 238.13833 204.01625">
  <defs>
    <style>
      .a {
        fill: #f7931e;
      }

      .b {
        fill: #fbd43b;
      }

      .c {
        fill: #4d4d4d;
      }

      .d {
        fill: #e50012;
      }

      .e {
        opacity: 0.5;
      }

      .f {
        opacity: 0.8;
      }

      .g {
        fill: #fff;
      }
    </style>
  </defs>
  <g>
    <g>
      <path class="a" d="M119.06739,100.26145l58.778-54.11243A79.80346,79.80346,0,0,0,75.98376,32.97989Z"/>
      <path class="b" d="M119.06916,100.26031l64.20153,100.26031A119.05446,119.05446,0,0,0,219.32948,36.05879a104.63635,104.63635,0,0,0-12.67167-16.43467Z"/>
      <path class="c" d="M119.06739,100.26145,79.88784,169.88881A78.83979,78.83979,0,0,0,162.151,167.543Z"/>
      <path class="d" d="M119.06916,100.26031,54.86764,0A119.05447,119.05447,0,0,0,18.80885,164.46184a110.55556,110.55556,0,0,0,41.8765,39.55441Z"/>
    </g>
    <g class="e">
      <path d="M177.47315,112.18146l-1.31933,5.583H152.05519l1.11132-4.67285q13.79443-13.07081,16.54786-16.17578,2.75389-3.10548,3.16406-4.84571a2.4923,2.4923,0,0,0-.13867-1.99218,1.94018,1.94018,0,0,0-1.70508-.65723,2.85775,2.85775,0,0,0-2.03125.72852,5.91827,5.91827,0,0,0-1.29492,2.89257l-.73536,3.11524h-9.8125l.28223-1.19336a22.37038,22.37038,0,0,1,1.4043-4.33985,9.49441,9.49441,0,0,1,2.60937-3.126,12.65994,12.65994,0,0,1,4.42481-2.32617,20.17893,20.17893,0,0,1,5.90625-.78907q6.5332,0,9.30957,2.418a5.79252,5.79252,0,0,1,1.90234,6.11914,14.88553,14.88553,0,0,1-3.29,5.94922q-2.625,3.13623-14.24609,13.3125Z"/>
    </g>
    <g class="f">
      <path class="g" d="M191.6753,113.743l-.625,3.54687H179.62452l.52637-2.96875q6.54052-8.30127,7.8457-10.27441a9.26087,9.26087,0,0,0,1.5-3.07911,2.07386,2.07386,0,0,0-.06543-1.26562.82686.82686,0,0,0-.80859-.418,1.17842,1.17842,0,0,0-.96289.46191,4.42575,4.42575,0,0,0-.61328,1.8379l-.34961,1.97949h-4.65235l.13379-.75781a17.88218,17.88218,0,0,1,.666-2.75684,5.99051,5.99051,0,0,1,1.23633-1.98535,5.7066,5.7066,0,0,1,2.09863-1.47852,7.32618,7.32618,0,0,1,2.80078-.501q3.09668,0,4.41406,1.53613a4.47953,4.47953,0,0,1,.90137,3.88769,10.7583,10.7583,0,0,1-1.55957,3.77832,99.80177,99.80177,0,0,1-6.75488,8.457Z"/>
      <path class="g" d="M205.05812,105.48517a2.92194,2.92194,0,0,1,1.51757,1.38282q.45411.91845-.15625,4.37792a11.71323,11.71323,0,0,1-1.14355,3.7168,5.138,5.138,0,0,1-2.24805,1.96094,8.85237,8.85237,0,0,1-3.92578.76465,6.94522,6.94522,0,0,1-3.53418-.73242,3.41247,3.41247,0,0,1-1.5918-1.94239,9.61344,9.61344,0,0,1,.126-4.02441,17.71825,17.71825,0,0,1,.86719-3.27832,4.22938,4.22938,0,0,1,2.21-2.22559,2.34888,2.34888,0,0,1-1.18652-1.4707,5.63906,5.63906,0,0,1-.03028-2.5625,6.24,6.24,0,0,1,2.20117-4.02637,7.46773,7.46773,0,0,1,4.69629-1.34179q3.43214,0,4.49121,1.42578a5.15694,5.15694,0,0,1,.59278,4.07031,4.29,4.29,0,0,1-2.88574,3.90527Zm-3.55274,4.1836a3.245,3.245,0,0,0,.03516-1.58692.68866.68866,0,0,0-.70117-.39258.96164.96164,0,0,0-.80567.37891,4.11363,4.11363,0,0,0-.50683,1.60059l-.47559,2.69922a3.62779,3.62779,0,0,0-.05664,1.73535.72159.72159,0,0,0,.72363.38574.91143.91143,0,0,0,.81445-.39258,5.52659,5.52659,0,0,0,.50391-1.7666Zm1.42285-8.65039a3.26939,3.26939,0,0,0,.05957-1.39454c-.084-.22656-.30273-.33984-.65332-.33984a.84829.84829,0,0,0-.75879.36621,3.93868,3.93868,0,0,0-.42089,1.36817l-.2793,1.58105a2.73675,2.73675,0,0,0-.02344,1.29883.60377.60377,0,0,0,.63086.35937.85424.85424,0,0,0,.75684-.35254,4.2588,4.2588,0,0,0,.43652-1.459Z"/>
      <path class="g" d="M217.38233,100.02912l-.63086,3.57422a7.04173,7.04173,0,0,1-.63378,2.10058,3.23145,3.23145,0,0,1-1.34668,1.22071,4.95118,4.95118,0,0,1-2.38672.5205,4.60727,4.60727,0,0,1-2.418-.49414,2.0395,2.0395,0,0,1-.9541-1.18945,4.99652,4.99652,0,0,1,.0498-1.99219l.66016-3.74023a6.925,6.925,0,0,1,.71582-2.28125,3.18608,3.18608,0,0,1,1.42676-1.20117,5.35534,5.35534,0,0,1,2.30566-.46289,4.3582,4.3582,0,0,1,2.28711.50781,2.06227,2.06227,0,0,1,1.00488,1.22754A5.75194,5.75194,0,0,1,217.38233,100.02912Zm6.74805-3.94531L212.18605,117.6883h-1.9795l11.97266-21.60449Zm-9.87891,3.0332a3.49272,3.49272,0,0,0,.09571-1.01563c-.03223-.1289-.17383-.19336-.42188-.19336a.54538.54538,0,0,0-.48633.20606,3.2177,3.2177,0,0,0-.27929,1.00293l-.92481,5.24414a3.5073,3.5073,0,0,0-.10058,1.0791q.05859.18018.44433.18066a.514.514,0,0,0,.4668-.206,3.1957,3.1957,0,0,0,.26563-.96387Zm11.00977,10.96289-.63281,3.58594a7.087,7.087,0,0,1-.63184,2.09472,3.21748,3.21748,0,0,1-1.34863,1.22754,4.94433,4.94433,0,0,1-2.38574.52051,4.56447,4.56447,0,0,1-2.41114-.501,2.05663,2.05663,0,0,1-.958-1.19531,4.92319,4.92319,0,0,1,.04687-1.97949l.66211-3.75293a6.8896,6.8896,0,0,1,.71387-2.26856,3.21951,3.21951,0,0,1,1.42773-1.208,5.30424,5.30424,0,0,1,2.30567-.46875,4.34329,4.34329,0,0,1,2.2998.51367,2.05737,2.05737,0,0,1,.99805,1.23437A5.83694,5.83694,0,0,1,225.26124,110.0799Zm-3.13184-.90039a3.58567,3.58567,0,0,0,.09766-1.02051c-.0332-.13281-.17285-.19922-.42187-.19922a.53038.53038,0,0,0-.48047.20508,3.53881,3.53881,0,0,0-.27442,1.01465l-.9248,5.24512a3.37723,3.37723,0,0,0-.09766,1.0664q.05714.18018.43067.17969a.51247.51247,0,0,0,.47168-.19922,3.38459,3.38459,0,0,0,.26074-.9707Z"/>
    </g>
    <g class="f">
      <path d="M163.53175,133.52716h-1.1543v-.75781h-7.80566v.75781h-1.14942V122.75959h10.10938Zm-1.1543-1.85742v-7.793H160.52v4.40235c0,.14941.06836.22363.20508.22363H162.023v1.11231h-1.39063a1.23724,1.23724,0,0,1-.99414-.30176,1.32067,1.32067,0,0,1-.23535-.835v-4.60157h-1.80762v1.79493a6.83067,6.83067,0,0,1-1.94335,5.06054l-.94336-.71386a5.4502,5.4502,0,0,0,1.291-1.80079,6.37055,6.37055,0,0,0,.44141-2.54589v-1.79493h-1.86914v7.793Z"/>
      <path d="M168.103,127.59064a12.69538,12.69538,0,0,1-.43457,3.71582,7.26405,7.26405,0,0,1-1.22364,2.35059l-.91308-.751a7.321,7.321,0,0,0,1.08105-2.1709,13.59672,13.59672,0,0,0,.31641-3.46191v-4.874H168.103Zm3.76269,5.11035H170.7173V123.0633h1.14843Zm4.0918.88184h-1.167V122.47931h1.167Z"/>
      <path d="M189.439,124.42365H180.1919V128.491a11.725,11.725,0,0,1-1.03027,5.1416l-.91308-.68945a10.87252,10.87252,0,0,0,.82617-4.45215v-5.07324h4.30957a4.2357,4.2357,0,0,0-.4043-.83887l1.168-.27929a7.55086,7.55086,0,0,1,.53418,1.11816H189.439Zm-7.874,3.05469a12.62762,12.62762,0,0,1-.82617,5.68164l-.6709-.583a6.76118,6.76118,0,0,0,.54395-2.02148,28.74214,28.74214,0,0,0,.12695-3.07715Zm3.03027-.66407h-1.54v6.71289h-1.043v-6.71289H180.521v-.99414h1.49121v-1.08007h1.043v1.08007h1.54Zm-.02539,4.999h-.43457a.67643.67643,0,0,1-.44336-.15528.47232.47232,0,0,1-.18945-.3789v-3.80078h.83789v3.291q0,.10547.15528.10547a.13738.13738,0,0,0,.07421-.01855Zm1.38477-4.335a27.79289,27.79289,0,0,1-.16406,3.38476,8.64187,8.64187,0,0,1-.63672,2.35938l-.67676-.5586a7.82932,7.82932,0,0,0,.48145-1.90039q.10839-.93163.1455-3.28515Zm3.30371-.66407h-1.82519v6.71289h-1.01856v-6.71289h-1.32324v-.99414h1.32324v-1.08007h1.01856v1.08007h1.82519Zm.18066,5.84961h-.86328a.69342.69342,0,0,1-.53711-.20507.71989.71989,0,0,1-.18945-.50977v-4.458h.85059v4.042c0,.1084.06445.16211.19238.16211h.54687Z"/>
      <path d="M195.83448,128.13654h-1.86914v1.29785h1.65235v1.05567h-1.72657a4.82959,4.82959,0,0,1-1.79492,3.12988l-.8623-.73926a4.22017,4.22017,0,0,0,1.52734-2.39062H191.2339v-1.05567h1.62695v-1.29785h-1.80762v-1.05566h1.01856a12.60656,12.60656,0,0,0-.6211-1.71387l.78907-.4961H191.147v-1.05566h1.78809a6.6489,6.6489,0,0,0-.48438-1.16211l1.17383-.3291a9.93036,9.93036,0,0,1,.50879,1.49121h1.58984v1.05566h-1.05566l.751.52149a13.3459,13.3459,0,0,1-.60157,1.68848h1.01758Zm-1.38476-3.26563H192.438a15.53749,15.53749,0,0,1,.665,2.21h.6084A13.52421,13.52421,0,0,0,194.44972,124.87091Zm7.89941,7.0293-.59668,1.01758a8.40134,8.40134,0,0,1-2.22949-2.66992v3.30371h-1.08008V130.285a11.778,11.778,0,0,1-2.54,2.76367l-.73828-.86914a11.10254,11.10254,0,0,0,2.76953-2.90039h-1.67676v-3.68848h2.18555v-.91308h-2.31641v-1.05567h2.31641V122.4422H199.523v1.17969h2.46582v1.05567H199.523v.91308h2.19824v3.68848h-1.61426A7.61767,7.61767,0,0,0,202.34913,131.90021Zm-3.90625-3.6084v-1.707h-1.10547v1.707Zm2.21094,0v-1.707H199.523v1.707Z"/>
      <path d="M213.83058,133.19806h-1.167v-.90039h-6.65039v.90039h-1.18652V123.16291h9.00391Zm-1.167-2.00586v-6.90527h-6.65039v6.90527Z"/>
      <path d="M220.23878,132.0672H219.146v-.66406h-1.168v.95606h-1.10547v-9.041h3.36621Zm-1.09277-1.76953v-5.89941h-1.168v5.89941Zm8.58789,1.57715-.77637.80078a12.71339,12.71339,0,0,1-2.3291-3.49609v4.37207h-1.12988V129.1922a13.95522,13.95522,0,0,1-2.24122,3.4961l-.80175-.81348a11.88519,11.88519,0,0,0,2.57129-4.06738h-2.40332v-1.05567h2.875v-1.68261h-2.59571V124.0008h2.59571v-1.5459h1.12988v1.5459h2.52734v1.06836h-2.52734v1.68261h2.83789v1.05567h-2.4336A13.91822,13.91822,0,0,0,227.7339,131.87482Z"/>
    </g>
    <g class="e">
      <path d="M118.33839,38.93634a3.51453,3.51453,0,0,1,2.207,1.40528q.60351.97559-.24707,4.57422a10.59,10.59,0,0,1-1.79492,4.1455,7.13926,7.13926,0,0,1-3.34668,2.24219,16.10668,16.10668,0,0,1-5.31641.76856,12.64433,12.64433,0,0,1-5.37793-.8916,3.631,3.631,0,0,1-2.15234-2.18653,10.761,10.761,0,0,1,.4209-4.48926l.418-1.7705h7.48828l-.85938,3.63769a4.39527,4.39527,0,0,0-.2041,1.84766q.1377.394.93555.39453a1.5201,1.5201,0,0,0,1.2666-.498,8.23079,8.23079,0,0,0,.89258-2.60156l.36621-1.54883a3.27651,3.27651,0,0,0,.05469-1.88183,1.336,1.336,0,0,0-.96387-.78223,14.94009,14.94009,0,0,0-2.89746-.21387l.76855-3.251a20.8922,20.8922,0,0,0,3.33594-.15235,1.82691,1.82691,0,0,0,1.06543-.66406,4.265,4.265,0,0,0,.65625-1.60449l.29492-1.2461a2.34015,2.34015,0,0,0,.042-1.54883,1.01178,1.01178,0,0,0-.92285-.374,1.54108,1.54108,0,0,0-1.1582.39453,3.89708,3.89708,0,0,0-.68555,1.68164L112.19,36.16291h-7.48828l.45117-1.90918a6.05542,6.05542,0,0,1,2.98926-4.33789,14.85793,14.85793,0,0,1,6.51367-1.127q5.35693,0,6.89649,1.5625a4.36784,4.36784,0,0,1,.88379,4.33985,5.38956,5.38956,0,0,1-1.32813,2.71777A8.13327,8.13327,0,0,1,118.33839,38.93634Z"/>
    </g>
    <path class="g" d="M175.47315,110.18146l-1.31933,5.583H150.05519l1.11132-4.67285q13.79443-13.07081,16.54786-16.17578,2.75389-3.10548,3.16406-4.84571a2.4923,2.4923,0,0,0-.13867-1.99218,1.94018,1.94018,0,0,0-1.70508-.65723,2.85775,2.85775,0,0,0-2.03125.72852,5.91827,5.91827,0,0,0-1.29492,2.89257l-.73536,3.11524h-9.8125l.28223-1.19336a22.37038,22.37038,0,0,1,1.4043-4.33985,9.49441,9.49441,0,0,1,2.60937-3.126,12.65994,12.65994,0,0,1,4.42481-2.32617,20.17893,20.17893,0,0,1,5.90625-.78907q6.5332,0,9.30957,2.418a5.79252,5.79252,0,0,1,1.90234,6.11914,14.88553,14.88553,0,0,1-3.29,5.94922q-2.625,3.13623-14.24609,13.3125Z"/>
    <path class="g" d="M116.97022,37.5672a3.51544,3.51544,0,0,1,2.207,1.40625q.60351.97413-.24707,4.57422a10.59,10.59,0,0,1-1.79493,4.14551,7.1536,7.1536,0,0,1-3.34668,2.24219,16.13235,16.13235,0,0,1-5.3164.76855,12.642,12.642,0,0,1-5.37793-.89258,3.6298,3.6298,0,0,1-2.15235-2.18554,10.76556,10.76556,0,0,1,.4209-4.49024l.418-1.7705h7.48828l-.85937,3.63867a4.394,4.394,0,0,0-.2041,1.84765q.13916.39258.93554.39356a1.52253,1.52253,0,0,0,1.2666-.49707,8.24085,8.24085,0,0,0,.89258-2.60156l.36621-1.54883a3.27843,3.27843,0,0,0,.05567-1.88184,1.3373,1.3373,0,0,0-.96485-.78223,14.77362,14.77362,0,0,0-2.89648-.21386l.76758-3.252a20.94212,20.94212,0,0,0,3.33594-.15136,1.82294,1.82294,0,0,0,1.06445-.665,4.234,4.234,0,0,0,.6582-1.60352l.29395-1.24609a2.34977,2.34977,0,0,0,.042-1.54981,1.01145,1.01145,0,0,0-.92285-.373,1.53723,1.53723,0,0,0-1.15821.39453,3.89149,3.89149,0,0,0-.68554,1.68066l-.43457,1.83985h-7.48828l.45117-1.90918a6.05345,6.05345,0,0,1,2.98926-4.33692,14.85627,14.85627,0,0,1,6.51367-1.12793q5.35694,0,6.89648,1.5625a4.36962,4.36962,0,0,1,.88379,4.34082,5.37805,5.37805,0,0,1-1.32812,2.7168A8.09762,8.09762,0,0,1,116.97022,37.5672Z"/>
    <g class="f">
      <path class="g" d="M130.08058,48.87873l-.42774,2.42578h-7.81347l.36035-2.03027q4.47216-5.67774,5.36621-7.02637a6.34615,6.34615,0,0,0,1.02539-2.10547,1.41792,1.41792,0,0,0-.0459-.86524.56307.56307,0,0,0-.55176-.28515.80384.80384,0,0,0-.65918.3164,3.0149,3.0149,0,0,0-.41992,1.25684l-.23828,1.35254h-3.18164l.0918-.51758a12.14812,12.14812,0,0,1,.45507-1.88574,4.11423,4.11423,0,0,1,.84571-1.35742,3.903,3.903,0,0,1,1.43554-1.01074,4.98488,4.98488,0,0,1,1.915-.34278,3.78818,3.78818,0,0,1,3.01758,1.05078,3.06259,3.06259,0,0,1,.61719,2.65821,7.36233,7.36233,0,0,1-1.06738,2.584,68.43186,68.43186,0,0,1-4.61817,5.78223Z"/>
      <path class="g" d="M139.11573,48.87873l-.42773,2.42578h-7.81348l.36035-2.03027q4.47217-5.67774,5.36621-7.02637a6.34594,6.34594,0,0,0,1.02539-2.10547,1.41786,1.41786,0,0,0-.04589-.86524.56308.56308,0,0,0-.55176-.28515.80381.80381,0,0,0-.65918.3164,3.0149,3.0149,0,0,0-.41992,1.25684l-.23828,1.35254H132.5298l.09179-.51758a12.148,12.148,0,0,1,.45508-1.88574,4.11419,4.11419,0,0,1,.8457-1.35742,3.90312,3.90312,0,0,1,1.43555-1.01074,4.98484,4.98484,0,0,1,1.915-.34278,3.78819,3.78819,0,0,1,3.01758,1.05078,3.06256,3.06256,0,0,1,.61718,2.65821,7.36214,7.36214,0,0,1-1.06738,2.584,68.4287,68.4287,0,0,1-4.61816,5.78223Z"/>
      <path class="g" d="M147.06983,39.50177l-.43066,2.44336a4.83269,4.83269,0,0,1-.43359,1.43653,2.21312,2.21312,0,0,1-.9209.835,3.386,3.386,0,0,1-1.63086.35547,3.14685,3.14685,0,0,1-1.6543-.33789,1.39162,1.39162,0,0,1-.65234-.8125,3.40572,3.40572,0,0,1,.03418-1.36329l.45019-2.55664a4.74416,4.74416,0,0,1,.49024-1.56054,2.17719,2.17719,0,0,1,.97558-.82129,3.65442,3.65442,0,0,1,1.57715-.31641,2.96762,2.96762,0,0,1,1.56445.34766,1.40519,1.40519,0,0,1,.68653.83789A3.92949,3.92949,0,0,1,147.06983,39.50177Zm4.61524-2.69824L143.5171,51.577h-1.35352l8.1875-14.77344Zm-6.75488,2.07324a2.42147,2.42147,0,0,0,.06543-.69433c-.02344-.08692-.11915-.13184-.28907-.13184a.37361.37361,0,0,0-.332.14063,2.2177,2.2177,0,0,0-.1914.68554l-.63184,3.58692a2.41025,2.41025,0,0,0-.06934.7373c.02735.083.12793.123.30371.123a.34854.34854,0,0,0,.31934-.14063,2.19827,2.19827,0,0,0,.18164-.6582Zm7.52832,7.49707-.43262,2.45215a4.86963,4.86963,0,0,1-.43262,1.4336,2.20489,2.20489,0,0,1-.9209.83789,3.3786,3.3786,0,0,1-1.63183.35644,3.105,3.105,0,0,1-1.64942-.34277,1.41074,1.41074,0,0,1-.65527-.81738,3.36858,3.36858,0,0,1,.03223-1.35352l.45214-2.56641a4.71757,4.71757,0,0,1,.48926-1.55175,2.20032,2.20032,0,0,1,.97657-.8252,3.62271,3.62271,0,0,1,1.57714-.32031,2.97533,2.97533,0,0,1,1.57227.35058,1.41189,1.41189,0,0,1,.68164.84473A3.98931,3.98931,0,0,1,152.45851,46.37384Zm-2.14063-.61425a2.48621,2.48621,0,0,0,.06543-.69922c-.02246-.09082-.11816-.13672-.28809-.13672a.3588.3588,0,0,0-.32812.1416,2.333,2.333,0,0,0-.1875.69434l-.63281,3.585a2.36081,2.36081,0,0,0-.06739.72949c.02735.082.125.124.29493.124a.354.354,0,0,0,.32324-.13672,2.394,2.394,0,0,0,.17871-.66406Z"/>
    </g>
    <g class="f">
      <path d="M109.26612,60.79279l-.46484.6543a9.63592,9.63592,0,0,1-3.00684-3.76465V62.449h-.792V57.69123a10.32374,10.32374,0,0,1-3.01074,3.72168l-.5127-.62793a9.59916,9.59916,0,0,0,3.05957-3.71778h-2.999v-.77441h3.46289V54.75763h.792v1.53516h3.41993v.77441H106.272A9.20122,9.20122,0,0,0,109.26612,60.79279Z"/>
      <path d="M117.61183,55.411a10.23215,10.23215,0,0,1-2.43946.583q-1.28173.14941-3.21777.22656V58.0008a7.70625,7.70625,0,0,1-1.15234,4.50488l-.58985-.64551a6.61645,6.61645,0,0,0,.94239-3.84179V55.4715a20.15392,20.15392,0,0,0,6.0957-.77441Zm-1.29493,6.8711-.80468.2832q-.12452-.73095-.1377-.77441-1.58643.44823-2.37012.63281l-.30957-.68457a14.06822,14.06822,0,0,0,.916-5.21777h.80859a16.5821,16.5821,0,0,1-.76562,4.94335q.95508-.21972,1.51074-.40527l-.46973-1.2168.72266-.28808A14.48655,14.48655,0,0,1,116.3169,62.28205Zm1.78125-.23731-.61132.5293q-1.54834-1.83691-1.53125-6.17773h.792Q116.73878,60.31623,118.09815,62.04474Z"/>
      <path d="M126.82667,59.92365h-3.25195v2.543h-.8086v-2.543h-3.62207v-.76074h3.62207V57.23517h-2.04394a10.26517,10.26517,0,0,1-1.01465,1.48828l-.624-.48535a9.39414,9.39414,0,0,0,1.62988-3.11914l.749.25781q-.21093.63282-.38769,1.09278h1.6914V54.77033h.8086v1.69922h2.98144v.76562h-2.98144v1.92774h3.25195Z"/>
      <path d="M131.42628,56.98127c-.07227.01172-.21289.02636-.42188.043a10.78122,10.78122,0,0,1-.68847,3.12792q.38232.32667.67969.63282l-.52051.73926q-.21973-.26222-.58106-.624a8.18058,8.18058,0,0,1-1.46289,1.5791l-.58886-.63672a5.76791,5.76791,0,0,0,1.4414-1.50585,11.03831,11.03831,0,0,0-1.17871-.959q.33105-1.377.48535-2.15918c-.2373.01074-.44433.0166-.61914.0166l-.00879-.791q.668,0,.76563-.00879.14208-.77929.25879-1.72071l.76562.15918q-.0996.8379-.22851,1.52247a5.73415,5.73415,0,0,0,.71484-.05176,5.77509,5.77509,0,0,0,.02539-.64942h.792a3.90633,3.90633,0,0,1-.00879.57227,1.57844,1.57844,0,0,0,.37891-.04688Zm-1.26074.1289q-.25488.03516-.77442.07324-.16845.94629-.3955,1.91016a6.66476,6.66476,0,0,1,.64941.49512A8.95759,8.95759,0,0,0,130.16554,57.11017Zm5.2959.56446q-.0044.89355-.10547,2.32031a6.48034,6.48034,0,0,1-.26465,1.75976,1.26151,1.26151,0,0,1-.44727.51661,1.94978,1.94978,0,0,1-.99023.18261c-.20606,0-.42578-.00781-.6582-.02148l-.24024-.77442,1.00195.02149a.82239.82239,0,0,0,.3877-.07129.43594.43594,0,0,0,.19336-.22559,6.48787,6.48787,0,0,0,.168-1.06054q.10254-.90528.14551-1.86914h-.9629q.2754-2.31885.30958-2.71485h-1.16993a19.08026,19.08026,0,0,1-.42578,4.26758,7.80724,7.80724,0,0,1-1.30371,2.5l-.64941-.46973a8.30745,8.30745,0,0,0,1.1914-2.33789,16.12014,16.12014,0,0,0,.374-3.96H131.314v-.76562h3.55762q-.06885.96827-.27539,2.70215Z"/>
      <path d="M143.7339,62.2215h-.8086v-.624h-4.60742v.624h-.82226V55.26935h6.23828Zm-.8086-1.38965V56.04767h-4.60742v4.78418Z"/>
      <path d="M148.17237,61.4383h-.75683v-.46h-.8086v.66211h-.76562V55.37677h2.33105Zm-.75683-1.22559V56.1258h-.8086v4.08691Zm5.94922,1.09278-.53711.55468a8.80388,8.80388,0,0,1-1.61328-2.42187v3.02832h-.78321V59.44611a9.66263,9.66263,0,0,1-1.55273,2.42285l-.55567-.56347a8.22346,8.22346,0,0,0,1.78125-2.81836h-1.665v-.73145h1.99219v-1.166h-1.79785v-.73925h1.79785V54.77912h.78321v1.07129h1.751v.73925h-1.751v1.166h1.96582v.73145h-1.68653A9.64846,9.64846,0,0,0,153.36476,61.30549Z"/>
    </g>
    <g class="e">
      <path d="M39.93605,67.491l-8.89844,37.66211H18.44581l4.77051-20.19238a27.61887,27.61887,0,0,0,.96191-5.25781q-.07178-.8833-1.22656-1.33692a19.85053,19.85053,0,0,0-5.51953-.45312H16.18507l1.03711-4.39063q9.479-1.46776,15.2959-6.03125Z"/>
    </g>
    <g class="f">
      <path class="g" d="M53.18019,91.04767a2.88946,2.88946,0,0,1,1.75976,1.501q.48047,1.043-.19629,4.88574A13.52339,13.52339,0,0,1,53.313,101.8631a5.95955,5.95955,0,0,1-2.669,2.39551,9.89267,9.89267,0,0,1-4.23828.82129,7.8685,7.8685,0,0,1-4.28808-.95313,3.61672,3.61672,0,0,1-1.71582-2.335,15.30355,15.30355,0,0,1,.33593-4.79687l.333-1.89063h5.9707L46.35694,98.991a6.21347,6.21347,0,0,0-.16406,1.97266q.11133.42041.74609.4209a1.08423,1.08423,0,0,0,1.00977-.53223,10.81938,10.81938,0,0,0,.71191-2.77832l.292-1.65527a4.66584,4.66584,0,0,0,.04394-2.00977,1.205,1.205,0,0,0-.76855-.835,8.9962,8.9962,0,0,0-2.30957-.22852l.6123-3.47265a12.39969,12.39969,0,0,0,2.6582-.16309,1.46745,1.46745,0,0,0,.84961-.709,5.4921,5.4921,0,0,0,.52442-1.71387l.23437-1.33008a3.31791,3.31791,0,0,0,.03321-1.65527.733.733,0,0,0-.73536-.39942,1.06448,1.06448,0,0,0-.92382.4209,5.00138,5.00138,0,0,0-.54493,1.7959l-.34667,1.96582H42.30909l.35938-2.04q.605-3.42772,2.38379-4.63281a9.26526,9.26526,0,0,1,5.19238-1.20508q4.27,0,5.499,1.66992a5.88549,5.88549,0,0,1,.70313,4.63672,6.65664,6.65664,0,0,1-1.05664,2.90235A6.30225,6.30225,0,0,1,53.18019,91.04767Z"/>
      <path class="g" d="M69.229,91.04767a2.88946,2.88946,0,0,1,1.75977,1.501q.48046,1.043-.19629,4.88574a13.52339,13.52339,0,0,1-1.43066,4.42871,5.95955,5.95955,0,0,1-2.66895,2.39551,9.8927,9.8927,0,0,1-4.23828.82129,7.86856,7.86856,0,0,1-4.28809-.95313,3.61679,3.61679,0,0,1-1.71582-2.335,15.30364,15.30364,0,0,1,.33594-4.79687l.333-1.89063h5.9707L62.40577,98.991a6.21316,6.21316,0,0,0-.16406,1.97266c.07422.28027.32226.4209.74609.4209a1.08424,1.08424,0,0,0,1.00977-.53223,10.81938,10.81938,0,0,0,.71191-2.77832l.292-1.65527a4.66572,4.66572,0,0,0,.04395-2.00977,1.205,1.205,0,0,0-.76855-.835,8.9962,8.9962,0,0,0-2.30957-.22852l.6123-3.47265a12.39969,12.39969,0,0,0,2.6582-.16309,1.46748,1.46748,0,0,0,.84961-.709,5.4921,5.4921,0,0,0,.52442-1.71387l.23437-1.33008a3.31786,3.31786,0,0,0,.0332-1.65527.733.733,0,0,0-.73535-.39942,1.0645,1.0645,0,0,0-.92383.4209,5.00163,5.00163,0,0,0-.54492,1.7959l-.34668,1.96582h-5.9707l.35938-2.04q.605-3.42772,2.38378-4.63281a9.26532,9.26532,0,0,1,5.19239-1.20508q4.27,0,5.499,1.66992a5.88553,5.88553,0,0,1,.70313,4.63672A6.65675,6.65675,0,0,1,71.439,89.41584,6.30206,6.30206,0,0,1,69.229,91.04767Z"/>
      <path class="g" d="M83.44581,84.75959,82.7212,88.868a8.11114,8.11114,0,0,1-.72851,2.416,3.713,3.713,0,0,1-1.54786,1.40332,5.69127,5.69127,0,0,1-2.74316.59863,5.29814,5.29814,0,0,1-2.78223-.56836,2.34489,2.34489,0,0,1-1.09668-1.36718,5.71894,5.71894,0,0,1,.05762-2.29l.75781-4.30078a7.94583,7.94583,0,0,1,.8252-2.62305A3.651,3.651,0,0,1,77.103,80.7547a6.14237,6.14237,0,0,1,2.65039-.53222,5.00355,5.00355,0,0,1,2.63086.584,2.37106,2.37106,0,0,1,1.15527,1.41113A6.59516,6.59516,0,0,1,83.44581,84.75959Zm7.75977-4.53711L77.4712,105.06427H75.19581l13.7666-24.84179Zm-11.35743,3.4873a4.08874,4.08874,0,0,0,.11036-1.167q-.05861-.22119-.48633-.22168a.62477.62477,0,0,0-.5586.23633,3.662,3.662,0,0,0-.32128,1.15234l-1.06348,6.03028a3.99621,3.99621,0,0,0-.11524,1.24023c.044.13867.21485.207.50977.207a.58639.58639,0,0,0,.53613-.23535,3.65792,3.65792,0,0,0,.30664-1.10938ZM92.50733,96.31623l-.72753,4.123a8.113,8.113,0,0,1-.72852,2.40821,3.71152,3.71152,0,0,1-1.54883,1.41211,5.707,5.707,0,0,1-2.74414.59765,5.23769,5.23769,0,0,1-2.77246-.57617,2.3676,2.3676,0,0,1-1.10156-1.374,5.65173,5.65173,0,0,1,.05273-2.27637l.76172-4.31445a7.9067,7.9067,0,0,1,.82227-2.60938,3.701,3.701,0,0,1,1.64062-1.38867,6.10008,6.10008,0,0,1,2.65234-.53906,4.992,4.992,0,0,1,2.64454.59082A2.37023,2.37023,0,0,1,92.605,93.78888,6.72037,6.72037,0,0,1,92.50733,96.31623Zm-3.60156-1.03516a4.10484,4.10484,0,0,0,.11133-1.1748q-.05567-.22852-.48438-.22852a.60621.60621,0,0,0-.55175.23633,3.9723,3.9723,0,0,0-.31739,1.167l-1.0625,6.0293a3.97827,3.97827,0,0,0-.11328,1.22754q.06738.20654.4961.20605a.5886.5886,0,0,0,.543-.22851,3.93143,3.93143,0,0,0,.30078-1.11524Z"/>
    </g>
    <g class="f">
      <path d="M16.55714,114.326h-1.5293v2.05567a11.85141,11.85141,0,0,0,1.17285-.5459l.19532,1.17187a10.8992,10.8992,0,0,1-1.36817.63379v4.19043q0,1.125-1.5625,1.125-.3706,0-.89648-.02051l-.39746-1.21289q.3706.02052.74121.02051a2.67807,2.67807,0,0,0,.79492-.06055.25936.25936,0,0,0,.1084-.249v-3.28125q-.52589.21534-1.64453.62012l-.28907-1.17285q.92286-.30323,1.9336-.72071V114.326H12.0171v-1.18554h1.79883V110.951h1.21191v2.18946h1.5293Zm7.14844-3.15918q-.01319,1.40772-.11036,2.71485a9.239,9.239,0,0,1-.22265,1.6914,1.35268,1.35268,0,0,1-.374.60645,1.43721,1.43721,0,0,1-.64649.3125,7.19457,7.19457,0,0,1-1.55664.04394l-.47168-1.22558q.58008.02637.92969.02637a2.37194,2.37194,0,0,0,.82226-.08106c.10352-.05371.17481-.22949.21582-.52832q.06006-.44825.13477-2.40234H20.24269a5.69354,5.69354,0,0,1-2.71485,4.60839l-.94336-.86914a4.64469,4.64469,0,0,0,2.40528-3.73925H16.84718v-1.15821Zm-.33008,11.79688H22.14991v-.72754H18.30909v.72754H17.06983v-5.59863H23.3755Zm-1.22559-1.90039v-2.54H18.30909v2.54Z"/>
      <path d="M30.11964,122.93634H28.96046v-4.7832H27.73487a15.49922,15.49922,0,0,1-.93652,4.97852l-1.01074-.68653a14.49518,14.49518,0,0,0,.81543-5.35644v-6.043h1.13183v3.18652H28.772V110.951h1.15918v4.39942H27.73487V116.994h2.38477Zm7.74121-2.10839H35.91358v2.10839h-1.1582V120.828H30.59132v-1.07813h4.16406v-1.93359h-.86914a5.08813,5.08813,0,0,1-1.752,1.64355l-.91016-.70019a5.77256,5.77256,0,0,0,1.24024-.94336h-1.543V112.076H32.687a7.0905,7.0905,0,0,0,.53809-1.29394l1.26074.22265a7.68494,7.68494,0,0,1-.44531,1.07129h3.18652v5.74024H35.91358v1.93359h1.94727Zm-4.37207-6.40039v-1.28711H32.0669v1.28711Zm-.05469,1.09765H32.0669v1.21973h1.11817A4.76712,4.76712,0,0,0,33.43409,115.52521Zm2.64844,1.21973v-1.21973H34.60694a6.08945,6.08945,0,0,1-.19531,1.21973Zm0-2.31738v-1.28711h-1.4082v1.28711Z"/>
      <path d="M42.54347,120.52424a13.49983,13.49983,0,0,1-2.06153,2.51367l-1.01757-.77539a13.72614,13.72614,0,0,0,1.91992-2.22266Zm9.10156-.74708H39.57179v-1.05761H45.022v-.93067H40.46827v-1.05761H45.022v-.86914H40.731V111.1258h9.78222v4.73633h-4.292v.86914h4.62207v1.05761H46.2212v.93067H51.645Zm-6.623-4.97949v-2.60742H41.96339v2.60742Zm-.5791-.707-.99023.51172a10.491,10.491,0,0,0-1.13184-1.68457l1.01758-.50488A12.80335,12.80335,0,0,1,44.44288,114.09064Zm.66016,8.72461-1.22559.23633a16.13064,16.13064,0,0,0-.60644-2.62109l1.23925-.18165A17.3402,17.3402,0,0,1,45.103,122.81525Zm4.21093-8.01758v-2.60742H46.2212v2.60742Zm-.82812,7.917-1.24023.2627a15.803,15.803,0,0,0-1.02442-2.47949l1.26074-.19531A14.92237,14.92237,0,0,1,48.48585,122.71466Zm.35645-9.80957a12.4251,12.4251,0,0,1-1.085,1.77149l-1.02343-.56543a10.49768,10.49768,0,0,0,1.09082-1.6582Zm2.749,9.70118-1.17188.47168a15.07708,15.07708,0,0,0-1.36816-2.40528l1.19922-.4375A15.6574,15.6574,0,0,1,51.59132,122.60627Z"/>
      <path d="M54.79249,114.42756l-.91016.35644a9.08668,9.08668,0,0,0-.67285-2.56641l.92285-.38378A10.09671,10.09671,0,0,1,54.79249,114.42756Zm-.041,2.99121a15.34451,15.34451,0,0,1-.59277,4.02929l-.86914-.62011a13.89172,13.89172,0,0,0,.56641-3.64454Zm2.96485-.9502H56.22706v6.52149h-1.1582v-6.52149H53.38429v-1.19922h1.68457v-4.30469h1.1582v4.30469h1.48926Zm.08789,3.0459-.85547.37695a10.285,10.285,0,0,0-.47168-2.47265l.88184-.2627A9.18771,9.18771,0,0,1,57.80421,119.51447Zm.06738-7.418a12.22038,12.22038,0,0,1-.44531,2.70117l-.92285-.34375a12.45537,12.45537,0,0,0,.43164-2.63379Zm7.50488,4.57422h-.63281v1.8125H62.64112v.88281h2.11621v3.59766H63.59815v-.56641H61.04444v.56641H59.87257V119.366h1.61035v-.88281H59.771v-.96973h1.71191v-.84277H59.37355v1.45508a6.91138,6.91138,0,0,1-1.68458,4.97949l-.78125-.81543a5.68845,5.68845,0,0,0,1.02735-1.85937,8.04514,8.04514,0,0,0,.293-2.35157v-6.11035h2.95117a4.26607,4.26607,0,0,0-.42481-.88281l1.30762-.249a6.75146,6.75146,0,0,1,.44434,1.13183h2.83008V113.033H62.64112v.82813h2.10254v1.81934h.63281Zm-3.89355-.99023v-.80176H59.731v-1.01758h1.752V113.033H59.37355v2.64747Zm2.11523,5.71289v-1.03711H61.04444v1.03711Zm.04-5.71289v-.80176h-.99707v.80176Zm0,1.833v-.84277h-.99707v.84277Z"/>
      <path d="M78.08351,122.61994H76.8169v-.97656H69.60108v.97656H68.314v-10.8877h9.76954Zm-1.26661-2.17578V112.952H69.60108v7.49219Z"/>
      <path d="M85.03565,121.39338H83.85011v-.72071h-1.2666v1.03809H81.38429v-9.80957h3.65136Zm-1.18554-1.91993v-6.40039h-1.2666v6.40039Zm9.31738,1.71192-.8418.86914a13.76319,13.76319,0,0,1-2.52636-3.79395v4.74317H88.57276v-4.72949a15.11245,15.11245,0,0,1-2.43164,3.793l-.86914-.88183a12.90617,12.90617,0,0,0,2.78907-4.41309H85.45362v-1.14551h3.11914V113.8006h-2.8164v-1.1582h2.8164v-1.67774h1.22657v1.67774h2.74218v1.1582H89.79933v1.82617h3.0791v1.14551h-2.6416A15.1107,15.1107,0,0,0,93.16749,121.18537Z"/>
    </g>
    <path class="g" d="M37.63624,65.19123l-8.89746,37.66211H16.147L20.91749,82.661a27.57812,27.57812,0,0,0,.96094-5.25781q-.07178-.8833-1.22656-1.33691a19.84165,19.84165,0,0,0-5.51856-.45313H13.88624l1.03711-4.39062q9.47754-1.46778,15.29492-6.03125Z"/>
  </g>
</svg>
