<svg xmlns="http://www.w3.org/2000/svg" viewBox="0 0 180.36435 36.88416">
  <defs>
    <style>
      .a {
        fill: #e50012;
      }
    </style>
  </defs>
  <g>
    <path class="a" d="M101.54006,0a7.37509,7.37509,0,0,1-6.57563,3.96323,7.37534,7.37534,0,0,1,.66567,7.649,7.37779,7.37779,0,0,1,6.5769-3.96256A7.37676,7.37676,0,0,1,101.54006,0Z"/>
    <path d="M179.76027,28.8953c-2.56908,2.45585-4.44406,4.02606-6.47823,4.02606-1.77855,0-2.89569-1.829-2.89569-4.67378,0-.91476.10186-2.23568.20378-3.5566,6.75663-7.41711,9.60136-13.31036,9.60136-19.91506,0-2.388-.66048-3.91184-1.62573-3.91184a1.49417,1.49417,0,0,0-.45758.1014l-6.299,2.33712c-2.34257,4.34219-7.3043,15.94405-7.69547,24.86719-3.0167,3.01442-4.01739,3.93873-5.15638,3.93873-.91522,0-1.52474-.7624-1.52474-2.13381a41.25588,41.25588,0,0,1,1.67668-7.519l2.18425-7.26513h-1.37187l-5.08,2.79378a4.39933,4.39933,0,0,0-4.31848-2.84427c-4.2794,0-11.89937,5.34288-12.8546,13.0274-2.00595,2.18746-3.17772,2.62186-4.062,2.671a4.09454,4.09454,0,0,1-2.64188-1.169c1.72759-4.62282,2.54-8.07755,2.54-11.37987,0-1.37188,0-3.099-4.52142-3.099a13.74242,13.74242,0,0,0-13.59235,12.991c-3.21047,3.31509-5.16094,4.435-7.59085,4.435-3.15043,0-5.18186-2.54043-5.18186-6.45233,0-4.52138,2.33619-8.78848,4.82525-8.78848,1.01709,0,1.67753.96478,1.67753,2.43811,0,.45712-.30565,2.23521-.30565,2.64184,0,.30523.10187.50812.35661.50812a2.18776,2.18776,0,0,0,.76146-.25385l2.89569-1.37188a1.62564,1.62564,0,0,0,1.21906-1.72759c0-2.64184-2.03236-4.41993-4.97808-4.41993-5.66129,0-11.41085,6.28083-12.11954,12.87774-3.58343,3.43475-4.05014,3.83681-5.25462,3.83681-1.11807,0-1.77855-.91471-1.77855-2.28658,0-1.47286.40668-2.69191,2.2871-8.02664l2.28523-6.35038-2.23427.101c-2.2871,4.16658-4.16664,5.84322-7.21515,6.30034A13.937,13.937,0,0,0,86.1584,17.172c0-1.321-.60953-1.9814-1.93045-1.9814-3.81,0-4.87709,4.97943-4.87709,6.24944s.65955,2.13329,2.13334,2.79377a32.78008,32.78008,0,0,1-2.94484,3.71035v-.00135c-3.20045,3.2-4.21661,4.16571-5.38563,4.16571-.91523,0-1.52382-.7624-1.52382-2.13381a41.2556,41.2556,0,0,1,1.67664-7.519l2.1843-7.26513H74.119l-5.08,2.79378a4.39939,4.39939,0,0,0-4.31853-2.84427c-4.28121,0-11.903,5.34516-12.85548,13.03243-2.77742,3.08992-4.59506,4.5455-5.63581,4.5455A1.30052,1.30052,0,0,1,45.112,31.34612a21.46443,21.46443,0,0,1,1.42191-4.87663c1.37187-3.65851,2.13422-6.55374,2.13422-7.92561,0-1.98141-1.11807-3.30233-2.84562-3.30233-1.62573,0-2.54.559-6.60469,2.8957,4.72516-6.24856,6.6556-10.10991,6.6556-13.51368,0-2.03236-.66043-3.65809-1.52381-3.65809a63.87921,63.87921,0,0,0-8.43323,2.9976c-5.33561,8.72574-7.84829,15.88537-8.33867,24.158-3.47881,3.92461-6.2444,5.35927-9.79695,5.35927-6.09614,0-10.41462-4.92852-10.41462-11.83751,0-8.48418,6.0961-18.84836,11.02415-18.84836,2.13427,0,3.50615,1.7276,3.50615,4.47089,0,3.91189-2.69284,7.92519-5.38564,7.92519a2.355,2.355,0,0,1-2.1843-1.47333,3.68314,3.68314,0,0,0-1.06711,2.49c0,2.08239,1.82858,3.55618,4.41951,3.55618,4.928,0,9.14466-5.08046,9.14466-11.07563C26.82358,4.06453,23.4703.915,18.69507.915,10.21089.915,0,10.87254,0,23.57333c0,7.82374,5.5876,13.31083,13.56417,13.31083a18.33567,18.33567,0,0,0,13.92171-5.851c0,.07094-.00363.14011-.00363.21152a48.29963,48.29963,0,0,0,.30565,5.63944l5.53664-1.27A54.55619,54.55619,0,0,1,34.18881,24.64c2.64188-2.94618,5.4875-5.02949,6.85849-5.02949a.94791.94791,0,0,1,.96525,1.01573,12.41333,12.41333,0,0,1-1.219,3.81045c-1.47379,3.60755-2.28617,6.50278-2.28617,8.3832a3.85824,3.85824,0,0,0,3.91185,4.06425c2.54179,0,5.52575-1.86449,9.42851-5.86824.42215,3.3469,2.52088,5.81775,5.15,5.81775,2.89663,0,5.48756-2.03236,8.89086-6.90992-.05091,1.52428-.10187,6.90992,3.709,6.90992,2.54,0,4.67425-2.03236,8.94181-6.04612v-.00182a27.54328,27.54328,0,0,0,5.07906-6.39951,13.30672,13.30672,0,0,0,4.01283-1.321c-2.59092,4.06426-3.759,7.01091-3.759,9.39852,0,2.48948,1.57477,4.42039,3.60713,4.42039,2.32255,0,5.14907-1.75987,9.52312-6.02111a7.095,7.095,0,0,0,7.29154,5.97062c3.68077,0,6.863-1.70575,11.23249-5.95287.60771,3.66577,2.98028,5.95287,6.29355,5.95287,3.04852,0,5.79139-1.779,8.17947-5.38564a5.70493,5.70493,0,0,0,3.55612,1.37188,7.138,7.138,0,0,0,4.09109-1.84265c.41119,3.36693,2.51542,5.85641,5.15456,5.85641,2.89569,0,5.48662-2.03236,8.89086-6.90992-.05091,1.52428-.10187,6.90992,3.70811,6.90992,2.51086,0,4.62781-1.98825,8.79533-5.90871.49853,3.65529,2.67463,5.90871,5.78407,5.90871,2.8657,0,5.83233-1.5934,10.38468-5.69906A7.308,7.308,0,0,1,179.76027,28.8953Zm-6.0716-17.66709c1.42283-4.57275,2.84478-7.46891,3.65809-7.46891.55857,0,.9652.81378.9652,2.03325,0,4.31717-3.04852,10.92186-7.06135,15.29177A94.67568,94.67568,0,0,1,173.68867,11.22821Zm-138.78936,9.398a54.70956,54.70956,0,0,1,2.74376-8.73757c2.03324-4.77518,4.06472-7.92561,5.28377-7.92561.50854,0,.81331.559.81331,1.47333C43.74015,8.07825,41.65683,12.75161,34.89931,20.62626ZM60.40193,32.15943c-1.37188,0-2.33708-1.21994-2.33708-2.9971,0-4.16617,3.2523-11.99033,6.90941-11.99033,1.42283,0,2.28617,1.11761,2.28617,2.94707C67.26043,24.28477,64.06,32.15943,60.40193,32.15943Zm65.83852-8.38274a9.79769,9.79769,0,0,0,2.33624,6.29947c-1.42283,2.2352-2.59093,3.25141-3.81,3.25141-1.87954,0-2.99761-1.9305-2.99761-5.28331,0-4.26757,1.62573-11.27894,6.8585-11.27894a2.79136,2.79136,0,0,1,1.06716.15241C127.25573,19.001,126.24045,20.9824,126.24045,23.77669Zm19.9642,8.38274c-1.37187,0-2.33712-1.21994-2.33712-2.9971,0-4.16617,3.2523-11.99033,6.90945-11.99033,1.42284,0,2.28617,1.11761,2.28617,2.94707C153.06315,24.28477,149.86269,32.15943,146.20465,32.15943Z"/>
  </g>
</svg>
