<svg xmlns="http://www.w3.org/2000/svg" viewBox="0 0 446.4492 174.53169">
  <defs>
    <style>
      .a {
        fill: #fff;
      }

      .b {
        fill: #e50012;
      }
    </style>
  </defs>
  <g>
    <g>
      <g>
        <path class="a" d="M109.4141,32.91748a10.728,10.728,0,0,1,.9531-1.9034,22.86419,22.86419,0,0,1,2.1426-3.6191.55883.55883,0,0,1,.4785-.5225.756.756,0,0,1,.332.8565,24.89694,24.89694,0,0,1-.1914,3.0937,15.24811,15.24811,0,0,1-.2383,2.7119.6898.6898,0,0,1-.2383.7168.55739.55739,0,0,1-.6191,0,11.68852,11.68852,0,0,0-2-.9072A.73653.73653,0,0,1,109.4141,32.91748Zm1.8574-7.711c0-.0635.0176-.0957.0508-.0957a2.1512,2.1512,0,0,1,1.666-.3808,6.19421,6.19421,0,0,1,.8066-.0489l2.0469-.0947a3.09243,3.09243,0,0,0,.5254-.0488,3.54868,3.54868,0,0,1,.5215-.0469l1.4297-.1436a12.46731,12.46731,0,0,1,.1894-2.1396,12.04773,12.04773,0,0,0,.2383-1.8574.46214.46214,0,0,0-.0938-.6192,4.23329,4.23329,0,0,1-.4785-.0449h-.4765c-.0938,0-.2852-.0195-.5703-.0508h-1.7149c-.2519.0313-.4258.0508-.5215.0508-.3808-.3496-.3183-.6523.1914-.9092.6328,0,1.2422-.0127,1.8321-.0468a17.87643,17.87643,0,0,1,1.832,0l.0957-.6641a3.90388,3.90388,0,0,1,0-1.7148.84012.84012,0,0,0-1.0488-.0459,3.36664,3.36664,0,0,1-1.3789.1884c-.1895.0313-.3887.0557-.5957.0703-.2051.0176-.4219.0245-.6426.0245l-.5235.0468a1.68669,1.68669,0,0,1-1.0468.2383,1.93553,1.93553,0,0,1-.5235-.0459.65489.65489,0,0,1-.4765-.8066q-.09675-5.6235.0976-11.2373a.77944.77944,0,0,0,.2852-.4278,9.07513,9.07513,0,0,1,2.6152-.5732,7.81105,7.81105,0,0,1,1.5235-.1416,14.3473,14.3473,0,0,0,1.5253-.1914,2.00053,2.00053,0,0,1,.4747-.0469,2.92516,2.92516,0,0,0,.4765-.0459l.4746-.0967a2.04673,2.04673,0,0,1,.4766-.0468,9.97053,9.97053,0,0,0,3.1894-.4288,3.502,3.502,0,0,1,.5254-.0966l.4278-.0459a10.50008,10.50008,0,0,0,2-.0957,7.83042,7.83042,0,0,1,1.0234-.1192c.3301-.0166.5938-.0244.7832-.0244.6367-.0625,1.2539-.1103,1.8555-.1416a1.79124,1.79124,0,0,1,.5742-.0967,2.81593,2.81593,0,0,0,.666-.0957,1.58805,1.58805,0,0,1,.5703-.164c.1895-.0186.3965-.0245.6192-.0245h.334a.63477.63477,0,0,0,.7617-.1416l1.666.1416a2.66764,2.66764,0,0,1,.1894,1.2383,4.67258,4.67258,0,0,0-.0957.9034,13.22193,13.22193,0,0,0-.4746,2.2851q-.3837,1.4751-.7148,3.0449a4.38357,4.38357,0,0,1-.2383,1.1465,9.20809,9.20809,0,0,1-.5723,2.2334,1.47589,1.47589,0,0,0-.0918,1.0479l-.8593.4287a1.41251,1.41251,0,0,0-.7129.0967.92051.92051,0,0,1-.5703.0957c-.8594.1572-1.7325.3017-2.6192.4267l-3.7617.7627a.71135.71135,0,0,0-.5723.1426,12.98392,12.98392,0,0,0-.1875,2.1904.85829.85829,0,0,0,.1875.8067l3.7149-.0948a1.40108,1.40108,0,0,1,.9512.1416.45442.45442,0,0,1,.0957.7657,1.26022,1.26022,0,0,1-.9512.1884,11.19822,11.19822,0,0,1-2.332.1416,1.80974,1.80974,0,0,0-1.2852,0c-.4141.0332-.5566.336-.4316.9053q-.1377,1.2861-.1895,2.5733c.0645.4101.3496.5068.8574.2841a1.77,1.77,0,0,1,.5703-.0976l1.334-.0918a6.59383,6.59383,0,0,0,.8086-.0498,3.22165,3.22165,0,0,0,.9531-.1426,7.62658,7.62658,0,0,1,.8575-.0459,3.45312,3.45312,0,0,0,1.6191-.1924,4.7604,4.7604,0,0,1,.6152-.0478q.85845-.04695,1.67-.1416a.424.424,0,0,1,.4257.1894c.2832.4121.2051.7149-.2382.9033a3.47185,3.47185,0,0,1-.5704.0498,34.85165,34.85165,0,0,0-3.998.5225,3.08159,3.08159,0,0,0-1.9043.2393,3.4306,3.4306,0,0,1-.5723.0468,1.36843,1.36843,0,0,0-.7148.0957,4.12236,4.12236,0,0,1-.5234.0713c-.1895.0176-.3555.0254-.4981.0254a1.12587,1.12587,0,0,1-.3555-.0498,2.20462,2.20462,0,0,0-1.4765.334,16.91814,16.91814,0,0,0-4,.1924.48978.48978,0,0,1-.4278.3799,2.214,2.214,0,0,1-.4277-.334l-1.3809.1885c-.2851.0312-.4472.0507-.4765.0507l-1.9531.0948a2.01717,2.01717,0,0,1-.4746.0468l-1,.0957a.86278.86278,0,0,0-.6192.1416C111.5273,26.27,111.2402,25.96818,111.2715,25.20648Zm1.0957,5.0459a1.05665,1.05665,0,0,0-.1914.4268C112.3359,30.64988,112.4004,30.50438,112.3672,30.25238Zm.6211-17.7588.1406.9063a3.3512,3.3512,0,0,0,0-1.3799A.5028.5028,0,0,0,112.9883,12.49358Zm.1855-2.5683a.67381.67381,0,0,0-.0449.334Zm.1465,6.0957c0,.0312.0606.0918.1895.1865C113.541,16.05218,113.4785,15.98678,113.3203,16.021Zm.9024-.7168a.12486.12486,0,0,0-.1407.1435C114.4297,15.479,114.4766,15.43208,114.2227,15.30418Zm.4785-5.2364.0937,1.1426a1.70654,1.70654,0,0,0,.1914-.8574C115.0176,10.13128,114.9219,10.03458,114.7012,10.06778Zm.8535.7149c.0976,0,.1289-.207.0976-.6182A1.02455,1.02455,0,0,0,115.5547,10.78268Zm.4297,4.8535a18.99288,18.99288,0,0,0,2.7617-.2861,3.01,3.01,0,0,0,.332-1.9502q.1905-1.38135.334-2.7598c-.0957,0-.1426.1231-.1426.3809l-1.1425,1.8545q-.9054.3822-1.045-.8555a17.54209,17.54209,0,0,0-.9062-1.5215.26766.26766,0,0,0-.1426.3301Q116.08015,13.25723,115.9844,15.63618Zm.1426-7.1875q.7617.3354,1.4765.7149.85545.5229,1.8086,1.0009.09675-1.8588.3809-3.7617a6.72461,6.72461,0,0,1,.1211-1.2637c.0781-.4267-.0118-.7041-.2637-.833a3.45185,3.45185,0,0,0-.9531.0498c-.0918,0-.293.0078-.5938.0205a1.04956,1.04956,0,0,0-.5488.1211,1.63891,1.63891,0,0,0-1.2832.2403,5.5151,5.5151,0,0,1-.1914,1.7617q0,.56835-.0469,1.0693A1.95746,1.95746,0,0,0,116.127,8.44868Zm2.6191,24.1846a7.3548,7.3548,0,0,0-.1914-2.6201,3.67793,3.67793,0,0,1,.1914-2.1875,6.05084,6.05084,0,0,1,1.1445-.1924.4527.4527,0,0,1,.6172.2373,15.48114,15.48114,0,0,1,1.2852,3.0967.80465.80465,0,0,1-.0469.9502,10.2814,10.2814,0,0,1-2.7617,1.0459C118.7949,32.96338,118.7148,32.853,118.7461,32.63328Zm.1895-10.0459a1.99047,1.99047,0,0,0,.0976-.8574A1.284,1.284,0,0,0,118.9356,22.58738Zm.3339.9502a.27157.27157,0,0,0,.1426.2383C119.4766,23.45848,119.4258,23.38028,119.2695,23.53758Zm.8086-14.2324c-.0644.0644-.0937.1113-.0937.1425C119.9531,9.67138,119.9844,9.62248,120.0781,9.30518Zm0-.5694a.66571.66571,0,0,0-.0468.2842C120.1563,9.08538,120.1738,8.98968,120.0781,8.73578Zm.0957,9.8057c0,.1885.0625.2226.1914.0937C120.3027,18.38028,120.2363,18.35108,120.1738,18.54148Zm.0489-.3799c.1582.0615.205-.0332.1425-.2881C120.2363,17.71628,120.1895,17.812,120.2227,18.16158Zm.7617,4.1416.0469.4727a1.78956,1.78956,0,0,0,.1425-.9493C121.0137,21.73,120.9512,21.88818,120.9844,22.30318Zm.0918-13.9971a.71637.71637,0,0,0,.1445.4297C121.3809,8.44868,121.334,8.30608,121.0762,8.30608Zm.2871-3.1884q.2373.2373.1445-.3799C121.3809,4.80028,121.334,4.92618,121.3633,5.11768Zm.668,18.8505a.523.523,0,0,0,.4765-.1425.72659.72659,0,0,0-.2871-.2383C122.0313,23.68308,121.9668,23.80808,122.0313,23.96818Zm.2851-16.5664c-.0957,0-.1426.0313-.1426.0957L122.127,9.352A4.0823,4.0823,0,0,0,122.3164,7.40178Zm.2383,5.3799V12.686C122.6191,12.52588,122.6191,12.55908,122.5547,12.78168Zm.2383-1.3818a1.16071,1.16071,0,0,0-.1934.9062A1.23745,1.23745,0,0,0,122.793,11.39988Zm.4765-7.4248.0938.6172c0,.1591.0312.1123.0937-.1416C123.5547,4.10108,123.4902,3.94278,123.2695,3.97508Zm.0489,5.3301c.0605.1269.125-.0635.1894-.5694A.62374.62374,0,0,0,123.3184,9.30518Zm.0449,2.6191a.22525.22525,0,0,0-.0235.1894C123.3555,12.20848,123.3633,12.146,123.3633,11.92428Zm0-6.4756.1445-.4726C123.3477,5.00728,123.3008,5.16448,123.3633,5.44868Zm1.0937,8.9522a.94575.94575,0,0,0,.7149,0,30.20362,30.20362,0,0,0,3.3808-.668,3.83115,3.83115,0,0,1,.2852-1.4268q.2373-1.61865.5723-3.2861a.76933.76933,0,0,0-.67.4775c-.0918-.0966-.2187-.0654-.3789.0918a17.53856,17.53856,0,0,1-2.8554,1.5733c-.1582.2529-.3985.3027-.7149.1426A20.121,20.121,0,0,0,124.457,14.40088Zm1.2852,17.9931.0508-.2861a3.1286,3.1286,0,0,1-.5254-1.4746,8.7136,8.7136,0,0,1-.4766-1.7617,1.55855,1.55855,0,0,1,1.334-.9541.82189.82189,0,0,1,.6172.0498,11.672,11.672,0,0,1,1.4766,1.9023,6.24944,6.24944,0,0,1,.7148,1.6201,5.94853,5.94853,0,0,1-2.5234,1.7608Q125.7421,33.20353,125.7422,32.394Zm-.8555-21.8506c.0313.2198.0801.2705.1426.1436C125,10.40088,124.9492,10.353,124.8867,10.54338Zm.1426-1.0459a3.47844,3.47844,0,0,1-.0488.667q1.0956-1.47645,2.0488-3.0009a.73354.73354,0,0,1,.6191-.4756,6.9348,6.9348,0,0,1,1.7618,1.5693l.8086-4.8545c-.0977-.2842-.3809-.334-.8575-.1426a2.64847,2.64847,0,0,1-.8574.1426l-.1894-.0459c-.0313,0-.1914.0137-.4766.0459-.2852.0313-.4453.0469-.4766.0469l-.8535.1914a1.8191,1.8191,0,0,0-.9082.1416l-.2383,3.0478A11.02239,11.02239,0,0,0,125.0293,9.49748Zm2.5703-.0498a.27045.27045,0,0,0-.1894.0498C127.3457,9.74948,127.4102,9.73288,127.5996,9.44768Zm2.2852-1.0449a.08518.08518,0,0,0,.0957-.0967C129.9141,8.11668,129.8848,8.14988,129.8848,8.40278Zm1.5254-5.1426c.0605-.0312.0918-.1289.0918-.2841C131.4102,3.00728,131.3789,3.10008,131.4102,3.26018Zm.3808,2.0948a2.92729,2.92729,0,0,0-.2383,1.1445l.2383-.6699C131.9492,5.60978,131.9492,5.44868,131.791,5.355Zm0,22.8007a.45029.45029,0,0,1,.1406-.4267,3.42245,3.42245,0,0,1,.7618.0967q1.5702,1.37685,2.9511,2.8535a1.3845,1.3845,0,0,1,.5723.7148,13.76426,13.76426,0,0,1-2.1426,2.3799.94771.94771,0,0,1-.7597-.2393q-.5274-1.998-1.1446-3.997A9.4431,9.4431,0,0,1,131.791,28.15568Zm.3301-16.4707c-.125,0-.1895.0791-.1895.2393C132.1211,11.92428,132.1856,11.84418,132.1211,11.685Zm.6211-8.6162.1894-.1426C132.8691,2.80118,132.8047,2.84708,132.7422,3.06878Zm.3809,3.7617a1.91338,1.91338,0,0,0-.2383.9512Zm.2363-1.1904a.86107.86107,0,0,0-.0957.5713C133.4551,5.98968,133.4883,5.80028,133.3594,5.64008Z"/>
        <path class="a" d="M140.334,30.53758a.60174.60174,0,0,0,.1894-.6211,3.5026,3.5026,0,0,1,.2852-1.8067,7.51914,7.51914,0,0,1,.4297-1.8564,1.19451,1.19451,0,0,1,.1426-.6201,49.545,49.545,0,0,1,1.1425-6.8067,4.58123,4.58123,0,0,0-.9531.9512,38.23726,38.23726,0,0,1-3.2363,2.7139,1.06614,1.06614,0,0,1-.2852.2842.921.921,0,0,1-.5722.3828.5959.5959,0,0,1-.5235.2871,4.63387,4.63387,0,0,1,1.0489-2.1416A80.641,80.641,0,0,0,142,13.20848h-.0957a7.31719,7.31719,0,0,0-1.1895.0957,8.673,8.673,0,0,1-1.1679.1172,3.19274,3.19274,0,0,1-1.166-.1641c-.2246-.1914-.1739-.3652.1425-.5254a1.921,1.921,0,0,1,.5723-.1416,6.89957,6.89957,0,0,0,1.6191-.0967,8.34029,8.34029,0,0,1,.8555-.0459,7.93542,7.93542,0,0,0,1.9512-.2392l.7168-3.711c.1582-1.1103.2656-2.2373.3301-3.3798a1.40088,1.40088,0,0,1,.1933-.7149c.9492-.2539,1.9356-.4912,2.9492-.7148q.33405-.09375.334,0a3.00345,3.00345,0,0,0,.4766-.0469,3.21835,3.21835,0,0,1,.5254-.0459c.0937,0,.1387.0459.1387.1416q-.33405,4.09425-1,8.1406c.3183.0322.4296-.1455.3359-.5254q1.33-2.2866,2.7617-4.5683a3.23769,3.23769,0,0,1,.8066-1.1436,7.48181,7.48181,0,0,1,1.9532,1.9053.39039.39039,0,0,0,.332.3799.7636.7636,0,0,1,.1914.6181l-4.7129,3.0957h.9043c.125,0,.2852-.0078.4746-.0244a2.77623,2.77623,0,0,0,.4785-.0713l1.3321-.0966c.5058.1601.5566.415.1445.7617a.67141.67141,0,0,1-.8594.0508c-.0625,0-.2851.0224-.664.0703-.3809.0468-.6055.0713-.668.0713l-.9043.0468a7.06837,7.06837,0,0,1-.7617.0459l-1.1895.1465-1.1914,6.3291a2.52854,2.52854,0,0,1,.9043.3809,33.762,33.762,0,0,1,3.4297,2.9023.74466.74466,0,0,1,.2832.4307q-.9522,1.2393-1.8555,2.5703-.2841.5229-.6191.5225c-.2227,0-.4141-.1573-.5703-.4756a10.01907,10.01907,0,0,0-2-2.5244,12.576,12.576,0,0,0-.5723,2.6699q-.37785,2.2836-.8086,4.5215l-.7597.332a3.77823,3.77823,0,0,1-.6192.0478.85923.85923,0,0,0-.6211.0479c-.6035.2236-1.2031.4434-1.8105.665a.81325.81325,0,0,1-.5703.1426C140.4121,31.14108,140.2676,30.91748,140.334,30.53758Zm-.4317-24.375a4.45722,4.45722,0,0,1,.0723-.6641.46085.46085,0,0,1,.502-.4307h.1425a16.46221,16.46221,0,0,0,2.8067,2.0958c.1914.0966.2207.2695.0957.5234a10.29455,10.29455,0,0,1-2.8067,2.2851,1.66938,1.66938,0,0,1-.5722-1.7148A9.31434,9.31434,0,0,1,139.9023,6.16258Zm1.9063,19.7099.0508.1885a10.47065,10.47065,0,0,0,.1855-1.998Zm1.2852,1.8077a.70887.70887,0,0,0-.1915.5244c-.0957.2851-.0625.414.0958.3799A2.15285,2.15285,0,0,0,143.0938,27.68018Zm1.1445.2373-.336.4775C144.125,28.36278,144.2383,28.20458,144.2383,27.91748Zm-.1914-6.6133.2363-1.3809a1.86451,1.86451,0,0,1,.0977-.8594.55478.55478,0,0,0-.0977-.4765A8.58417,8.58417,0,0,0,144.0469,21.30418Zm.1406-6.7617c.1289.0966.1934-.0166.1934-.334C144.2188,14.11368,144.1563,14.22608,144.1875,14.54248Zm.2383-1.4766-.1426.9053A1.17176,1.17176,0,0,0,144.4258,13.06588Zm.9551-2.7598-.1914,1.333A2.40312,2.40312,0,0,0,145.3809,10.30608Zm-.1914,9.6641c.0957.0625.1582-.0801.1914-.4277C145.3164,19.44678,145.252,19.58838,145.1895,19.97018Zm.3339-11.2344.0957.0918a3.99041,3.99041,0,0,0,.0918-1.5215A5.33981,5.33981,0,0,1,145.5234,8.73578Zm.0957.3311c-.0644,0-.0957.081-.0957.2383C145.584,9.46528,145.6191,9.38428,145.6191,9.06688Zm.3301,5.4756a.12661.12661,0,0,0,.1426.1435,6.71075,6.71075,0,0,0,.334-1.8105c-.1602.0332-.2383.1601-.2383.3818A6.46066,6.46066,0,0,0,145.9492,14.54248Zm.334,5.8525-.0957.3359C146.1875,20.82568,146.2188,20.71628,146.2832,20.395Zm.0469-10.042c.0644.126.1094.0479.1426-.2383C146.3789,10.11468,146.3301,10.19378,146.3301,10.353Zm.1426,9.0938a.38786.38786,0,0,0-.0938.2841C146.4727,19.79338,146.5059,19.69868,146.4727,19.44678Zm.2871-11.0928a11.18541,11.18541,0,0,0-.2871,1.4736c.0644.0342.1269-.1074.1914-.4267A2.00591,2.00591,0,0,0,146.7598,8.354Zm-.1914,10.5195a.53156.53156,0,0,0-.0469.2373C146.5859,19.17528,146.5996,19.09708,146.5684,18.87348Zm0-12.2822a.26664.26664,0,0,0,.0488-.1885C146.5859,6.24168,146.5684,6.30708,146.5684,6.59128Zm.1425,14.4736c.2227-.0332.2383-.1435.0489-.334Zm.0489-4.7138c.1269,0,.1582-.1573.0918-.4776Zm.33-11.045c-.0292-.0302-.0449,0-.0449.0957C147.1406,5.62548,147.1543,5.59318,147.0898,5.30608Zm1,2.8106c-.123,0-.1855.0801-.1855.2373C148.0273,8.48088,148.0898,8.40278,148.0898,8.11668Zm.4317-3.7139a1.65308,1.65308,0,0,0-.0977.999,1.02821,1.02821,0,0,0,.1446-.3808A.768.768,0,0,0,148.5215,4.40278Zm.0937,25.3721a.64321.64321,0,0,1,.3829-.6182l2.3789-4.1406,1.4296-3.001a8.12564,8.12564,0,0,0,1.045-2.6172,81.06022,81.06022,0,0,0,4.3789-11.5195c.6679,0,1.3261-.0176,1.9765-.0488.6504-.0293,1.3086-.0479,1.9746-.0479a3.35236,3.35236,0,0,1,1.2364.1436,26.38021,26.38021,0,0,1,2.7168.0459c.3144,0,.664-.0137,1.0449-.0459l1.9043.0459a8.128,8.128,0,0,1,1.7598.0966h3.4316l.4258.1895c.1914.3184.1269.5254-.1895.6211a3.90762,3.90762,0,0,0-1.1894.0928c-.1602,0-.3321-.0069-.5254-.0225a3.25925,3.25925,0,0,1-.4766-.0703.74878.74878,0,0,1-.1875-.0508,18.21887,18.21887,0,0,1-3.5234-.1416c-.3809-.0322-.6055-.0449-.666-.0449h-.7129c-.3203.0312-.5098.0449-.5723.0449l-.5234-.0449a5.795,5.795,0,0,1-1.4766-.0977,4.37521,4.37521,0,0,0-.666.0479,4.16253,4.16253,0,0,1-.666.0498,2.83764,2.83764,0,0,1-.5-.0498,3.3167,3.3167,0,0,0-.5489-.0479h-.1425l-.5254,1.7627q-1.28325,3.28125-2.5215,6.6631-1.09275,2.19-2.332,4.1885a16.55164,16.55164,0,0,1-1.9512,2.8105,19.67978,19.67978,0,0,1-5.4746,5.9483.72777.72777,0,0,1-.4531.1435C148.7031,30.06,148.6152,29.96728,148.6152,29.77488Zm.9532-8.1397c0,.0635.0449.0948.1425.0948C149.9629,21.69868,149.918,21.66648,149.5684,21.63518Zm1.1406,6.2823-.4258.5244.3301-.1905C150.8047,28.06,150.8379,27.95158,150.709,27.91748Zm4.1914-6.7598a2.05154,2.05154,0,0,0-.8106,1.0947A2.82549,2.82549,0,0,0,154.9004,21.15768Zm.998-2.3809-.7617,1.4766a1.821,1.821,0,0,0-.1894.8115l1-2.3799Zm.2383-3.1865a4.12888,4.12888,0,0,1-.4277.8809,1.86835,1.86835,0,0,0-.2852,1.0215,4.87428,4.87428,0,0,0,.6641-1.4268A.86654.86654,0,0,0,156.1367,15.59028Zm.8574,1.0947a4.0373,4.0373,0,0,0-.9062,1.6182c.1269.0947.207-.0176.2383-.333A4.50076,4.50076,0,0,0,156.9941,16.685Zm1.7149,17.042a.72055.72055,0,0,1,.0957-.7148q.7119-2.75835,1.2363-5.5713a3.32034,3.32034,0,0,0,.2871-1.0928,5.00785,5.00785,0,0,1,3.3789-.7607l.1426-3.6192h-.5234c-.2871.0323-.4453.0469-.4766.0469l-.2851-.0928a6.43046,6.43046,0,0,1-1.6192.1885.48841.48841,0,0,0-.4746-.0459.43.43,0,0,1-.3809-.1426c.0313-.3183.2657-.5078.7129-.5712a3.88176,3.88176,0,0,0,.4746-.0469,3.74051,3.74051,0,0,1,.4766-.0498l.3809.0498a10.48547,10.48547,0,0,0,1.7148-.0498l.0469-3q-1.8105.0981-3.6192.1435l-.1406-.2851c0-.2217.0625-.3633.1914-.4278a5.31638,5.31638,0,0,1,1.711-.2871c.5722,0,1.1601-.0136,1.7617-.0468a1.16833,1.16833,0,0,0,.2383-1.1885c-.1289-.0967-.1426-.1612-.0469-.1914a2.92241,2.92241,0,0,1,0-.7627l.0469-.7608a.91211.91211,0,0,0-.8086,0,3.02989,3.02989,0,0,1-.4766.0459,2.02987,2.02987,0,0,0-.4766.0489,1.49055,1.49055,0,0,0-.7617-.0948c-.2519-.4453-.1093-.7754.4297-1.0009a4.783,4.783,0,0,1,1.0938-.0957,1.906,1.906,0,0,0,1-.1885l.0488-.5225a3.18882,3.18882,0,0,1,.1426-1.8115.56888.56888,0,0,1,.2383-.7608,1.94227,1.94227,0,0,1,.6191-.0957c0,.0323.0293.0479.0918.0479a3.59744,3.59744,0,0,1,1.668.1914,1.99053,1.99053,0,0,1,1.7617.5225,6.779,6.779,0,0,0,.0937,1.9521,5.65283,5.65283,0,0,0,1.4766-.0957,6.11077,6.11077,0,0,1,.9531-.0469,6.01428,6.01428,0,0,1,.9492.0469.73831.73831,0,0,1,.5235-.1426l.8125.1426a2.05117,2.05117,0,0,1,.3808,1.334,7.35765,7.35765,0,0,0-.2382,1.3799,2.00325,2.00325,0,0,1-.0977.9033c-.0293.2861.0644.4131.2871.3809a5.92255,5.92255,0,0,1,1.334-.1426h.4746c.2871.2549.2539.542-.0957.8574l-2.1406.0947a3.10356,3.10356,0,0,1-.1914,1.3321,5.71,5.71,0,0,1-.4278,2.4277c-.2871,0-.5254.0098-.7129.0254a4.17367,4.17367,0,0,0-.6679.1211,22.04649,22.04649,0,0,1-2.5235.2344c-.2519.0654-.3632.288-.332.6689a9.36813,9.36813,0,0,0,0,2.665c.0293.2549.1895.334.4727.2383.0351,0,.1933-.0146.4785-.0469a3.5741,3.5741,0,0,1,.4765-.0478l.2383-.0469a14.49083,14.49083,0,0,0,2-.0498c.8574.0625,1.2207.6358,1.0938,1.7129l-.9512,4.4277a7.00154,7.00154,0,0,0-.1426,1.8106,2.64734,2.64734,0,0,0-.3594.4512.59336.59336,0,0,1-.5449.2597l-.3847-.0469a.75315.75315,0,0,1-.4727-.1416.90448.90448,0,0,1-.7617.1416,6.10655,6.10655,0,0,1-.7149.0469,2.79565,2.79565,0,0,0-.666.0967.51088.51088,0,0,0-.4746.0488,25.84371,25.84371,0,0,0-5.4277.3799.39137.39137,0,0,0-.4297.0498,10.08952,10.08952,0,0,0-1.0449.0459c-.3809.0303-.7305.0488-1.0489.0488A1.56745,1.56745,0,0,1,158.709,33.727Zm1.2363-20.6611-.5234,1.0977c-.0332.2519.0625.1582.2851-.2872A1.11982,1.11982,0,0,0,159.9453,13.06588Zm-.0488-4.3799c-.0938,0-.1445.0645-.1445.1924C159.9141,8.81388,159.9609,8.75048,159.8965,8.686Zm.5742,3.2383a3.74278,3.74278,0,0,0-.4297,1.0459Zm.4746-3.3809c-.0937,0-.1426.0323-.1426.0977C160.832,8.86078,160.8809,8.82758,160.9453,8.54338Zm.3809,19.708-.2871,1.4766a2.24271,2.24271,0,0,0,.2382-.668A1.0412,1.0412,0,0,0,161.3262,28.25138Zm.2832-1.2832.1894.0928C161.8652,26.80808,161.7988,26.77678,161.6094,26.96818Zm.5722,6.3291.7129.0469c.543,0,1.0645-.0156,1.5743-.0469l1.9492-.1884c.2539-.0655.3496-.2559.289-.5733a21.09675,21.09675,0,0,0,1.0469-3.9511,6.57405,6.57405,0,0,0,.3301-1.712c.1914-.4775.207-.7461.0488-.8115a2.16866,2.16866,0,0,0-.666.0957,5.20934,5.20934,0,0,1-2,.1914,3.10041,3.10041,0,0,0-1.0488.1895.84507.84507,0,0,0-.6172.1914q-.75885,2.61765-1.332,5.2832a1.366,1.366,0,0,0-.1661.7158A.95956.95956,0,0,1,162.1816,33.29728Zm.3829-32.2285a.8581.8581,0,0,1,.3808-.997,1.30664,1.30664,0,0,1,.8555,0c.3808.1572.8105.3173,1.2871.4736a1.46734,1.46734,0,0,0,.9492.7158,4.92,4.92,0,0,1,1.3809.9033q.38085.95505-.711,1.5723a23.50326,23.50326,0,0,1-2.4765,2.1406c-.1914-.0605-.2559-.2051-.1914-.4287q-.62115-1.32855-1.1446-2.7607A3.03778,3.03778,0,0,1,162.5645,1.06878Zm2.6152,14.043c.1601.0332.207-.1885.1465-.6641C165.1973,14.479,165.1484,14.70258,165.1797,15.11178Zm.0508-2.6641a.56861.56861,0,0,0,.0957.334C165.3535,12.59028,165.3262,12.479,165.2305,12.44768Zm.0449,12.4717c-.0293.1582.0176.2549.1426.2871C165.5801,25.01608,165.5293,24.91938,165.2754,24.91938Zm.0977-13.4219c0-.0634.0937-.0976.2851-.0976C165.4981,11.24168,165.4043,11.27288,165.3731,11.49748Zm0,13.1348c0,.1299.0449.1924.1406.1924v-1.1416a.19434.19434,0,0,1-.0469.1426A1.74086,1.74086,0,0,1,165.3731,24.63228Zm2.3808-2.2822c.0313.0947.0469.0166.0469-.2393C167.8008,21.92228,167.7852,22.00048,167.7539,22.35008Zm.0938-6.7598c.125.0967.1718-.081.1445-.5254C167.8633,15.00338,167.8164,15.17718,167.8477,15.59028Zm.2851,14.1846.1426-.4766C168.0195,29.36278,167.9727,29.522,168.1328,29.77488Zm.1895-.9522a.55218.55218,0,0,0-.0938.3809Q168.3692,29.15813,168.3223,28.82268Zm.0508-.1416a1.00385,1.00385,0,0,0,.1875-.5713C168.3731,28.20458,168.3086,28.395,168.3731,28.68108Zm.0449-7.9502c.0332.1905.1426.2373.3359.1416a2.12762,2.12762,0,0,0,.9024-.0947,24.52445,24.52445,0,0,0,.3808-3.0469,2.121,2.121,0,0,0-1.5215,0l-.0976.7618A8.5901,8.5901,0,0,1,168.418,20.73088Zm1.2851-6.9033-.9492.2383-.2871,2.9033a3.87515,3.87515,0,0,0,.4277-.0469,6.92952,6.92952,0,0,1,1.1426-.0947v-.5723a11.08215,11.08215,0,0,0,.1426-2.2841A.51987.51987,0,0,0,169.7031,13.82758Zm.3809,17.0899a1.53909,1.53909,0,0,0-.1895.666.55631.55631,0,0,0,.3809-.2852C170.4961,31.10978,170.4316,30.98288,170.084,30.91748Zm2.0937-14.71-.0449.4277C172.2891,16.44578,172.3066,16.30518,172.1777,16.20748Z"/>
        <path class="a" d="M177.3887,21.82658c.1914-.3173.1738-.3984-.0489-.2382-.2851.2197-.4589.1416-.5214-.2373a11.72323,11.72323,0,0,1-.1446-2.8096,4.89238,4.89238,0,0,1,.0508-1.5264.47171.47171,0,0,0-.0976-.4267l-.0469-3.9981a.79688.79688,0,0,1,.6172-.331.55342.55342,0,0,1,.7148.0468,2.29964,2.29964,0,0,1,.9531.0948,1.14027,1.14027,0,0,0,.8086-.1924.73527.73527,0,0,1,.5235.0976,1.40878,1.40878,0,0,1,.8086.1416,3.42883,3.42883,0,0,0,.9785-.0468,5.02431,5.02431,0,0,1,.9726-.0948,12.48537,12.48537,0,0,1,2.1914.0948,1.23792,1.23792,0,0,1,.7637.0468,2.33523,2.33523,0,0,1,2.0918.3809,26.07192,26.07192,0,0,1-.332,5.2373,1.99848,1.99848,0,0,1-.0957,1.0449.60428.60428,0,0,0,.0469.5244c0,.2549-.1094.3975-.3321.4297,0,.666-.3965.9815-1.1914.9512-.0957,0-.3027.0156-.6191.0488-.3164.0322-.5078.0469-.5703.0469l-1.0489.2393a1.49431,1.49431,0,0,1-.7617-.0967q-1.7109.2871-3.4258.6679a5.53922,5.53922,0,0,1-.664.0459,1.25361,1.25361,0,0,0-.9551.1895C177.7695,22.35008,177.5469,22.23778,177.3887,21.82658Zm-.0957-2.5244c-.0313-.0312-.0469,0-.0469.0957C177.2754,19.58838,177.293,19.55708,177.293,19.30218Zm.6679-5.5693a.52435.52435,0,0,0,.0938.2871C178.0547,13.73288,178.0234,13.63818,177.9609,13.73288Zm.5235,7.5215c-.0938,0-.1446.0166-.1446.0498C178.3711,21.52288,178.4199,21.50928,178.4844,21.25438Zm.0469-7.9033.1445.4287C178.7363,13.46428,178.6895,13.32268,178.5313,13.35108Zm.8574-.2383c-.1582,0-.2364.0957-.2364.2871a.47161.47161,0,0,1,.5684,0C179.7207,13.20848,179.6113,13.11278,179.3887,13.11278Zm1.1894,7.4746a5.08833,5.08833,0,0,0,1.5723-.1416,2.51646,2.51646,0,0,0,.5234-.0508,2.31521,2.31521,0,0,0,1.1407-.2842l-.334-.2832q.0966-2.8095-.0469-5.6191a1.07758,1.07758,0,0,0-.2363-1.1885,3.73778,3.73778,0,0,0-1.334.0459,7.03391,7.03391,0,0,1-.7852-.0459,7.1656,7.1656,0,0,0-.83-.0498,6.93088,6.93088,0,0,0,.0917,1.6191c-.1269.1914-.1269.3487,0,.4756l.0489,2.5713A23.40445,23.40445,0,0,1,180.5781,20.58738Zm4.1055,8.0322a.53756.53756,0,0,1,.1738-.6162q2.66025-2.13435,5.4492-4.0537,1.8135-1.44585,3.5176-2.9736c.4785-.1856.7031-.1143.666.2158-.1757-.0948-.2265-.0078-.1425.2676l-1.1524,1.6171q-1.374,1.75785-2.6113,3.6778c-.6777,1.0625-1.3692,2.1084-2.084,3.1455-.2344.2998-.4785.6367-.7324,1.0049a4.54725,4.54725,0,0,1-.9649,1.3388c-.1894.3594-.3847.3633-.5761.0117Q185.5498,30.44478,184.6836,28.61958Zm-.1543-11.8389v.6172c-.0312.3516.0156.5088.1426.4756a8.87258,8.87258,0,0,0-.0957-1.8076Zm1.2852,13.8526.1894-.334C185.7188,30.33148,185.6563,30.44088,185.8145,30.63328Zm3.666-19.375a1.28082,1.28082,0,0,1,.334-.5713,1.51649,1.51649,0,0,1,1.3789-.0967.37862.37862,0,0,0,.1914.3809,56.34517,56.34517,0,0,1,3.664,5.4287,2.06457,2.06457,0,0,1-.8554,1.7129,10.09523,10.09523,0,0,1-1.3809,1.4756,7.66693,7.66693,0,0,1-1.1406-1.9522,7.99165,7.99165,0,0,0-.5274-1.7129,6.11086,6.11086,0,0,1-.8066-1.999,4.52782,4.52782,0,0,1-.2383-.7158A4.13042,4.13042,0,0,1,189.4805,11.25828Zm1.3398-4.9854a2.18511,2.18511,0,0,1,.8223-.7627,28.754,28.754,0,0,1,5.2109,2.4864c.1016.3388.3067.4609.6153.3632a.56533.56533,0,0,0-.3457.3252l.3769-.0429a.36952.36952,0,0,1-.2637.2197,3.68141,3.68141,0,0,0-.9121,1.2519.535.535,0,0,0-.4511.6729.69441.69441,0,0,0-.002.4326.86222.86222,0,0,1-.4688.5322Q193.1787,8.97848,190.8203,6.27288Zm.0391,18.791a.13258.13258,0,0,0,.0469-.0947C190.9063,24.80908,190.8926,24.84028,190.8594,25.06388Zm1.334,7.4717.2851-.333a1.58273,1.58273,0,0,0,.2871-.7129c.3789-.8564.7461-1.7617,1.0938-2.7138a4.23531,4.23531,0,0,0,.6191-1.3809,2.74382,2.74382,0,0,1,.2871-.7148l3.2813-11.376a5.79291,5.79291,0,0,0,.5-1.7852,1.83521,1.83521,0,0,1,.9765-1.4512h2.334a3.03763,3.03763,0,0,0,.7129.0958,6.77057,6.77057,0,0,1,.7617.0449h.8106l.666-6.2334a1.44373,1.44373,0,0,1,.1895-1.1446.47536.47536,0,0,1,.6406.0245.48057.48057,0,0,0,.6445.0263l2.0469.6172a2.75968,2.75968,0,0,1,.8105.5693c.0293,1.1133.0157,2.2237-.0488,3.3331a1.00563,1.00563,0,0,1-.1426.5244l-.1875,2.2832c-.0976.1924-.0664.3349.0918.4316a4.67431,4.67431,0,0,0,1.4766.2354,3.54079,3.54079,0,0,1,1.1426.0947c.1582,0,.3398-.0068.5488-.0205a1.41521,1.41521,0,0,1,.5918.0703l2,.5225q.5244.38085,0,.9511-1.52055,1.7622-3.1406,3.4297a1.94373,1.94373,0,0,0-1.2383.8535c-.2207-.0283-.2696-.1699-.1426-.4257a.47037.47037,0,0,1-.4277-.0967l.5234-4.2832c.2227-.3174.1582-.4912-.1914-.5244a8.44354,8.44354,0,0,0-1.2852-.0957l-.6191,5.7597,1.6699.2393a8.527,8.527,0,0,0,1.0918.0234,3.57189,3.57189,0,0,1,1.0957.1201l.7149.3789q.6621.57135,0,1.2393a.55829.55829,0,0,1-.1211.4766.48184.48184,0,0,0-.1172.4267,46.22878,46.22878,0,0,1-2.9043,4.1416,1.27766,1.27766,0,0,0,.7363.4307,1.26377,1.26377,0,0,1,.6445.2851,8.26627,8.26627,0,0,1,2.7129,1.4248q-1.0956,1.2891-2.2851,2.5254a1.14356,1.14356,0,0,0-.7149.667,2.749,2.749,0,0,0-1.1445-.7607l-1.5195-1.1914a1.35493,1.35493,0,0,0-.7168-.5694,20.28309,20.28309,0,0,0-1.8086,1.5235c-.2188.2187-.4356.4502-.6426.6894a3.58573,3.58573,0,0,1-.7363.6397c-.2539.4463-.4785.4463-.666,0q.7587-2.19,1.666-4.3799a.58.58,0,0,0,.0957-.4727l-2.4746-1.9043a6.91148,6.91148,0,0,0-.8594-1.0488.52344.52344,0,0,1-.332-.5224q2.09475.61515,4.1894,1.4267c.2852.127.4766-.0156.5703-.4287a19.683,19.683,0,0,0,1.5703-3.998c.0977-.3819-.1601-.5694-.7617-.5694a3.37493,3.37493,0,0,0-.8086-.1924,21.66354,21.66354,0,0,1-3.8066-.2373c-.4785-.1572-.5566-.3965-.2402-.7168h1.3789l.6211-5.4257c-.0313-.254-.2207-.3809-.5704-.3809s-.4765.2236-.3808.668a21.50689,21.50689,0,0,0-1.0488,3.4277.74447.74447,0,0,1-.2383.6191l-.4746,1.4258a40.00117,40.00117,0,0,1-4.3809,8.2383.81385.81385,0,0,0-.1894.5215,44.06189,44.06189,0,0,1-4.1407,4.9043c-.1289-.0635-.2226,0-.2871.1885A.45053.45053,0,0,1,192.1934,32.53558Zm3.625-21.79c-.0996-.0215-.1426.0156-.1289.1123C195.6992,10.94868,195.7402,10.91448,195.8184,10.74558Zm.7656-.4688-.5391.3457Q196.11825,10.42778,196.584,10.27678Zm-.4395,16.6416a1.84943,1.84943,0,0,0-.4277.9073l.2832-.335A.83389.83389,0,0,0,196.1445,26.91838Zm.3809-.331c-.1895,0-.2871.1103-.2871.331Q196.5722,26.91838,196.5254,26.58738Zm.2832-.4776c-.123,0-.1855.0791-.1855.2383C196.7461,26.34808,196.8086,26.27,196.8086,26.10978Zm.5254-1.0459-.2383.5235C197.3828,25.42618,197.459,25.25338,197.334,25.06388Zm.1894-5.5214a3.77306,3.77306,0,0,0,.334-.8125.73332.73332,0,0,0,.0469-.7598A4.63106,4.63106,0,0,0,197.5234,19.54248Zm2.4278-2.7618-.2364.7627c0,.0928.0801.0459.2364-.1455A.975.975,0,0,0,199.9512,16.78068Zm5.1914-.9521a.58208.58208,0,0,0,.0937-.334C205.1426,15.52678,205.1113,15.63618,205.1426,15.82858Zm.0937,2.0449c.1895.0967.2852.0498.2852-.1426C205.2988,17.60588,205.207,17.65178,205.2363,17.87348Zm.2364-8.9951a.12464.12464,0,0,0-.1407.1416C205.3945,9.36958,205.4414,9.32368,205.4727,8.87838Zm-.0469-.0957c.1601-.0635.1933-.1914.0957-.3799C205.4609,8.33838,205.4258,8.46428,205.4258,8.78268Zm.9551,8.8535c-.1914.0313-.2871.0947-.2871.1924C206.1563,17.89108,206.252,17.82858,206.3809,17.63618Zm.0468.999c.0938.1914.2051.21.334.0498C206.6328,18.39788,206.5215,18.38028,206.4277,18.63518Zm1.6192,9.4746c0,.1602.1094.2383.332.2383C208.3789,28.18988,208.2656,28.10978,208.0469,28.10978Zm.2832-.4296a.46715.46715,0,0,0,.334.1455A.27436.27436,0,0,0,208.3301,27.68018Zm1.0488-7.377c-.0957.0322-.1445.1426-.1445.3311C209.3926,20.54048,209.4414,20.42918,209.3789,20.30318Zm.1895,4.1875a.35253.35253,0,0,0-.2852.4287A.59194.59194,0,0,0,209.5684,24.49068Zm.2851-.5723a.49443.49443,0,0,0-.332.4776A.77934.77934,0,0,0,209.8535,23.91838Zm.668-3.6152a.18727.18727,0,0,0-.0957.1895C210.5215,20.65278,210.5488,20.58738,210.5215,20.30318Zm1.2363-6.2832c-.0937,0-.1426.0312-.1426.0937C211.6777,14.36858,211.7246,14.33638,211.7578,14.02Z"/>
        <path class="a" d="M217.9883,21.77c.1875-.3594.1719-.4502-.0508-.2686-.2852.2491-.459.1612-.5234-.2705a14.97428,14.97428,0,0,1-.1426-3.1787,6.31987,6.31987,0,0,1,.0488-1.7275.57933.57933,0,0,0-.0957-.4844l-.0488-4.5273a.78883.78883,0,0,1,.6191-.3741.50728.50728,0,0,1,.7149.0518,2.06507,2.06507,0,0,1,.9531.1084,1.0319,1.0319,0,0,0,.8086-.2178.674.674,0,0,1,.5215.1094,1.30849,1.30849,0,0,1,.8125.1611,2.976,2.976,0,0,0,.9746-.0527,4.54245,4.54245,0,0,1,.9765-.1084,11.13347,11.13347,0,0,1,2.1895.1084,1.1013,1.1013,0,0,1,.7617.0527,2.12582,2.12582,0,0,1,2.0938.4317,33.52559,33.52559,0,0,1-.3321,5.9287,2.57954,2.57954,0,0,1-.0957,1.1846.78258.78258,0,0,0,.045.5937c0,.2871-.1075.4492-.3301.4863,0,.7539-.3985,1.1123-1.1914,1.0762-.0957,0-.3028.0176-.6192.0557-.3164.0351-.5058.0517-.5683.0517l-1.0508.2705a1.31733,1.31733,0,0,1-.7617-.1074c-1.1407.2168-2.2832.4658-3.4258.7549a4.81627,4.81627,0,0,1-.666.0527,1.13842,1.13842,0,0,0-.9532.2149C218.3672,22.36278,218.1445,22.23678,217.9883,21.77Zm-.0977-2.4678c-.0332-.0312-.0449,0-.0449.0957C217.8731,19.58838,217.8906,19.55708,217.8906,19.30218Zm.666-5.5693a.52739.52739,0,0,0,.0957.2871C218.6523,13.73288,218.6211,13.63818,218.5566,13.73288Zm.5254,7.5215c-.0957,0-.1464.0166-.1464.0498C218.9707,21.52288,219.0176,21.50928,219.082,21.25438Zm.0469-7.9033.1406.4287C219.3359,13.46428,219.2852,13.32268,219.1289,13.35108Zm.8574-.2383c-.1601,0-.2382.0957-.2382.2871a.47146.47146,0,0,1,.5683,0C220.3164,13.20848,220.207,13.11278,219.9863,13.11278Zm1.1895,7.4746a5.0939,5.0939,0,0,0,1.5723-.1416,2.51714,2.51714,0,0,0,.5234-.0508,2.31456,2.31456,0,0,0,1.1406-.2842l-.332-.2832q.09375-2.8095-.0469-5.6191a1.08478,1.08478,0,0,0-.2383-1.1885,3.7499,3.7499,0,0,0-1.3359.0459,6.9975,6.9975,0,0,1-.7832-.0459,7.22892,7.22892,0,0,0-.832-.0498,7.03654,7.03654,0,0,0,.0937,1.6191c-.125.1914-.125.3487,0,.4756l.0488,2.5713A23.40461,23.40461,0,0,1,221.1758,20.58738Zm3.8555,7.0459a.53779.53779,0,0,1,.2851-.5723q3-1.61715,6.0938-2.998,2.0448-1.09425,4-2.2852c.5058-.0947.7129.0156.6171.333-.1582-.125-.2226-.0459-.1894.2393L234.4121,23.73q-1.67,1.47795-3.2383,3.1425-1.28895,1.38135-2.6191,2.7129c-.2852.2549-.5879.5391-.9043.8555a4.53809,4.53809,0,0,1-1.1914,1.1426c-.2539.3203-.4434.2871-.5684-.0938Q225.5537,29.58393,225.0313,27.63328Zm.0976-10.8526v.6172c-.0332.3516.0137.5088.1406.4756a8.866,8.866,0,0,0-.0937-1.8076Zm1.2832,13.8526.1895-.334C226.3164,30.33148,226.2539,30.44088,226.4121,30.63328Zm3.6641-19.375a1.30308,1.30308,0,0,1,.3359-.5713,1.51652,1.51652,0,0,1,1.3789-.0967.38058.38058,0,0,0,.1895.3809,56.00056,56.00056,0,0,1,3.666,5.4287,2.07,2.07,0,0,1-.8555,1.7129,10.09456,10.09456,0,0,1-1.3808,1.4756,7.66419,7.66419,0,0,1-1.1407-1.9522,8.1002,8.1002,0,0,0-.5273-1.7129,6.10867,6.10867,0,0,1-.8066-1.999,4.51765,4.51765,0,0,1-.2383-.7158A4.13362,4.13362,0,0,1,230.0762,11.25828Zm.8144-6.7129a2.14889,2.14889,0,0,1,.9004-.6651,28.81284,28.81284,0,0,1,4.9024,3.045c.0644.3496.2558.4941.5703.4306a.56725.56725,0,0,0-.3789.2842h.3789a.36747.36747,0,0,1-.2832.1895,3.62709,3.62709,0,0,0-1.0449,1.1416.5364.5364,0,0,0-.5254.6181.69846.69846,0,0,0-.0489.4307.87143.87143,0,0,1-.5234.4785Q232.93365,7.497,230.8906,4.54538Zm.5684,20.5185a.13743.13743,0,0,0,.0449-.0947C231.5039,24.80908,231.4902,24.84028,231.459,25.06388Zm1.9199,7.9395.2734-.3457a1.54179,1.54179,0,0,0,.252-.7246q.51855-1.30665.9824-2.7569a4.28212,4.28212,0,0,0,.5606-1.4062,2.75306,2.75306,0,0,1,.2539-.7266L238.5,15.53948a5.80626,5.80626,0,0,0,.4277-1.8066,1.82125,1.82125,0,0,1,.9121-1.4902l2.3321-.0977a2.85279,2.85279,0,0,0,.7148.0635,6.87668,6.87668,0,0,1,.7617.0156l.8106-.0352.4004-6.2548a1.44221,1.44221,0,0,1,.1445-1.1534.4793.4793,0,0,1,.6445-.0019.479.479,0,0,0,.6426-.0029l2.0703.5312a2.75226,2.75226,0,0,1,.834.5342c.0742,1.1113.1074,2.2217.0899,3.334a.99257.99257,0,0,1-.1192.5293l-.0918,2.291a.289.289,0,0,0,.1094.4248,4.758,4.758,0,0,0,1.4863.1738,3.468,3.468,0,0,1,1.1465.0459c.1582-.0068.3379-.0224.5449-.0459a1.46532,1.46532,0,0,1,.5977.0488l2.0195.4375c.3594.2383.3711.5538.0391.9493q-1.44435,1.8237-2.9922,3.5595a1.94234,1.94234,0,0,0-1.2031.9063c-.2207-.0195-.2774-.1621-.1602-.4219a.46252.46252,0,0,1-.4297-.0762l.3418-4.3037q.31065-.48915-.2148-.5146a8.57218,8.57218,0,0,0-1.2852-.043l-.3769,5.7842,1.6777.166a8.59306,8.59306,0,0,0,1.0918-.0225,3.55241,3.55241,0,0,1,1.0996.0723l.7305.3506c.459.3623.4746.7744.0547,1.2363a.56649.56649,0,0,1-.1016.4815.48665.48665,0,0,0-.1016.4336,46.12441,46.12441,0,0,1-2.7265,4.2597,1.294,1.294,0,0,0,.7578.3994,1.24265,1.24265,0,0,1,.6523.2559,8.281,8.281,0,0,1,2.7715,1.3115q-1.03995,1.33305-2.1777,2.6162a1.152,1.152,0,0,0-.6836.6983,2.78481,2.78481,0,0,0-1.1758-.7129l-1.5703-1.127a1.37454,1.37454,0,0,0-.7383-.539,21.14566,21.14566,0,0,0-1.7441,1.5986c-.209.2314-.416.4707-.6133.7178a3.5916,3.5916,0,0,1-.709.6719c-.2324.4531-.457.4628-.6641.0283q.6651-2.21925,1.4805-4.4463a.59677.59677,0,0,0,.0723-.4785l-2.5528-1.7969a6.7662,6.7662,0,0,0-.9003-1.0117.52091.52091,0,0,1-.3536-.5088q2.1183.53025,4.2442,1.249.4365.1728.5547-.4512a19.8327,19.8327,0,0,0,1.4004-4.0634q.11415-.57435-.7871-.5362a3.36535,3.36535,0,0,0-.8145-.1572,22.09069,22.09069,0,0,1-3.8184-.0752c-.4824-.1387-.5703-.373-.2675-.7051l1.3789-.0595.3906-5.4483c-.0449-.25-.2363-.3701-.5859-.3564-.3516.0156-.4668.2461-.3536.6855a21.275,21.275,0,0,0-.9004,3.4678.756.756,0,0,1-.2148.6289l-.4121,1.4463a40.10083,40.10083,0,0,1-4.0293,8.4131.82364.82364,0,0,0-.168.5283,43.88246,43.88246,0,0,1-3.9316,5.0752q-.19335-.085-.2754.2021A.45226.45226,0,0,1,233.3789,33.00338Zm1.9824-23.4609c-.0976-.0303-.1425,0-.1425.0976C235.2188,9.73288,235.2637,9.70458,235.3613,9.54248Zm.8125-.3789-.5761.2841C235.6641,9.32368,235.8535,9.227,236.1738,9.16358Zm.5684,17.7548a1.81532,1.81532,0,0,0-.4277.9073l.2851-.335A.8525.8525,0,0,0,236.7422,26.91838Zm.3789-.331c-.1875,0-.2832.1103-.2832.331C237.0586,26.91838,237.1563,26.80808,237.1211,26.58738Zm.2852-.4776c-.125,0-.1875.0791-.1875.2383C237.3438,26.34808,237.4063,26.27,237.4063,26.10978Zm.5253-1.0459-.2382.5235C237.9785,25.42618,238.0566,25.25338,237.9316,25.06388Zm.1915-5.5214a4.09852,4.09852,0,0,0,.3339-.8125.74666.74666,0,0,0,.0469-.7598A4.54163,4.54163,0,0,0,238.1231,19.54248Zm2.4257-2.7618-.2343.7627c0,.0928.0781.0459.2343-.1455A.97356.97356,0,0,0,240.5488,16.78068Zm5.1914-.9521a.59813.59813,0,0,0,.0957-.334C245.7402,15.52678,245.709,15.63618,245.7402,15.82858Zm.0957,2.0449c.1895.0967.2832.0498.2832-.1426C245.8965,17.60588,245.8027,17.65178,245.8359,17.87348Zm.2344-8.9951a.1268.1268,0,0,0-.1426.1416C245.9941,9.36958,246.0391,9.32368,246.0703,8.87838Zm-.0449-.0957c.1582-.0635.1914-.1914.0937-.3799C246.0566,8.33838,246.0254,8.46428,246.0254,8.78268Zm.9512,8.8535c-.1914.0313-.2871.0947-.2871.1924C246.7539,17.89108,246.8496,17.82858,246.9766,17.63618Zm.0488.999c.0957.1914.2051.21.334.0498C247.2305,18.39788,247.1211,18.38028,247.0254,18.63518Zm1.6172,9.4746c0,.1602.1113.2383.334.2383C248.9766,28.18988,248.8652,28.10978,248.6426,28.10978Zm.2871-.4296a.45637.45637,0,0,0,.332.1455A.27186.27186,0,0,0,248.9297,27.68018Zm1.0469-7.377c-.0938.0322-.1446.1426-.1446.3311C249.9902,20.54048,250.0391,20.42918,249.9766,20.30318Zm.1894,4.1875a.34991.34991,0,0,0-.2832.4287A.58935.58935,0,0,0,250.166,24.49068Zm.2871-.5723a.49378.49378,0,0,0-.334.4776A.79723.79723,0,0,0,250.4531,23.91838Zm.666-3.6152a.18743.18743,0,0,0-.0957.1895C251.1191,20.65278,251.1484,20.58738,251.1191,20.30318Zm1.2344-6.2832c-.0918,0-.1426.0312-.1426.0937C252.2754,14.36858,252.3223,14.33638,252.3535,14.02Z"/>
        <path class="a" d="M257.0684,29.44088l2.3808-4.7598q1.9044-4.4736,3.6172-8.9941a.98948.98948,0,0,0,.1426-.5244q.7149-2.669,1.5723-5.335c.0918-.2197.2226-.3301.3808-.3301a23.96846,23.96846,0,0,1,3.0469,1.6651.55959.55959,0,0,1,.1914.665,7.30709,7.30709,0,0,1-1.2871,2.8584c-.2207.4131-.2207.6182,0,.6182a32.03379,32.03379,0,0,1,3.3808-1.9043,8.26754,8.26754,0,0,1,.6641,1.665q.38385,1.002-.3809,1.3809a32.85167,32.85167,0,0,0-4.9023,1.7617,1.94318,1.94318,0,0,0-1.0469.9531c-.0312.1895.0957.2373.3809.1416a31.03373,31.03373,0,0,0,3.5723,4.6162,1.13038,1.13038,0,0,1-.0508.9541,12.748,12.748,0,0,0-1.3301,1.5713,1.34821,1.34821,0,0,0-.5273.7617.67923.67923,0,0,1-.5684.2354c-.1602,0-.2852-.1406-.3789-.4268q-.67095-1.4736-1.3828-2.9043a.34922.34922,0,0,1-.2832-.4267,12.50085,12.50085,0,0,1-.668-1.333.37444.37444,0,0,0-.334-.335,41.54923,41.54923,0,0,1-5.6172,7.4756c-.1914.2842-.3808.4258-.5722.4258h-.0469A.49964.49964,0,0,1,257.0684,29.44088Zm2.6679-9.5684-.5722-1.331a1.07956,1.07956,0,0,1-.1914-.3799q-.80565-1.95405-1.5235-3.998v-.9551a.54345.54345,0,0,1,.5235-.1426l2.2871,1.667,1.8554,1.6182a1.25969,1.25969,0,0,0,.0489.9033,8.65441,8.65441,0,0,1-.7168.8115l-1.045,1.665A.43834.43834,0,0,1,259.7363,19.87248Zm4.9043-.3789a.281.281,0,0,0,.1407.2373A.27878.27878,0,0,0,264.6406,19.49358Zm3.3301,9.1875a41.44848,41.44848,0,0,0,3.9981-5.666,3.26332,3.26332,0,0,0,.6191-1.1885l-1.9023.0459q-.7149-.37935.0917-.7148a3.52811,3.52811,0,0,1,.67-.0928,6.8308,6.8308,0,0,0,1.8066-.0488,1.81673,1.81673,0,0,0,1.4766-.334l.1894-3.5693c-.0937-.2539-.3164-.3174-.666-.1905-.1582,0-.373-.0058-.6406-.0234-.2715-.0156-.4063-.1357-.4063-.3555a1.35891,1.35891,0,0,1,1.7129-.6699,9.003,9.003,0,0,0,.2871-1.8535c.0938-.2236.2539-.2715.4746-.1436a3.141,3.141,0,0,1,2.4297.5245l-.0507.7617q-.1875.09375,0,.4277c.0644.3154.2578.3809.5742.1914a3.82287,3.82287,0,0,0,1.5703-.0488l.1445-.7627a.40326.40326,0,0,0,.1426-.4766.49614.49614,0,0,1,.2851-.6172,2.17771,2.17771,0,0,1,1.2364-.3837,5.61111,5.61111,0,0,0,1.8086-.3799.80766.80766,0,0,1,.9531.2383,6.17213,6.17213,0,0,1,0,2.1435l1.2383.0479a.84992.84992,0,0,1-.1426.9511l-1.2402-.0478v3.8574h1.0468a2.6863,2.6863,0,0,1,1.334-.1455c.0938,0,.3008-.0147.6192-.0469a3.479,3.479,0,0,0,1.1425-.0947,1.07423,1.07423,0,0,1,.4766-.0928l.0469.0469c.1894,0,.3965.0068.6211.0234.2187.0157.3301.1641.3301.4522a.95516.95516,0,0,1-.9512.4756c-.2246.0654-.3653.0468-.4317-.0489l-1.7089.1436a1.83579,1.83579,0,0,1,.2832.2383,1.52939,1.52939,0,0,0,.7168.4287,3.12417,3.12417,0,0,0,.9023.7617,5.71506,5.71506,0,0,1,.4277.4756c.7305.5381,1.4453,1.1123,2.1426,1.7119a.52868.52868,0,0,1,.1445.4785,16.421,16.421,0,0,1-2.8574,1.7139,1.4041,1.4041,0,0,1-.9512.2861c-.2226.0625-.3339-.0342-.3339-.2861a6.75637,6.75637,0,0,0-1.1895-1.7139,17.10657,17.10657,0,0,1-3.7129-3.7148,1.74255,1.74255,0,0,0-1.334-.1416.98708.98708,0,0,0-1.1406.334c-.1914.2197-.3828.1582-.5742-.1924a2.68829,2.68829,0,0,0-2.6172.8115,49.15742,49.15742,0,0,1-8.5215,6.9023Q268.11335,29.34708,267.9707,28.68108Zm2.5703,2.0948a.22473.22473,0,0,1,.1914-.2383,1.34572,1.34572,0,0,1,1.0469-.5703,28.11155,28.11155,0,0,0,4.5703-1.6192,1.24721,1.24721,0,0,0,.7617.1895.38716.38716,0,0,1,.1895.4756c-.1895.1601-.2539.3046-.1895.4277a4.92245,4.92245,0,0,1-1.1425.668q-2.048,1.5702-4.1426,3.0937a.5195.5195,0,0,1-.8574.0479A8.76,8.76,0,0,1,270.541,30.77588Zm2.2852-19.9473a1.4183,1.4183,0,0,0-.0469-.9522,1.76077,1.76077,0,0,1-.0957-.5712q-.4776-3.33255-.7598-6.6631a.786.786,0,0,1,.045-.7168c-.127,0-.1719-.0918-.1426-.2842a5.71109,5.71109,0,0,1,2.5215-.2852c.4785,0,.9531-.0166,1.4296-.0478a.9025.9025,0,0,0,.2872-.0469,7.17494,7.17494,0,0,0,1.664-.0957,1.13368,1.13368,0,0,0,.4766.0508,1.66265,1.66265,0,0,0,.4765-.0508q2.56935-.09225,5.0918-.3809a2.825,2.825,0,0,1,.5254-.0468,2.10652,2.10652,0,0,1,2.1895.8574,25.46741,25.46741,0,0,1-.0469,2.7109,43.00084,43.00084,0,0,1-.3808,7.5713l-.5704.2862a1.81467,1.81467,0,0,1-.5254.1181c-.1894.0156-.3652.0244-.5234.0244h-.8594a6.25018,6.25018,0,0,1-1.7109.1416.723.723,0,0,0-.7148,0c-.5684.0313-1.1094.0459-1.6172.0459-.5703,0-1.1114.0196-1.6211.0498l-1.711.1426a.91779.91779,0,0,0-.7148,0,.82146.82146,0,0,1-.8574,0,2.22408,2.22408,0,0,0-.4766.0459,1.51519,1.51519,0,0,1-.4746.0967.826.826,0,0,1-.7148-.4775A8.21318,8.21318,0,0,0,272.8262,10.82858Zm.8574-1.4766a.79468.79468,0,0,0,.0937.4297C273.8086,9.36958,273.7773,9.227,273.6836,9.352Zm.0937-2.8056c.127-.0342.1426-.127.0489-.2862C273.7969,6.06778,273.7773,6.16258,273.7773,6.54638Zm.1915-4.2383a.921.921,0,0,0,.4765.1894C274.3828,2.18308,274.2227,2.11768,273.9688,2.30808Zm.8574,25.4668-.1914-1.2852a2.77032,2.77032,0,0,1-.1426-1.665.7229.7229,0,0,1,.5723-.1436,10.71372,10.71372,0,0,1,1.9043,2.0479,4.8216,4.8216,0,0,1-1,1.6191.35674.35674,0,0,0-.334.2862.45539.45539,0,0,0-.334-.1446C275.0156,28.42718,274.8555,28.18988,274.8262,27.77488Zm-.334-18.8965c-.0313-.0645-.0469-.0508-.0469.0469C274.5391,9.02,274.5547,9.00338,274.4922,8.87838Zm.0469,1.7617a.21.21,0,0,0,.2382.2373C274.7773,10.62158,274.6973,10.54338,274.5391,10.64008Zm.3808,21.708q.61815-.95505,1.8125-.0986c.2188.0986.3301.0176.3301-.2373q.38085-2.2368.9512-4.4258a18.22514,18.22514,0,0,0,.6679-3.2393.40564.40564,0,0,1,.1446-.4287,11.28116,11.28116,0,0,1,4.5683,1.1455,12.68984,12.68984,0,0,1-.9531,4.2832c.0957.3165.2715.3331.5234.0469a19.28666,19.28666,0,0,1,1.4766-2.0937.56036.56036,0,0,0,.334-.3819.65392.65392,0,0,1,.8066-.331.30644.30644,0,0,1,.2891.331l1.0918.6182a.71364.71364,0,0,1,.4297.5732q-1.4268.9507-2.9512,1.8067l2.4297.8125c.0605,0,.2344.0127.5215.0469l1.1894.3798c.3184.1924.334.3985.0508.6182a5.38017,5.38017,0,0,1-1.0019,2.0459.37261.37261,0,0,1-.3809.2871,2.58578,2.58578,0,0,1-.7617-.333l-4.0469-3.3789c-.2207-.0957-.3496-.0156-.3808.2383a21.15441,21.15441,0,0,1-.9043,3.665c-.1895.3496-.379.6963-.5684,1.0449a1.17548,1.17548,0,0,1-1.0957-.2382.4764.4764,0,0,0-.5234-.3301,11.22,11.22,0,0,1-1.9532-1.1934,1.20243,1.20243,0,0,0-.4297-.2373A13.04506,13.04506,0,0,1,274.9199,32.34808Zm.2871-23.8994a.63263.63263,0,0,0-.0957-.5234A.67353.67353,0,0,0,275.207,8.44868Zm1.5254,3.4287h.9961c.3496,0,.7149-.0156,1.0977-.0498a9.67657,9.67657,0,0,1,1.2363-.1885,1.01025,1.01025,0,0,0,.5254-.0488c.6328-.0928.8535-.5381.6641-1.331q0-2.7159.0957-5.4288a17.88771,17.88771,0,0,0-.0489-2.9052l-3.7597-.045a4.87569,4.87569,0,0,1-1.8086.1426,11.13178,11.13178,0,0,1,.2383,2.2364,20.51242,20.51242,0,0,0,.2382,3.1425.86874.86874,0,0,0,.1426.666c.8242-.1562,1.6817-.2861,2.5703-.3808a1.423,1.423,0,0,1,.5215-.0957,3.23073,3.23073,0,0,1,1.5723.1904c.0625.2539-.0645.4151-.3809.4756a17.9521,17.9521,0,0,1-3.1875.3838,6.53734,6.53734,0,0,1-.7129.0947.69681.69681,0,0,0-.4785.9502,1.06687,1.06687,0,0,0,.0957.4785A3.08656,3.08656,0,0,0,276.7324,11.87738Zm-.7636,7.6162-.0977.4297C276.125,19.73088,276.1582,19.58838,275.9688,19.49358Zm.4746,1.1407a.59768.59768,0,0,0,.4765,0A.29956.29956,0,0,0,276.4434,20.63428Zm1.4746-1.5235-.0918,1.667c.2519,0,.4726-.0068.664-.0234.1914-.0157.4297-.0381.7168-.0723l.6153-.0478.334-3.9043h-2l-.0957.1923a1.20981,1.20981,0,0,0,0,.667Zm1.0957,7.2373a4.29464,4.29464,0,0,0-.5235,1.9033A5.27948,5.27948,0,0,0,279.0137,26.34808Zm.0469,4.9502c.0976.0957.1738-.0312.2382-.3808C279.1387,30.91748,279.0606,31.04438,279.0606,31.29828Zm.3808-.9033a.321.321,0,0,0-.1426.2842C279.3945,30.67918,279.4414,30.58348,279.4414,30.395Zm2.2383-25.3272a.77376.77376,0,0,0,.1914.5723l.1426-1.4267c0-.3838-.0801-.5401-.2383-.4766A4.703,4.703,0,0,1,281.6797,5.06778Zm.6191,20.3272v-.0947c0-.1573-.1289-.2364-.3808-.2364A.39293.39293,0,0,0,282.2988,25.395Zm-.1894-5.3301c0,.0313-.0176.0459-.0488.0459C282.1231,20.20848,282.1406,20.19278,282.1094,20.06488Zm2.4746-10.7597c.125.2841.2383.1923.332-.2852C284.7578,8.82758,284.6484,8.92528,284.584,9.30518Zm1.8105,18.6621-.1933.0927C286.1387,28.28458,286.2012,28.25138,286.3945,27.96728Zm2.9493-3.5225c0,.126.0312.1875.0957.1875C289.6621,24.478,289.6309,24.41258,289.3438,24.44478Zm1.6171.2363a.77459.77459,0,0,0-.1406.4766C291.0723,25.06388,291.1231,24.90378,290.9609,24.68108Z"/>
        <path class="a" d="M301.1445,32.91748a2.33166,2.33166,0,0,1,.0957-.7149,3.00442,3.00442,0,0,0,.1426-1.1885q.8613-5.42865,1.2383-10.9492l-1.3809,1.4737a3.74071,3.74071,0,0,1-.8105,1.1914q-.85545.763-1.666,1.5224l-1.2852,1.3809a.30375.30375,0,0,0-.2832.3349,3.21219,3.21219,0,0,0-1.2402,1.0459,3.53132,3.53132,0,0,0-1.3789.7608q-1.2861.71475-2.5723,1.5234-.5214.57285-.8574.1426a11.10764,11.10764,0,0,1,1.7656-2.5684,76.69124,76.69124,0,0,0,5.1875-8.2373,24.96879,24.96879,0,0,0,1.9043-3.6152c-.2266-.2559-.4941-.2559-.8105,0a37.29929,37.29929,0,0,0-4.6661.7617,1.96367,1.96367,0,0,1-.621.0918,1.035,1.035,0,0,1-.5215-.6182.42139.42139,0,0,1,.5215-.4277c.7343-.125,1.4472-.2383,2.1464-.334a2.71619,2.71619,0,0,0,.5235-.0459l4.9961-.7627a6.69246,6.69246,0,0,1,.8105-.0468,2.23329,2.23329,0,0,0,.8086-.1455,2.347,2.347,0,0,0,.2871-1.1416,29.74513,29.74513,0,0,1,.1406-3.7598,1.03159,1.03159,0,0,1,.1446-.7129,5.02987,5.02987,0,0,1,.2851-2.5723,1.323,1.323,0,0,0,.1426-.9502A5.39688,5.39688,0,0,1,307,3.40278a3.72889,3.72889,0,0,1,.4746-.0459,14.23781,14.23781,0,0,1,2.668-.5234q.2373.139.0937.4267c-.0625.2539-.1093.4444-.1425.5694a2.79814,2.79814,0,0,1-.0469.9082l.2383-.3819q-.43065,2.52405-.6192,5.0918c-.0644.8252-.0957,1.6368-.0957,2.4297a1.08751,1.08751,0,0,1,.1914.6162l2.0469-.33a.55322.55322,0,0,0,.0957-.6202,12.02763,12.02763,0,0,0,.6191-1.7617l.8086-4.8056a2.74161,2.74161,0,0,1,2.2364-.4307c.2851.0312.4765.0469.5722.0469.2871.0341.5547.0556.8086.0732q.38085.0234.8086.0234a.5382.5382,0,0,1,.1406.5713.38344.38344,0,0,0-.1875.4278,26.54325,26.54325,0,0,1-1.7148,4.332,2.7818,2.7818,0,0,0-.5703,1.332c-.127.1914-.0488.2549.2383.1914a1.05909,1.05909,0,0,1,.4765-.0966,2.71514,2.71514,0,0,0,.4766-.0469l2.6152-.4287a1.3748,1.3748,0,0,0,.7149-.0938q1.0956-.33255,1.2851.7129a.4402.4402,0,0,0-.334.2871c-.6328.0322-1.2851.0938-1.9492.1904a6.66422,6.66422,0,0,1-.8125.0459,2.29861,2.29861,0,0,1-.9472.1924c-.0977,0-.2969.0069-.5957.0235a.986.986,0,0,0-.5489.1181,2.71585,2.71585,0,0,1-.5234.0459l-2.1426.4297a22.938,22.938,0,0,0,3.7129,4.8574,27.36732,27.36732,0,0,0,3.3809,4.0918,2.224,2.224,0,0,1-1.2871,1.6651,11.91255,11.91255,0,0,1-1.7129,1.0947,4.57814,4.57814,0,0,0-.9043,1.001c-.1914.2236-.3477.2236-.4766,0l-1.5234-2.0957a10.80668,10.80668,0,0,1-1.4766-2.2334,26.08217,26.08217,0,0,1-1.6172-2.335,3.42167,3.42167,0,0,1-.9043-1.5713c-.1601.0664-.2383.0157-.2383-.1435-.3496,0-.4765-.1416-.3808-.4268q-.28425-.4761-.6192-.2842c-.2851,0-.4453.1241-.4765.3789a.2655.2655,0,0,1-.1895.3809l-.1914,2.6201a4.1906,4.1906,0,0,1-.1426,2.0918c0,.1279-.0468.0801-.1425-.1426-.0313.3496-.0157.4776.0488.3799v.9063q-.334,3.8583-.8086,7.6172a3.68261,3.68261,0,0,0,0,.8564,1.17728,1.17728,0,0,1-.4785.4756,2.59112,2.59112,0,0,1-1.4727.333,1.911,1.911,0,0,0-.4765.0488l-1,.2852a4.65353,4.65353,0,0,1-2.0957.4756C301.5254,33.43988,301.2734,33.32858,301.1445,32.91748Zm-6.6172-5.9034a.25521.25521,0,0,0-.1894.2862C294.6231,27.23778,294.6856,27.14208,294.5273,27.01408Zm1.1915-.6191a1.73574,1.73574,0,0,0-.9532.6191,1.30327,1.30327,0,0,0,.5723-.3339C295.6211,26.58738,295.75,26.48968,295.7188,26.395Zm1.8554-1.665a18.21391,18.21391,0,0,0-1.6191,1.5234l1.2851-1.0469C297.5586,24.98188,297.6699,24.82468,297.5742,24.73Zm-.1406-3.0948a.28061.28061,0,0,0-.1934.0479,8.92467,8.92467,0,0,0-1.0937,1.8096l.8105-1.0479A2.43418,2.43418,0,0,0,297.4336,21.63518Zm-.6699,2.7119-.6172.7168.2383-.1445A.76409.76409,0,0,0,296.7637,24.34708Zm1.6191-14.0878c-.0312,0-.0469.0136-.0469.0468-.1894,0-.2363-.1513-.1406-.4521a1.218,1.218,0,0,0-.1465-.9756,32.13707,32.13707,0,0,1-1.0918-3.9023,1.45107,1.45107,0,0,1-.0254-.6915,3.26936,3.26936,0,0,1,.1915-.6435.4426.4426,0,0,1,.4511-.2842,7.11136,7.11136,0,0,1,1.7129,1.1885l2.336,2.5723a1.09922,1.09922,0,0,1,.1406.5693,19.39383,19.39383,0,0,1-1.9512,1.9531,1.89237,1.89237,0,0,1-1.1426.8086A.257.257,0,0,0,298.3828,10.25928Zm1.7168,10.8056c-.0957,0-.1758.0645-.2402.1895C299.9551,21.25438,300.0332,21.18888,300.0996,21.06488Zm.4746-1.8574-.332.2861C300.2422,19.71528,300.3516,19.62058,300.5742,19.20748Zm.7617-1.1416-.4296.4756c-.2852.2539-.3497.4453-.1895.5693Zm1.3321,10.9473q-.04695-.04845-.0469.0966C302.6856,29.23678,302.7012,29.20358,302.668,29.01318Zm.9511-8.1407c-.0957,0-.1269.0713-.0957.2139C303.5566,21.23088,303.5879,21.15768,303.6191,20.87248Zm0-.8076.0469.3809a4.0362,4.0362,0,0,0,.1446-1.8584.6885.6885,0,0,0-.1172.5957,1.46267,1.46267,0,0,1-.0274.6894Zm.334,5.9961-.1894,1.2393A2.44558,2.44558,0,0,0,303.9531,26.061Zm.1914-11.1377q-.0468-.0966-.0468.0469C304.127,15.16258,304.1445,15.145,304.1445,14.92328Zm.4278-5.4756c.2207.0948.2871-.1103.1914-.6201a1.16276,1.16276,0,0,0-.1426-.7598Zm.0488.2383a.39581.39581,0,0,0,.0937.3818Q304.8555,9.73673,304.6211,9.686Zm0,.7149a.57064.57064,0,0,0,.0937.333Q304.76175,10.07028,304.6211,10.40088Zm.4277-5.7588c0,.1269.1094.2392.334.334C305.5723,4.75138,305.4609,4.64208,305.0488,4.64208Zm.6641,21.1836.0977-.4307C305.7441,25.36568,305.7129,25.50828,305.7129,25.82568Zm.0508.5693-.0508.8105C305.9043,26.82468,305.9199,26.55418,305.7637,26.395Zm.0957-19.9463a1.75706,1.75706,0,0,0-.0957.8574A2.01323,2.01323,0,0,0,305.8594,6.44868Zm.0449,3.9043.0469.1904a.73321.73321,0,0,0,.1426.6192l.1445-2.335c-.1602-.0596-.2227.0508-.1914.336C306.0156,9.57658,305.9668,9.97208,305.9043,10.353Zm.7148-4.7129a.48357.48357,0,0,0,.1895.5713,4.48256,4.48256,0,0,0-.0957-1.2852Zm.2403,6.3311a.32158.32158,0,0,0,.0449.3799,14.43179,14.43179,0,0,0,.1914-2.379A4.67116,4.67116,0,0,0,306.8594,11.97118Zm0,17.8506a.41569.41569,0,0,0,.1875-.5694C306.8867,29.22018,306.8262,29.41258,306.8594,29.82178Zm.1875-15.6133.0488-.2373C307.0957,13.81388,307.0801,13.89208,307.0469,14.20848Zm.9043-10.3282-.4278.045c-.2246,0-.3652.0644-.4277.1924l.4277-.0957C307.7461,4.05418,307.8867,4.00628,307.9512,3.88028Zm-.3321,1.8077c0,.1582.0489.2363.1426.2363l-.0469-.7129C307.6484,5.18108,307.6191,5.33838,307.6191,5.688Zm.1895,18.2304a.20692.20692,0,0,1-.0469.1446C307.791,24.28658,307.8086,24.23868,307.8086,23.91838Zm.7148-18.6123a3.80172,3.80172,0,0,0-.1425,1.001A1.50925,1.50925,0,0,0,308.5234,5.30608ZM309,9.25828l-.1914,2.8095h.0937l.2872-2.8095Zm.0938-.1416a1.67922,1.67922,0,0,0,.0507-.4756Zm2,6.7119a.25133.25133,0,0,0,.2871.2842C311.3809,16.021,311.2852,15.92328,311.0938,15.82858Zm.5234.5225c.0293.1269.1445.2373.334.3339Zm4.332-9.4258a3.17144,3.17144,0,0,0-.5722,1.332,1.52165,1.52165,0,0,0-.3301.9531Zm-.5234,10.5215a1.10627,1.10627,0,0,0,.3808.7607C315.8711,17.95458,315.7422,17.69868,315.4258,17.44678Zm.0469,1.33.5234.5254c.1289-.0312.0957-.1269-.0938-.2871C315.7422,18.79538,315.5996,18.71628,315.4727,18.77678Zm1.2851,5.3809c0,.0947.0488.1416.1465.1416.1563-.0606.0918-.1416-.1934-.2363C316.4277,24.09518,316.4395,24.12838,316.7578,24.15768Zm.1914-2.8535a.25192.25192,0,0,0,.2852.2842A.25192.25192,0,0,0,316.9492,21.30418Zm.2852.331c0,.1914.0781.3028.2383.333C317.5684,21.77778,317.4883,21.66648,317.2344,21.63518Zm.2851.4297a.18527.18527,0,0,0,.1446.1875C317.6641,22.09518,317.6152,22.03268,317.5195,22.06488Zm.3789,1.711c-.1562.1269-.2832.2392-.3789.3339C317.8379,24.04638,317.9629,23.937,317.8984,23.77588Zm.9082-.6641c-.2871.0312-.4453.1582-.4785.3809A.74351.74351,0,0,0,318.8066,23.11178Zm.379-1.666c.0312.2207.1269.332.2851.332C319.4707,21.55608,319.377,21.44578,319.1856,21.44578Z"/>
        <path class="a" d="M324.418,33.86858l.0937-.4756a1.33734,1.33734,0,0,1,.1914-.8574l.4785-4.9492a1.13422,1.13422,0,0,1,.0957-.668,2.97551,2.97551,0,0,1,.0938-1.0459c.0957-1.0136.2051-2.0644.334-3.1425a3.29083,3.29083,0,0,1,.1894-1.5723,18.87418,18.87418,0,0,0-3.3789,1c-.3808.0312-.7773.0801-1.1933.1455a1.16694,1.16694,0,0,0-.4258.0928.44721.44721,0,0,1-.668-.1436.33679.33679,0,0,1,.3809-.3799,44.95065,44.95065,0,0,0,6.664-5.0918.58651.58651,0,0,1,.4766-.2373l1.5254-1.4785c.1894-.2519.3144-.3789.3789-.3789a7.36113,7.36113,0,0,0,1.7148-1.4287.3209.3209,0,0,1,.4747.1895,8.05974,8.05974,0,0,1,1.6679,2.2402l.7149.7588a1.79052,1.79052,0,0,1-1.5254,1.3828c-.1582.2197-.3184.2676-.4746.1416-.4141.2529-.8262.5078-1.2383.7598q-.14355,1.812-.2852,3.5732a18.48324,18.48324,0,0,0-.4297,2.9502,1.15552,1.15552,0,0,0,.0957.5225,54.509,54.509,0,0,0-.8574,6.4267,11.53583,11.53583,0,0,1-3.0449,1.5713,6.39861,6.39861,0,0,1-1.5234.5713A.626.626,0,0,1,324.418,33.86858Zm10.9961-20.4218.0488-.7608a30.81846,30.81846,0,0,0,1.332-3.1885c.1602-.2871.2071-.4941.1426-.6191a5.3627,5.3627,0,0,0,.5254-1.2383,2.13067,2.13067,0,0,0-.7402-.1211c-.3633-.0137-.5957-.0215-.6895-.0215l-.7129.0479a1.40645,1.40645,0,0,1-.9512-.0479,4.28825,4.28825,0,0,0-.6679-.0498,4.05729,4.05729,0,0,0-1.9512.1924q-.5244,1.56885-.9512,3.2373c-.2558.6026-.5078,1.2061-.7656,1.8086a.69393.69393,0,0,1-.6152,0,2.19757,2.19757,0,0,0-.4766.0459.37666.37666,0,0,1-.5723-.0459.67043.67043,0,0,1-.6191-.1426l.3809-3.7607a3.52244,3.52244,0,0,1,.1914-1.4268l-1.4766-.2881a7.17028,7.17028,0,0,1-1.6641.0958l-.6191-.4756a1.612,1.612,0,0,0,.3809-.2852,1.57731,1.57731,0,0,1,.4765-.0478l2.3301.0478c.6367.0635.9531-.3027.9531-1.0967a1.13663,1.13663,0,0,1,.0957-.664,2.57447,2.57447,0,0,1,.0957-.9541c-.0957-.666.125-1.0459.668-1.1416.4102.0302.8066.0488,1.1875.0488a8.23626,8.23626,0,0,1,1.1914.0928l.7129.0966c.2539.1582.3027.3965.1426.7139a12.37036,12.37036,0,0,1-.5703,3.001l1.9043.0918a3.27328,3.27328,0,0,0,1.0957.0967,4.35354,4.35354,0,0,1,.6172.0488l.2832.0469a3.15645,3.15645,0,0,0,.4785.0713c.1894.0156.3633.0234.5234.0234a1.35858,1.35858,0,0,0,.7149-.0947l1.4257-4.7608a.43224.43224,0,0,1,.3809-.2842l.4785.045c.0313,0,.2383.0322.6172.0966a2.8915,2.8915,0,0,0,.6191.1426l1.4278.333a.63069.63069,0,0,0,.5234.1416,1.53827,1.53827,0,0,1,1.3809.4786,3.24039,3.24039,0,0,1-1.045,1.4267,8.58679,8.58679,0,0,1-1.666,2.334c-.1601.125-.1797.2519-.0507.3809l1.0488-.0499a.82037.82037,0,0,0,.7617-.0957l2.6152.1915a.42555.42555,0,0,0,.4766,0c.4141-.0645.6055.0966.5742.4765a1.84449,1.84449,0,0,1-1,.3799,42.48213,42.48213,0,0,0-5.334-.1416,22.20367,22.20367,0,0,0-2.4258,2.7617,7.90054,7.90054,0,0,1-1.2851,1.4277,4.50076,4.50076,0,0,1-1.5723,1.6172C335.543,13.84518,335.4141,13.76408,335.4141,13.44678Zm-8.9473,8.331.1895-1A1.28268,1.28268,0,0,0,326.4668,21.77778Zm1-.2392a.41536.41536,0,0,0,0-.5225Zm.9023,3.0478c-.0312-.0615-.0468-.0488-.0468.0459C328.418,24.73,328.4336,24.71528,328.3691,24.58638Zm.2383-2.6641c.0645.2207.1114.1729.1426-.1445C328.7188,21.65088,328.6719,21.69868,328.6074,21.92228Zm.1426-.8105v.1924C328.8125,21.49358,328.8125,21.42818,328.75,21.11178Zm.1445-.2861.1895-.7608c-.0645-.2871-.1289-.2558-.1895.0928A.631.631,0,0,0,328.8945,20.82568Zm.668-9.3282-.0977.0459c-.2558.1592-.3183.253-.1894.2842C329.6231,11.73188,329.7188,11.62248,329.5625,11.49748ZM336.127,26.729l-3.8067.9043c-.2871-.0655-.3496-.1924-.1914-.3809q2.0478-1.2378,4.0957-2.6201l-.0976-1.665a.67592.67592,0,0,0-.0938-.5225,16.5734,16.5734,0,0,1-.2383-2.8096,1.22156,1.22156,0,0,1,.5235-1.332,1.14106,1.14106,0,0,1,.5722-.0957,3.95583,3.95583,0,0,1,.6192-.0947l.1914-.0469a7.39377,7.39377,0,0,1,1.2344-.0957l1.6679-.0469a.606.606,0,0,1,.8086.3799,9.91955,9.91955,0,0,0,.5742,2.665,3.958,3.958,0,0,0,1.1875-.9521,2.4461,2.4461,0,0,0,1-.5693,1.05151,1.05151,0,0,1,.4766-.1915,3.00167,3.00167,0,0,1,1.0215-.8808,9.38342,9.38342,0,0,0,1.0722-.6436.94268.94268,0,0,1,.668.0498,10.77573,10.77573,0,0,1,1.7129,3.9024c.0625.2851,0,.4277-.1894.4277-.129-.0957-.2266-.0459-.2872.1416a36.91277,36.91277,0,0,1-5.7128,2.3799,1.3501,1.3501,0,0,0-1,.5254c.0644.5078.1425.9844.2382,1.4297a9.44139,9.44139,0,0,0,.0977,3.2822,23.02268,23.02268,0,0,0,2.6172-.332,1.88941,1.88941,0,0,1,.6211-.0967h.664c.0957.2871.1563.2705.1875-.0469a1.0033,1.0033,0,0,1,.5723-.0957,4.47559,4.47559,0,0,1,.6211-.0947l1.1406-.0469a7.509,7.509,0,0,1,.8086-.0469l1.0488-.1416a2.652,2.652,0,0,1,.2852-1.1933,11.55082,11.55082,0,0,0,.9531-2.9024,4.20445,4.20445,0,0,1,1.4766-2.5224.64521.64521,0,0,1,.7129-.2393l.6191,1.8574a6.42219,6.42219,0,0,0,0,1.0957l.0469,1.5684a.86531.86531,0,0,1-.1426.6201,4.89226,4.89226,0,0,0,.0488,1.1895.49614.49614,0,0,1-.4765.5713q-3.4278.66945-6.9512,1.1416a5.69908,5.69908,0,0,1-1.666.1445,1.41291,1.41291,0,0,1-1.1426.1924,5.0119,5.0119,0,0,0-.6191.0693,3.5848,3.5848,0,0,0-.9043.2617,2.16379,2.16379,0,0,0-.5703-.0937h-.5704a3.54844,3.54844,0,0,0-.621.0469l-.6172.0947a4.74617,4.74617,0,0,1-3.666-.7158l-.5235-2.3799A2.88749,2.88749,0,0,0,336.127,26.729Zm-3.9004-10.708.3808.0449C332.543,15.81388,332.416,15.79438,332.2266,16.021Zm4.9492,3.0898c.1914.1914.2695.1602.2363-.0957C337.3184,18.82658,337.2402,18.85888,337.1758,19.11078Zm.2871,2.7158c-.0957,0-.1445.0323-.1445.0957v1.0928h.1445Zm1.5684,3.3311c-.1582,0-.2364.0488-.2364.1426C338.9551,25.33148,339.0313,25.28458,339.0313,25.15768Zm.2851-5.2344a1.58567,1.58567,0,0,0,.2402.8545l.0489-.5244A.30509.30509,0,0,0,339.3164,19.92328Zm.4297-16.8545a.4042.4042,0,0,0-.0957.2881C339.8106,3.32368,339.8438,3.229,339.7461,3.06878Zm1.4277,18.2823c.2539.0634.3184-.0342.1914-.2862C341.3027,20.87248,341.2383,20.96818,341.1738,21.35108Zm1.7618-16.6133a13.60751,13.60751,0,0,0-1.4278,1.8086c-.2226.2216-.2832.3642-.1914.4257l1.2402-1.5234A1.42679,1.42679,0,0,1,342.9356,4.73778Zm-1.4278,24.8476c.0957.1582.1738.1582.2403,0C341.7773,29.29828,341.6992,29.29828,341.5078,29.58538Zm1.0957-7.4746c-.1601,0-.2383.0469-.2383.1416C342.6504,22.25238,342.7305,22.20748,342.6035,22.11078Zm1.3321,1.6192a.87228.87228,0,0,0-.6192.2851A.77589.77589,0,0,0,343.9356,23.73Zm1.0957-3.6192c-.129,0-.1915.082-.1915.2393Zm.5703,2.0469a2.98725,2.98725,0,0,0-.7618.3799c0,.0644.1602.0195.4766-.1416C345.5684,22.30318,345.6641,22.22208,345.6016,22.15768Zm1.4297-3.665-.5723.2841c-.0645.3203.0488.334.334.0498A1.31242,1.31242,0,0,0,347.0313,18.49268Zm.0937,2.333c.1582.0957.2871-.0157.3828-.333A.39275.39275,0,0,0,347.125,20.82568Zm.4766-1.5235h.0937C347.666,19.04828,347.6328,19.04828,347.6016,19.30218Zm.7148,2.1436c0,.1582.0449.2373.1406.2373C348.457,21.52288,348.4102,21.44578,348.3164,21.44578Zm3.8555,4.0928c-.0957,0-.1406.08-.1406.2373C352.0898,25.90378,352.1406,25.82568,352.1719,25.53858Z"/>
      </g>
      <g>
        <g>
          <path class="a" d="M255.6348,96.518c-.2657-.5488-.1582-.8486.5332-.89841,4.4199-.44919,8.414-2.54689,12.0351-2.69629,2.7168-.10151,5.0606.69729,6.3399,4.1445,1.1172,2.99809.2129,5.8936-1.5996,8.543-2.6621,3.8965-8.4141,7.64259-15.3907,8.8906a5.16451,5.16451,0,0,1-3.3046-.499c-1.4883,2.7471-3.0879,6.0449-4.9512,10.19041-.2129.49909-.4785.49909-.8516.1514-.7461-.75-1.2793-2.25-.4785-4.9472,1.3828-4.545,6.3887-13.9375,11.0234-20.7803A3.95015,3.95015,0,0,1,255.6348,96.518Zm16.6152.9991c-1.1172-2.7471-6.4414-.1494-9.959.79979,0,1.34861-.5332,3.09761-2.0215,5.4951-1.3867,2.2978-2.8789,4.59671-4.4746,7.39351C267.7246,109.10688,273.6895,101.01508,272.25,97.51708Z"/>
          <path class="a" d="M299.8945,125.19087c-3.3027.20211-5.5937-.29879-7.4589-1.89749a4.83654,4.83654,0,0,1-1.7032-3.24611c-2.7676,4.74521-5.7519,10.33991-8.3613,15.93361-.2129.45019-.5859.6006-.8516.1514-.7988-1-1.1191-2.44731-.1074-5.4951,1.0664-3.19731,5.5918-11.63871,9.4277-18.1836a7.54857,7.54857,0,0,1-5.0058,1.29979c-1.1192,4.29591-4.4219,9.4912-8.416,10.68941a6.04016,6.04016,0,0,1-6.709-2.1474c-2.3984-2.8984-1.4922-7.294.8516-11.23931,2.0214-3.39739,5.3261-6.29489,8.5214-6.4961a3.67385,3.67385,0,0,1,3.5664,1.70021c1.2266,1.54789,2.8243,1.79789,2.5567,5.4951a4.13989,4.13989,0,0,1-.1602.7979c3.4102-.04981,6.8184-3.6455,9.6407-7.74221.4785-.64839,1.0117-.54979,1.2792.10061a4.66765,4.66765,0,0,1,.4258,2.2471c2.2891-1.9473,5.5391-3.4961,7.7754-1.14941,2.4512,2.5488,1.3321,6.94431-.6914,10.9902-1.6523,3.29691-3.5156,5.64451-5.4863,6.79491,5.1113-.251,8.3086-3.7978,10.0117-7.1445.3203-.69921.9063-.499,1.0645,0a4.59826,4.59826,0,0,1-.7969,3.2461C307.2969,123.29338,303.6738,124.94278,299.8945,125.19087Zm-21.0371-16.93359a20.40448,20.40448,0,0,0-4.1015,4.74609c-2.2911,3.7461-3.0371,8.39161-1.7051,9.44141,1.4922,1.1982,4.7402-.6494,7.3496-5.1465a22.32724,22.32724,0,0,0,1.9707-4.29491A5.93208,5.93208,0,0,1,278.8574,108.25728Zm4.2051,0c-.2129-1.5977-1.3301-1.3486-1.5977.1514a3.74437,3.74437,0,0,0,1.2774,3.3466A9.48844,9.48844,0,0,0,283.0625,108.25728Zm19.3887-1.6982c-1.334-.49911-4.4219,1.8496-6.9258,5.69529-.5859.94821-1.2773,1.94821-1.9707,2.9961-1.2246,3.04781-1.4902,5.9453-.0527,7.04491,1.7578,1.3476,5.2187-2.2988,7.6699-7.04491C303.2481,111.20548,303.7813,107.05807,302.4512,106.55908Z"/>
          <path class="a" d="M329.2402,113.853c1.3321,3.3467-2.0781,7.09279-4.3144,8.5918a11.36377,11.36377,0,0,1-11.1328,1.04879c-2.3965-1.19819-4.4707-4.2968-4.5801-8.39249-.2129-10.5899,9.2695-19.6319,15.2324-21.78031,2.877-1.04879,5.4863-1.24809,7.1914.15041a9.30111,9.30111,0,0,1,2.8203,3.6455,5.40047,5.40047,0,0,1-.4785,4.3974c-.7969,1.54889-1.5429,3.4961-2.1289,4.9454-.1601.3994-.5332.6992-1.1719.29979-1.2265-.75-2.0781-2.29789-1.2793-4.79589.8536-2.64751,2.7696-5.4952,1.545-6.6934-1.4922-1.5-9.586,2.5478-14.3789,9.9912-4.6875,7.292-4.1543,14.68559-1.545,16.6836,3.4082,2.5977,9.0528-.749,13.1016-8.19141C328.3887,113.20258,328.9727,113.20258,329.2402,113.853Z"/>
          <path class="a" d="M358.4785,124.94278c-4.1015-.2011-5.7519-3.5478-4.4199-7.6445,1.0645-3.3457,4.4199-7.043,6.6582-9.49021a12.78849,12.78849,0,0,1-6.4434,1.94821,8.233,8.233,0,0,1-6.6054,4.0469c-1.0664,4.2461-4.3692,9.3906-8.3086,10.5898a6.01765,6.01765,0,0,1-6.7637-2.14841c-2.2891-2.9473-1.4922-7.293.7988-11.23929,2.0235-3.44721,5.3789-6.2441,8.5762-6.4941,1.5957-.1494,2.4473.3496,3.5645,1.6992,1.2812,1.5469,2.8242,1.84769,2.5586,5.4942,0,.25-.1075.5-.1075.79879a6.02778,6.02778,0,0,0,4.1543-3.09669c-3.9394-1.59861,1.2774-8.1933,3.4082-8.2422,1.8653-.04981.9063,3.5967-.1582,6.2442a14.359,14.359,0,0,0,5.75-2.3985c.6953-.45021,1.1739-.5996,1.5996-.0986.959,1.0488,2.2891,3.39549.6914,5.0947-2.5039,2.6485-5.0605,6.044-6.0175,8.6914-1.0118,2.74809-.3731,4.6963,1.332,4.79589,2.1309.14941,4.8457-3.19719,6.5508-6.84369.2109-.44921.584-.5498.7988-.0996a4.10868,4.10868,0,0,1-.1601,3.247C364.4981,122.79438,361.4082,125.09228,358.4785,124.94278Zm-17.7363-16.6855a18.76406,18.76406,0,0,0-4.0977,4.6963c-2.291,3.79589-3.0371,8.3428-1.6523,9.4912,1.3848,1.1494,4.6855-.6494,7.3496-5.19531a20.29864,20.29864,0,0,0,1.8652-4.09569A6.19149,6.19149,0,0,1,340.7422,108.25728Zm4.209-.0498c-.2129-1.6484-1.3848-1.248-1.5977.2012a3.58792,3.58792,0,0,0,1.3321,3.2959A10.69364,10.69364,0,0,0,344.9512,108.20748Z"/>
          <path class="a" d="M379.9434,104.46138c1.7578.25,3.4082,2.6973,2.0761,5.2949-1.1172,2.1983-3.7265,5.8946-4.9531,8.49219-1.3848,2.89851-1.0664,5.2451.8535,5.14551,2.1817-.1006,4.793-3.3974,6.8164-6.89351.2676-.45019.6407-.45019.9063-.0498.373.5488.2656,1.69721-.4805,3.14641-1.4375,2.7969-4.793,5.3457-7.8828,5.3457-4.5273,0-5.5918-3.0966-4.0449-7.44331,1.7558-4.89549,6.4433-10.19039,5.4824-10.59079-.5293-.2002-3.6211,1.2002-7.0293,4.6963-3.1406,3.19719-5.4844,7.9921-7.7754,12.6875-.2129.4492-.5332.6503-1.0117.20109-1.0645-1-1.3848-2.64739-.5332-5.14649,1.0644-3.14641,5.168-10.0908,8.5215-14.7353.373-.54981.7988-.5,1.1172,0a5.5872,5.5872,0,0,1,.1621,4.7441C374.5625,106.95948,378.1875,104.21238,379.9434,104.46138Z"/>
        </g>
        <g>
          <path class="b" d="M430.7188,54.27978A15.69722,15.69722,0,0,0,418,60.77878a15.731,15.731,0,1,0,0,18.4619,15.72409,15.72409,0,1,0,12.7188-24.9609Zm-26.3028,7.8877c-.0254.2646-.9629,3.6513-2.0293,7.5664-1.0664,3.89159-2.2597,7.9033-2.6894,8.3105a6.37271,6.37271,0,0,1-2.9453.457c-.4844,0-.6368-.0722-.6368-.29a2.4828,2.4828,0,0,1,.2051-.7432c1.9024-4.8037,3.1211-9.0791,4.4414-13.6211a11.37936,11.37936,0,0,0-2.7929,2.9317c-.2032.3115-.3282.4805-.4317.4805-.3301,0-.6601-.2159-.6601-.4317,0-.1445.8125-1.9219,4.3418-4.5176a3.57068,3.57068,0,0,1,2.6152-.791c.5078,0,.6094.0723.6094.3613Zm2.4395,16.3095c-.0254,0-.3555-.1924-.5332-.29a.23363.23363,0,0,1-.1016-.168c0-.0947.0508-.14351.3047-.2871,5.2559-2.7627,6.5234-11.3848,6.5234-12.9951,0-1.3936-.7109-2.3525-1.7519-2.3525-2.2071,0-3.1738,4.3457-3.1738,5.8369,0,1.0791.7128,1.9443,1.3984,1.9443a4.53715,4.53715,0,0,0,1.0137-.21481.3452.3452,0,0,1,.2793.33591,5.12448,5.12448,0,0,1-2.918,1.4648,3.64056,3.64056,0,0,1-3.2734-3.7959c0-3.3623,3.2988-6.4365,6.9023-6.4365,2.7676,0,4.6211,2.1612,4.6211,5.4033C416.1465,74.36957,408.709,78.477,406.8555,78.477Zm15.1054-1.72851c-.2304.791-.3808,1.10351-.6093,1.29591a7.71643,7.71643,0,0,1-3.0196.457c-.4082,0-.5859-.1211-.5859-.3847a7.03041,7.03041,0,0,1,.457-1.6104c.8125-2.25881,2.2598-4.3457,5.1035-7.6865a19.9559,19.9559,0,0,0,2.9688-4.1777,9.47368,9.47368,0,0,1-1.2422.0947c-.6348,0-3.6309-.3359-4.3164-.3359a2.07572,2.07572,0,0,0-2.3359,1.8027,1.77374,1.77374,0,0,1-.6075.1435c-.2031,0-.2812-.0966-.2812-.29a2.2998,2.2998,0,0,1,.1797-.6963l.709-2.1855a2.64139,2.64139,0,0,1,.7129-1.2471,7.44976,7.44976,0,0,1,2.6894-.4092,13.8439,13.8439,0,0,1,2.2852.2168,11.34149,11.34149,0,0,0,2.0566.2139,4.44513,4.44513,0,0,0,1.8535-.336.76674.76674,0,0,1,.2774-.0947.34105.34105,0,0,1,.2793.2871,18.21055,18.21055,0,0,1-1.8028,3.8936A64.592,64.592,0,0,0,421.9609,76.74847ZM432.9805,78.477c-2.7676,0-4.6211-2.1631-4.6211-5.40521,0-7.44539,7.4375-11.55279,9.291-11.55279.0254,0,.3555.1914.5332.2871a.24549.24549,0,0,1,.1016.169c0,.0967-.0508.1426-.3047.29-5.2539,2.7598-6.5235,11.3838-6.5235,12.99419,0,1.39161.711,2.35351,1.75,2.35351,2.211,0,3.1739-4.3487,3.1739-5.8369,0-1.0811-.709-1.9473-1.3946-1.9473a4.581,4.581,0,0,0-1.0175.2168.34468.34468,0,0,1-.2774-.3359,5.13784,5.13784,0,0,1,2.918-1.4639,3.63726,3.63726,0,0,1,3.2754,3.793C439.8848,75.40278,436.584,78.477,432.9805,78.477Z"/>
          <path class="b" d="M215.8867,34.05218a11.05812,11.05812,0,0,1-9.8594,5.9424,11.05848,11.05848,0,0,1,.9981,11.4688,11.06215,11.06215,0,0,1,9.8613-5.9414A11.06056,11.06056,0,0,1,215.8867,34.05218Z"/>
        </g>
        <path class="a" d="M385.9297,71.61857c-5.5156,5.27251-9.541,8.64361-13.9082,8.64361-3.8184,0-6.2168-3.9268-6.2168-10.0342,0-1.9639.2187-4.7998.4375-7.6357,14.5059-15.9239,20.6133-28.5762,20.6133-42.7559,0-5.1269-1.418-8.3984-3.4903-8.3984a3.20789,3.20789,0,0,0-.9824.2177l-13.5234,5.0176c-5.0293,9.3223-15.6817,34.2305-16.5215,53.38769-6.4766,6.47171-8.625,8.45611-11.0703,8.45611-1.9649,0-3.2735-1.6368-3.2735-4.58111,0-3.27239,2.3985-12.21579,3.5997-16.14259l4.6894-15.5976h-2.9453l-10.9063,5.998a9.445,9.445,0,0,0-9.2714-6.1064c-9.1875,0-25.5469,11.4707-27.5977,27.96869-4.3066,4.6963-6.8223,5.6289-8.7207,5.73441a8.79067,8.79067,0,0,1-5.6719-2.5098c3.709-9.9248,5.4532-17.3418,5.4532-24.4316,0-2.9453,0-6.6533-9.7071-6.6533a29.50378,29.50378,0,0,0-29.1816,27.8906c-6.8926,7.1172-11.0801,9.5215-16.2969,9.5215-6.7637,0-11.125-5.4541-11.125-13.8526,0-9.707,5.0156-18.8681,10.3594-18.8681,2.1836,0,3.6015,2.0713,3.6015,5.2344,0,.9814-.6562,4.7988-.6562,5.6718,0,.6553.2187,1.0909.7656,1.0909a4.697,4.697,0,0,0,1.6348-.545l6.2168-2.9453c1.9648-.873,2.6172-1.7461,2.6172-3.709,0-5.6718-4.3633-9.4892-10.6875-9.4892-12.1543,0-24.4981,13.4844-26.0196,27.6474-7.6933,7.3741-8.6953,8.2373-11.2812,8.2373-2.4004,0-3.8184-1.9638-3.8184-4.9091,0-3.16211.8731-5.7793,4.9102-17.2325l4.9062-13.6337-4.7968.2168c-4.9102,8.9453-8.9454,12.5449-15.4903,13.5263,1.6367-4.2539,2.4004-7.5263,2.4004-9.5986,0-2.836-1.3086-4.2539-4.1445-4.2539-8.1797,0-10.4707,10.6904-10.4707,13.417s1.416,4.58,4.5801,5.998a70.37884,70.37884,0,0,1-6.3223,7.9658v-.0029c-6.8711,6.8701-9.0527,8.9434-11.5625,8.9434-1.9649,0-3.2715-1.6368-3.2715-4.58111,0-3.27239,2.3984-12.21579,3.5996-16.14259l4.6895-15.5976H159.127l-10.9063,5.998a9.44509,9.44509,0,0,0-9.2715-6.1064c-9.1914,0-25.5547,11.4756-27.5996,27.97949-5.9629,6.6338-9.8652,9.7588-12.0996,9.7588-1.3086,0-2.3984-1.418-2.3984-2.94539,0-1.30851,1.1992-5.6708,3.0527-10.4697,2.9453-7.8545,4.582-14.0703,4.582-17.0156,0-4.2539-2.4004-7.0898-6.1093-7.0898-3.4903,0-5.4532,1.2001-14.1797,6.2168,10.1445-13.4151,14.289-21.7051,14.289-29.0127,0-4.3633-1.4179-7.8536-3.2715-7.8536-.9824,0-9.0546,2.7276-18.1054,6.4356-11.4551,18.7334-16.8496,34.1045-17.9024,51.8652-7.4687,8.4258-13.4062,11.5059-21.0332,11.5059-13.0879,0-22.3593-10.5811-22.3593-25.4141,0-18.2148,13.0878-40.4658,23.6679-40.4658,4.5821,0,7.5274,3.709,7.5274,9.5986,0,8.3985-5.7813,17.0147-11.5625,17.0147-2.0723,0-3.4903-.9805-4.6895-3.1631a7.90735,7.90735,0,0,0-2.291,5.3457c0,4.4707,3.9258,7.6348,9.4883,7.6348,10.5801,0,19.6328-10.9073,19.6328-23.7784,0-9.9257-7.1992-16.6875-17.4512-16.6875C21.9219,11.54728,0,32.92528,0,60.19278,0,76.98967,11.9961,88.77,29.1211,88.77c16.5215,0,24.9102-7.707,29.8887-12.5615,0,.1523-.0078.30079-.0078.4541A103.69993,103.69993,0,0,0,59.6582,88.77l11.8867-2.7266a117.12763,117.12763,0,0,1,1.8555-23.5605C79.0723,56.15768,85.1816,51.685,88.125,51.685a2.03509,2.03509,0,0,1,2.0723,2.1807c0,1.3105-.8731,4.2559-2.6172,8.1807-3.1641,7.7451-4.9082,13.9609-4.9082,17.998,0,5.126,3.5976,8.7256,8.3984,8.7256,5.457,0,11.8633-4.0029,20.2422-12.5986.9063,7.1855,5.4121,12.4902,11.0566,12.4902,6.2188,0,11.7813-4.3633,19.0879-14.835-.1093,3.2725-.2187,14.835,7.9629,14.835,5.4532,0,10.0352-4.3633,19.1973-12.98051v-.0039c5.3418-5.34179,8.2871-9.04979,10.9043-13.73919a28.56866,28.56866,0,0,0,8.6152-2.836c-5.5625,8.7256-8.0703,15.0518-8.0703,20.1778,0,5.34469,3.3809,9.4902,7.7442,9.4902,4.9863,0,11.0546-3.7783,20.4453-12.9268,1.3164,7.6123,7.457,12.8184,15.6543,12.8184,7.9023,0,14.7343-3.66211,24.1152-12.7803,1.3047,7.8701,6.3984,12.7803,13.5117,12.7803,6.5449,0,12.4336-3.8193,17.5606-11.5625a12.24811,12.24811,0,0,0,7.6347,2.9453,15.32473,15.32473,0,0,0,8.7832-3.956c.8828,7.22849,5.4004,12.5732,11.0664,12.5732,6.2168,0,11.7793-4.3633,19.0879-14.835-.1093,3.2725-.2187,14.835,7.961,14.835,5.3906,0,9.9355-4.2686,18.8828-12.6855,1.0703,7.8476,5.7422,12.6855,12.4179,12.6855,6.1524,0,12.5215-3.4209,22.295-12.23541A15.69014,15.69014,0,0,1,385.9297,71.61857ZM372.8945,33.68888c3.0547-9.8173,6.1075-16.0351,7.8536-16.0351,1.1992,0,2.0722,1.7471,2.0722,4.3652,0,9.2686-6.5449,23.4483-15.1601,32.8301A203.26192,203.26192,0,0,1,372.8945,33.68888ZM74.9258,53.86568a117.45586,117.45586,0,0,1,5.8906-18.7588c4.3652-10.2519,8.7266-17.0156,11.3438-17.0156,1.0918,0,1.7461,1.2002,1.7461,3.1631C93.9063,26.92618,89.4336,36.95948,74.9258,53.86568Zm54.7519,24.7607c-2.9453,0-5.0175-2.6191-5.0175-6.43451,0-8.94439,6.9824-25.74219,14.8339-25.74219,3.0547,0,4.9082,2.3994,4.9082,6.3271C144.4023,61.72018,137.5313,78.62638,129.6777,78.62638Zm141.3496-17.997a21.0347,21.0347,0,0,0,5.0157,13.5244c-3.0547,4.7988-5.5625,6.98049-8.1797,6.98049-4.0352,0-6.4356-4.1446-6.4356-11.34279,0-9.1621,3.4903-24.2149,14.7246-24.2149a5.993,5.993,0,0,1,2.2911.3272C273.207,50.37638,271.0273,54.63028,271.0273,60.62938Zm42.8614,17.997c-2.9453,0-5.0176-2.6191-5.0176-6.43451,0-8.94439,6.9824-25.74219,14.834-25.74219,3.0547,0,4.9082,2.3994,4.9082,6.3271C328.6133,61.72018,321.7422,78.62638,313.8887,78.62638Z"/>
      </g>
    </g>
    <g>
      <path class="a" d="M34.07681,166.91938a14.58568,14.58568,0,0,1-.7417,5.124,2.86593,2.86593,0,0,1-2.94189,1.9292H23.95035q-2.72314,0-2.72364-3.03759V160.77339h-5.936q-.45411,10.19677-11.15674,13.7583l-.89014-1.27491q9.95142-2.82787,10.51026-12.48339H6.2814V145.65376a40.56854,40.56854,0,0,0,10.668-2.37452l.92529,1.187A37.78354,37.78354,0,0,1,7.713,146.78852v5.29h9.23633v1.36182H7.713v5.97119h22.3833v-5.936H20.633v-1.36181h9.46338v-5.7793H20.33658v-1.32666H31.528v15.76563H22.65835v10.33593a1.25028,1.25028,0,0,0,.5586,1.06543,2.0259,2.0259,0,0,0,1.20508.40137h5.814a1.94821,1.94821,0,0,0,2.00781-1.67627,18.21241,18.21241,0,0,0,.43653-4.43457Z"/>
      <path class="a" d="M66.569,172.17475H65.13736v-2.25244H59.70718V173.187H58.27554v-27.3584H66.569Zm-1.43164-15.22461v-9.79492H59.70718v9.79492Zm0,11.645V158.2768H59.70718v10.31836Zm22.854-6.18066h-4.2251v9.95215a1.93688,1.93688,0,0,1-.40136,1.1958,1.9036,1.9036,0,0,1-1.08252.707,15.60511,15.60511,0,0,1-3.00293.1748l-2.40967-.05224-.57617-1.4668q1.92041.12231,3.38721.12207a12.5372,12.5372,0,0,0,2.11279-.11328q.54053-.11352.541-1.07373v-9.4458H68.33218v-1.36182H82.33462v-3.68359h1.43164v3.68359h4.2251Zm-.3667-13.14649H78.84292v5.42969H86.1232v1.292H70.11294v-1.292h7.29834V149.268h-8.7998V147.9062h8.7998v-4.46973h1.43164v4.46973h8.78174Zm-10.71972,20.4795-1.25733.85547a29.90994,29.90994,0,0,0-4.24267-5.90088l1.16992-.85547A28.23992,28.23992,0,0,1,76.90494,169.74751Z"/>
      <path class="a" d="M124.569,148.46479H110.68863v-1.30957h6.51269a31.34877,31.34877,0,0,0-1.57177-3.61426l1.32714-.57617a24.38951,24.38951,0,0,1,1.78077,4.19043H124.569Zm-1.50147,5.27246H112.05044v-1.32666h11.01709Zm-.03515,5.22071H112.0856v-1.32715h10.94678Zm-.17432,14.78808h-1.43164v-2.21728H113.779V174.392h-1.43164V162.81635h10.51074Zm-1.43164-3.52685v-6.09327H113.779v6.09327Zm20.23535-3.64893q0,4.73145-.83789,6.10205-.83862,1.37037-3.19531,1.37061h-8.18848q-2.72388,0-2.72363-2.39209V155.98969h12.01221v-9.65527H125.82583v-1.32666h14.33448v12.2915H128.1481V171.4936q0,1.22241,1.32715,1.22217,7.96143,0,9.11377-.09619,1.15209-.09522,1.39648-2.07764a37.842,37.842,0,0,0,.24463-4.583Z"/>
      <path class="a" d="M167.51919,151.1186a40.93483,40.93483,0,0,1-1.76367,8.5376l-1.34424-.419a38.572,38.572,0,0,0,1.71094-8.2583Zm6.86133,5.65674-1.06494.99512a32.0275,32.0275,0,0,0-2.86328-4.29493V174.392h-1.43164v-30.9209h1.43164v8.29346Q172.79166,154.506,174.38052,156.77534Zm2.18262,10.31836a29.64037,29.64037,0,0,1-3.50928,6.16308l-1.13525-.97754a24.17207,24.17207,0,0,0,3.38721-5.814Zm18.55908-14.36914H173.15835v-1.25684h6.65235a27.6815,27.6815,0,0,0-1.7461-4.0332h-3.998v-1.25684h9.35791a15.453,15.453,0,0,0-1.606-2.18261l1.13477-.78565a24.26118,24.26118,0,0,1,2.18213,2.96826h9.00927v1.25684H190.007a32.02523,32.02523,0,0,1-1.71143,4.0332h6.82666Zm-2.14746,11.62793h-17.564V154.977h17.564Zm-1.43164-5.32471v-2.79346H176.84244v2.79346Zm0,4.06787V160.267H176.84244v2.82861Zm-1.11719,6.30274a10.87548,10.87548,0,0,1-.48047,2.80224,2.03351,2.03351,0,0,1-1.187,1.31836,11.87436,11.87436,0,0,1-3.44824.314l-5.35986-.05225q-1.78125,0-1.78125-2.06006v-5.86621h1.43164v5.90088a.60825.60825,0,0,0,.37549.646,22.38975,22.38975,0,0,0,3.64062.13964,33.66358,33.66358,0,0,0,4.478-.15673q.70752-.15749,1.05615-3.59668ZM188.61,147.43452h-9.0791q1.04809,2.30493,1.6416,4.0332h5.72657Q187.82413,149.54732,188.61,147.43452Zm-1.97314,21.59717-1.09961.92529a22.11987,22.11987,0,0,0-3.40478-3.71875l1.08252-.85547A25.242,25.242,0,0,1,186.63687,169.03169Zm8.69482,2.86328-1.25683.856a30.44527,30.44527,0,0,0-3.352-6.35546l1.13476-.76807A40.351,40.351,0,0,1,195.33169,171.895Z"/>
      <path class="a" d="M255.16519,169.39839h-1.43164v-1.833h-4.6792v2.9331h-1.43164V146.47456h7.54248Zm-1.43164-3.16016v-18.437h-4.6792v18.437Zm23.43018,5.55225H260.96158v2.5664h-1.43164V152.89936a27.43906,27.43906,0,0,1-2.28711,2.82862l-.9253-.99561a33.38078,33.38078,0,0,0,6.52979-11.40088l1.292.38428a43.52064,43.52064,0,0,1-2.70654,6.14551h6.687a28.42984,28.42984,0,0,0-1.90283-5.77881l1.39648-.43653a32.20468,32.20468,0,0,1,2.07764,6.21534h6.89648v1.32714H269.1149v5.49952h7.00146v1.32714H269.1149v5.51709h7.00146v1.30957H269.1149v5.62159h8.04883Zm-9.48047-15.10254v-5.49952h-6.72168v5.49952Zm0,6.84423v-5.51709h-6.72168v5.51709Zm0,6.93116v-5.62159h-6.72168v5.62159Z"/>
      <path class="a" d="M331.00845,158.90522H300.0358V157.561h30.97265Z"/>
      <path class="a" d="M357.42447,165.99409a40.16,40.16,0,0,1-2.46143,8.46777l-1.36181-.646a37.92419,37.92419,0,0,0,2.479-8.13623Zm8.69482-17.4419q-5.08008,9.56763-10.10888,14.29883a77.493,77.493,0,0,0,7.68212-1.86816q-.38379-1.09936-1.15234-2.74072l1.32715-.54151a36.91916,36.91916,0,0,1,2.04248,5.86621l-1.36182.4541q-.17432-.7683-.50634-1.81591-4.19019,1.1704-9.68995,2.28759l-.48877-1.25732a53.96489,53.96489,0,0,0,7.36768-8.939q-3.561.61084-6.6167,1.01221l-.3667-1.32666a42.66133,42.66133,0,0,0,6.23291-10.87744l1.3794.5415a45.30463,45.30463,0,0,1-5.814,10.19629q2.00757-.20947,6.041-.94287a56.96864,56.96864,0,0,0,2.706-5.02832Zm-3.89306,24.66993-1.502.24462a45.14162,45.14162,0,0,0-.96-7.50781l1.3794-.24414A44.82539,44.82539,0,0,1,362.22623,173.22212Zm4.43457-2.584-1.43164.43652a38.68825,38.68825,0,0,0-1.57129-5.55224l1.32666-.41895A44.24818,44.24818,0,0,1,366.6608,170.63813Zm5.22021-9.55029-1.22217.78564a44.35487,44.35487,0,0,0-4.6792-7.28076,31.58341,31.58341,0,0,0,4.26026-7.19287l1.23974.61084a37.01681,37.01681,0,0,1-3.85888,6.54736A62.82408,62.82408,0,0,1,371.881,161.08784Zm12.83252,12.55322H366.08462V172.3144h8.625v-7.8916h-7.54248v-1.32715h16.6211v1.32715h-7.647v7.8916h8.57227Zm-.50635-27.91748H366.22427v-1.32715h17.98291Zm-5.9707,15.22461-1.23975.82031a43.04,43.04,0,0,0-4.43457-7.03613,39.42342,39.42342,0,0,0,4.17237-7.05322l1.25732.57617a34.92685,34.92685,0,0,1-3.82373,6.40723A52.89287,52.89287,0,0,1,378.23648,160.94819Zm6.47705,0-1.187.82031a46.738,46.738,0,0,0-4.6792-7.17578,32.24458,32.24458,0,0,0,4.29492-7.1582l1.25733.61133a36.91437,36.91437,0,0,1-3.82374,6.477A45.43764,45.43764,0,0,1,384.71353,160.94819Z"/>
      <path class="a" d="M419.2482,168.6479a39.65672,39.65672,0,0,1-11.22608,5.60449l-.85546-1.1875a41.94487,41.94487,0,0,0,11.05175-5.395Zm19.10058-3.36963H407.20132v-1.32715h3.14258V147.5395h7.62988v-4.103h1.43164v4.103h6.25049v-4.103h1.43164v4.103h7.752v16.41162h3.50927Zm-20.375-9.62012v-6.792h-6.19824v6.792Zm0,8.293v-6.96631h-6.19824v6.96631Zm7.68213-8.293v-6.792h-6.25049v6.792Zm0,8.293v-6.96631h-6.25049v6.96631Zm12.15186,9.166-1.03027,1.16992a50.72877,50.72877,0,0,0-10.84229-5.53467l.87305-1.11719A55.37693,55.37693,0,0,1,437.80777,173.11714Zm-4.3999-17.459v-6.792h-6.32032v6.792Zm0,8.293v-6.96631h-6.32032v6.96631Z"/>
    </g>
  </g>
</svg>
