<svg xmlns="http://www.w3.org/2000/svg" viewBox="0 0 446.4492 136.40317">
  <defs>
    <style>
      .a {
        fill: #e50012;
      }
    </style>
  </defs>
  <g>
    <g>
      <path d="M109.4141,32.91748a10.72736,10.72736,0,0,1,.9531-1.9034,22.86374,22.86374,0,0,1,2.1426-3.6191.55883.55883,0,0,1,.4785-.52251.75605.75605,0,0,1,.332.8565,24.8971,24.8971,0,0,1-.1914,3.09371,15.248,15.248,0,0,1-.2383,2.71189.68982.68982,0,0,1-.2383.71681.55739.55739,0,0,1-.6191,0,11.68852,11.68852,0,0,0-2-.9072A.73657.73657,0,0,1,109.4141,32.91748Zm1.8574-7.711c0-.0635.0176-.09571.0508-.09571a2.15123,2.15123,0,0,1,1.666-.38079,6.19239,6.19239,0,0,1,.8066-.04891l2.0469-.09469a3.09346,3.09346,0,0,0,.5254-.0488,3.5474,3.5474,0,0,1,.5215-.04691l1.4297-.1436a12.4672,12.4672,0,0,1,.1894-2.13959,12.048,12.048,0,0,0,.2383-1.8574.46215.46215,0,0,0-.0938-.61921,4.23088,4.23088,0,0,1-.4785-.0449h-.4765c-.0938,0-.2852-.0195-.5703-.05079h-1.7149c-.2519.03129-.4258.05079-.5215.05079-.3808-.34959-.3183-.65229.1914-.90919.6328,0,1.2422-.0127,1.8321-.0468a17.87643,17.87643,0,0,1,1.832,0l.0957-.66411a3.90383,3.90383,0,0,1,0-1.71479.84012.84012,0,0,0-1.0488-.04591,3.3663,3.3663,0,0,1-1.3789.1884c-.1895.03131-.3887.0557-.5957.07031-.2051.0176-.4219.0245-.6426.0245l-.5235.0468a1.68662,1.68662,0,0,1-1.0468.23829,1.93607,1.93607,0,0,1-.5235-.04589.6549.6549,0,0,1-.4765-.8066q-.09675-5.6235.0976-11.2373a.77943.77943,0,0,0,.2852-.42781,9.07479,9.07479,0,0,1,2.6152-.57319,7.81028,7.81028,0,0,1,1.5235-.1416,14.35248,14.35248,0,0,0,1.5253-.1914,2,2,0,0,1,.4747-.0469,2.92421,2.92421,0,0,0,.4765-.04591l.4746-.09669a2.04618,2.04618,0,0,1,.4766-.0468,9.97054,9.97054,0,0,0,3.1894-.42881,3.50344,3.50344,0,0,1,.5254-.0966l.4278-.04589a10.50009,10.50009,0,0,0,2-.09571,7.83213,7.83213,0,0,1,1.0234-.1192c.3301-.0166.5938-.02439.7832-.02439.6367-.0625,1.2539-.1103,1.8555-.1416a1.791,1.791,0,0,1,.5742-.09671,2.81586,2.81586,0,0,0,.666-.09569,1.58785,1.58785,0,0,1,.5703-.164c.1895-.0186.3965-.0245.6192-.0245h.334a.63476.63476,0,0,0,.7617-.14161l1.666.14161a2.6676,2.6676,0,0,1,.1894,1.23829,4.6726,4.6726,0,0,0-.0957.90341,13.222,13.222,0,0,0-.4746,2.28509q-.3837,1.4751-.7148,3.0449a4.3834,4.3834,0,0,1-.2383,1.1465,9.20809,9.20809,0,0,1-.5723,2.2334,1.47592,1.47592,0,0,0-.0918,1.04791l-.8593.4287a1.41249,1.41249,0,0,0-.7129.09669.92052.92052,0,0,1-.5703.09571c-.8594.15719-1.7325.3017-2.6192.4267l-3.7617.7627a.71131.71131,0,0,0-.5723.14259,12.9841,12.9841,0,0,0-.1875,2.1904.85831.85831,0,0,0,.1875.80671l3.7149-.0948a1.401,1.401,0,0,1,.9512.1416.45442.45442,0,0,1,.0957.7657,1.26026,1.26026,0,0,1-.9512.18839,11.19822,11.19822,0,0,1-2.332.1416,1.80985,1.80985,0,0,0-1.2852,0c-.4141.0332-.5566.336-.4316.90531q-.1377,1.2861-.1895,2.5733c.0645.4101.3496.50679.8574.2841a1.76969,1.76969,0,0,1,.5703-.0976l1.334-.09181a6.59587,6.59587,0,0,0,.8086-.04979,3.22133,3.22133,0,0,0,.9531-.14261,7.62893,7.62893,0,0,1,.8575-.04589,3.45312,3.45312,0,0,0,1.6191-.1924,4.75862,4.75862,0,0,1,.6152-.0478q.85845-.047,1.67-.14161a.424.424,0,0,1,.4257.18941c.2832.41209.2051.7149-.2382.90329a3.47075,3.47075,0,0,1-.5704.0498,34.85165,34.85165,0,0,0-3.998.5225,3.08159,3.08159,0,0,0-1.9043.23931,3.4306,3.4306,0,0,1-.5723.0468,1.36843,1.36843,0,0,0-.7148.09569,4.12226,4.12226,0,0,1-.5234.07131c-.1895.0176-.3555.0254-.4981.0254a1.12585,1.12585,0,0,1-.3555-.04981,2.20468,2.20468,0,0,0-1.4765.334,16.9192,16.9192,0,0,0-4,.1924.48978.48978,0,0,1-.4278.3799,2.214,2.214,0,0,1-.4277-.334l-1.3809.1885c-.2851.03121-.4472.0507-.4765.0507l-1.9531.0948a2.01717,2.01717,0,0,1-.4746.0468l-1,.0957a.86278.86278,0,0,0-.6192.1416C111.5273,26.27,111.2402,25.96817,111.2715,25.20648Zm1.0957,5.04589a1.05671,1.05671,0,0,0-.1914.4268C112.3359,30.64988,112.4004,30.50437,112.3672,30.25237Zm.6211-17.7588.1406.90631a3.3512,3.3512,0,0,0,0-1.3799A.50278.50278,0,0,0,112.9883,12.49357Zm.1855-2.5683a.67387.67387,0,0,0-.0449.334Zm.1465,6.09571c0,.03119.0606.09179.1895.1865C113.541,16.05217,113.4785,15.98677,113.3203,16.021Zm.9024-.71681a.12486.12486,0,0,0-.1407.14351C114.4297,15.479,114.4766,15.43207,114.2227,15.30417Zm.4785-5.23639.0937,1.1426a1.70659,1.70659,0,0,0,.1914-.85741C115.0176,10.13128,114.9219,10.03457,114.7012,10.06778Zm.8535.7149c.0976,0,.1289-.207.0976-.61821A1.02457,1.02457,0,0,0,115.5547,10.78268Zm.4297,4.8535a18.99566,18.99566,0,0,0,2.7617-.2861,3.01,3.01,0,0,0,.332-1.9502q.1905-1.38136.334-2.7598c-.0957,0-.1426.12309-.1426.3809l-1.1425,1.85449q-.9054.38222-1.045-.85549a17.5438,17.5438,0,0,0-.9062-1.52151.26767.26767,0,0,0-.1426.33011Q116.08015,13.25723,115.9844,15.63618Zm.1426-7.1875q.7617.33538,1.4765.7149.85545.5229,1.8086,1.00089.09675-1.8588.3809-3.76169a6.72453,6.72453,0,0,1,.1211-1.2637c.0781-.4267-.0118-.70411-.2637-.833a3.45262,3.45262,0,0,0-.9531.0498c-.0918,0-.293.0078-.5938.02051a1.04959,1.04959,0,0,0-.5488.12109,1.639,1.639,0,0,0-1.2832.2403,5.51507,5.51507,0,0,1-.1914,1.7617q0,.56835-.0469,1.06931A1.95747,1.95747,0,0,0,116.127,8.44868Zm2.6191,24.18459a7.35483,7.35483,0,0,0-.1914-2.6201,3.67794,3.67794,0,0,1,.1914-2.1875,6.05084,6.05084,0,0,1,1.1445-.1924.45271.45271,0,0,1,.6172.2373,15.48122,15.48122,0,0,1,1.2852,3.09671.80465.80465,0,0,1-.0469.9502,10.28173,10.28173,0,0,1-2.7617,1.0459C118.7949,32.96338,118.7148,32.853,118.7461,32.63327Zm.1895-10.04589a1.99049,1.99049,0,0,0,.0976-.8574A1.284,1.284,0,0,0,118.9356,22.58738Zm.3339.9502a.27157.27157,0,0,0,.1426.2383C119.4766,23.45848,119.4258,23.38028,119.2695,23.53758Zm.8086-14.23241c-.0644.0644-.0937.1113-.0937.14251C119.9531,9.67137,119.9844,9.62247,120.0781,9.30517Zm0-.5694a.66576.66576,0,0,0-.0468.28421C120.1563,9.08538,120.1738,8.98967,120.0781,8.73577Zm.0957,9.8057c0,.18851.0625.22261.1914.09371C120.3027,18.38028,120.2363,18.35108,120.1738,18.54147Zm.0489-.37989c.1582.06149.205-.03321.1425-.28811C120.2363,17.71628,120.1895,17.812,120.2227,18.16158Zm.7617,4.14159.0469.47271a1.78956,1.78956,0,0,0,.1425-.9493C121.0137,21.73,120.9512,21.88817,120.9844,22.30317Zm.0918-13.9971a.71635.71635,0,0,0,.1445.4297C121.3809,8.44868,121.334,8.30607,121.0762,8.30607Zm.2871-3.1884q.2373.23731.1445-.3799C121.3809,4.80027,121.334,4.92617,121.3633,5.11767Zm.668,18.8505a.523.523,0,0,0,.4765-.1425.72665.72665,0,0,0-.2871-.23829C122.0313,23.68307,121.9668,23.80807,122.0313,23.96817Zm.2851-16.56639c-.0957,0-.1426.03129-.1426.09569L122.127,9.352A4.08225,4.08225,0,0,0,122.3164,7.40178Zm.2383,5.3799V12.686C122.6191,12.52588,122.6191,12.55907,122.5547,12.78168Zm.2383-1.3818a1.16068,1.16068,0,0,0-.1934.90619A1.23742,1.23742,0,0,0,122.793,11.39988Zm.4765-7.4248.0938.6172c0,.1591.0312.1123.0937-.14161C123.5547,4.10108,123.4902,3.94278,123.2695,3.97508Zm.0489,5.33009c.0605.1269.125-.0635.1894-.5694A.62376.62376,0,0,0,123.3184,9.30517Zm.0449,2.6191a.22527.22527,0,0,0-.0235.1894C123.3555,12.20848,123.3633,12.146,123.3633,11.92427Zm0-6.47559.1445-.4726C123.3477,5.00728,123.3008,5.16447,123.3633,5.44868Zm1.0937,8.9522a.94584.94584,0,0,0,.7149,0,30.20365,30.20365,0,0,0,3.3808-.668,3.83123,3.83123,0,0,1,.2852-1.4268q.2373-1.61865.5723-3.28609a.76932.76932,0,0,0-.67.47749c-.0918-.09659-.2187-.0654-.3789.09181a17.53931,17.53931,0,0,1-2.8554,1.5733c-.1582.25289-.3985.3027-.7149.14259A20.12118,20.12118,0,0,0,124.457,14.40088Zm1.2852,17.9931.0508-.28611a3.12852,3.12852,0,0,1-.5254-1.4746,8.7136,8.7136,0,0,1-.4766-1.7617,1.55854,1.55854,0,0,1,1.334-.95409.82184.82184,0,0,1,.6172.0498,11.67231,11.67231,0,0,1,1.4766,1.90229,6.24959,6.24959,0,0,1,.7148,1.6201,5.94845,5.94845,0,0,1-2.5234,1.7608Q125.7421,33.20354,125.7422,32.394Zm-.8555-21.85061c.0313.2198.0801.27051.1426.1436C125,10.40088,124.9492,10.353,124.8867,10.54337Zm.1426-1.0459a3.47837,3.47837,0,0,1-.0488.667q1.0956-1.47645,2.0488-3.00089a.73353.73353,0,0,1,.6191-.47561,6.93484,6.93484,0,0,1,1.7618,1.56931l.8086-4.8545c-.0977-.28421-.3809-.334-.8575-.1426a2.64873,2.64873,0,0,1-.8574.1426l-.1894-.04591c-.0313,0-.1914.0137-.4766.04591-.2852.03129-.4453.0469-.4766.0469l-.8535.1914a1.81888,1.81888,0,0,0-.9082.1416l-.2383,3.0478A11.02231,11.02231,0,0,0,125.0293,9.49747Zm2.5703-.04979a.2705.2705,0,0,0-.1894.04979C127.3457,9.74947,127.4102,9.73287,127.5996,9.44768Zm2.2852-1.0449a.08518.08518,0,0,0,.0957-.09671C129.9141,8.11667,129.8848,8.14988,129.8848,8.40278Zm1.5254-5.1426c.0605-.03121.0918-.1289.0918-.2841C131.4102,3.00728,131.3789,3.10008,131.4102,3.26018Zm.3808,2.0948a2.92721,2.92721,0,0,0-.2383,1.14449l.2383-.66989C131.9492,5.60977,131.9492,5.44868,131.791,5.355Zm0,22.80069a.4503.4503,0,0,1,.1406-.4267,3.423,3.423,0,0,1,.7618.0967q1.5702,1.37685,2.9511,2.8535a1.38448,1.38448,0,0,1,.5723.71481,13.765,13.765,0,0,1-2.1426,2.3799.94775.94775,0,0,1-.7597-.23931q-.5274-1.998-1.1446-3.997A9.44324,9.44324,0,0,1,131.791,28.15567Zm.3301-16.4707c-.125,0-.1895.07911-.1895.2393C132.1211,11.92427,132.1856,11.84418,132.1211,11.685Zm.6211-8.61619.1894-.14261C132.8691,2.80117,132.8047,2.84707,132.7422,3.06878Zm.3809,3.7617a1.91333,1.91333,0,0,0-.2383.9512Zm.2363-1.1904a.861.861,0,0,0-.0957.5713C133.4551,5.98967,133.4883,5.80027,133.3594,5.64008Z"/>
      <path d="M140.334,30.53758a.60175.60175,0,0,0,.1894-.62111,3.50261,3.50261,0,0,1,.2852-1.8067,7.51914,7.51914,0,0,1,.4297-1.8564,1.19451,1.19451,0,0,1,.1426-.6201,49.54516,49.54516,0,0,1,1.1425-6.80669,4.58123,4.58123,0,0,0-.9531.9512,38.23716,38.23716,0,0,1-3.2363,2.71389,1.06623,1.06623,0,0,1-.2852.28421.921.921,0,0,1-.5722.3828.59589.59589,0,0,1-.5235.28709,4.63392,4.63392,0,0,1,1.0489-2.1416A80.64079,80.64079,0,0,0,142,13.20848h-.0957a7.31721,7.31721,0,0,0-1.1895.09569,8.67136,8.67136,0,0,1-1.1679.1172,3.19294,3.19294,0,0,1-1.166-.16409c-.2246-.19141-.1739-.3652.1425-.52541a1.9212,1.9212,0,0,1,.5723-.14159,6.89958,6.89958,0,0,0,1.6191-.09671,8.34312,8.34312,0,0,1,.8555-.04589,7.9359,7.9359,0,0,0,1.9512-.2392l.7168-3.711c.1582-1.11029.2656-2.23729.3301-3.3798a1.40084,1.40084,0,0,1,.1933-.71489c.9492-.2539,1.9356-.4912,2.9492-.71481q.33405-.09375.334,0a3.00444,3.00444,0,0,0,.4766-.04689,3.21724,3.21724,0,0,1,.5254-.0459c.0937,0,.1387.0459.1387.14159q-.33405,4.09427-1,8.1406c.3183.0322.4296-.1455.3359-.5254q1.33-2.28659,2.7617-4.56829a3.23769,3.23769,0,0,1,.8066-1.1436,7.48193,7.48193,0,0,1,1.9532,1.90529.39037.39037,0,0,0,.332.3799.76361.76361,0,0,1,.1914.6181l-4.7129,3.09571h.9043c.125,0,.2852-.0078.4746-.02441a2.77428,2.77428,0,0,0,.4785-.0713l1.3321-.0966c.5058.1601.5566.415.1445.76171a.67141.67141,0,0,1-.8594.05079c-.0625,0-.2851.02241-.664.07031-.3809.0468-.6055.0713-.668.0713l-.9043.0468a7.07072,7.07072,0,0,1-.7617.04589l-1.1895.14651-1.1914,6.3291a2.52836,2.52836,0,0,1,.9043.3809,33.76193,33.76193,0,0,1,3.4297,2.90229.74473.74473,0,0,1,.2832.4307q-.9522,1.2393-1.8555,2.5703-.2841.5229-.6191.52251c-.2227,0-.4141-.15731-.5703-.47561a10.0192,10.0192,0,0,0-2-2.52439,12.576,12.576,0,0,0-.5723,2.66989q-.37785,2.2836-.8086,4.52151l-.7597.332a3.77713,3.77713,0,0,1-.6192.0478.85918.85918,0,0,0-.6211.04791c-.6035.22359-1.2031.4434-1.8105.665a.81325.81325,0,0,1-.5703.14261C140.4121,31.14108,140.2676,30.91748,140.334,30.53758Zm-.4317-24.375a4.45745,4.45745,0,0,1,.0723-.66411.46085.46085,0,0,1,.502-.43069h.1425a16.46326,16.46326,0,0,0,2.8067,2.0958c.1914.0966.2207.26949.0957.52339a10.29455,10.29455,0,0,1-2.8067,2.2851,1.66937,1.66937,0,0,1-.5722-1.71479A9.31447,9.31447,0,0,1,139.9023,6.16258Zm1.9063,19.70989.0508.1885a10.47057,10.47057,0,0,0,.1855-1.998Zm1.2852,1.8077a.70888.70888,0,0,0-.1915.52441c-.0957.28509-.0625.414.0958.3799A2.15291,2.15291,0,0,0,143.0938,27.68017Zm1.1445.23731-.336.4775C144.125,28.36277,144.2383,28.20458,144.2383,27.91748Zm-.1914-6.61331.2363-1.3809a1.86448,1.86448,0,0,1,.0977-.85939.55477.55477,0,0,0-.0977-.4765A8.58411,8.58411,0,0,0,144.0469,21.30417Zm.1406-6.76169c.1289.0966.1934-.0166.1934-.334C144.2188,14.11367,144.1563,14.22608,144.1875,14.54248Zm.2383-1.47661-.1426.90531A1.1718,1.1718,0,0,0,144.4258,13.06587Zm.9551-2.7598-.1914,1.333A2.40316,2.40316,0,0,0,145.3809,10.30607Zm-.1914,9.66411c.0957.0625.1582-.0801.1914-.4277C145.3164,19.44677,145.252,19.58838,145.1895,19.97018Zm.3339-11.23441.0957.09181a3.99046,3.99046,0,0,0,.0918-1.52151A5.33975,5.33975,0,0,1,145.5234,8.73577Zm.0957.3311c-.0644,0-.0957.081-.0957.2383C145.584,9.46528,145.6191,9.38427,145.6191,9.06687Zm.3301,5.47561a.12661.12661,0,0,0,.1426.14349,6.71068,6.71068,0,0,0,.334-1.8105c-.1602.03321-.2383.1601-.2383.38181A6.46053,6.46053,0,0,0,145.9492,14.54248Zm.334,5.8525-.0957.33589C146.1875,20.82567,146.2188,20.71628,146.2832,20.395Zm.0469-10.042c.0644.126.1094.04791.1426-.2383C146.3789,10.11467,146.3301,10.19378,146.3301,10.353Zm.1426,9.0938a.38787.38787,0,0,0-.0938.2841C146.4727,19.79337,146.5059,19.69868,146.4727,19.44677Zm.2871-11.0928a11.18588,11.18588,0,0,0-.2871,1.47361c.0644.03419.1269-.1074.1914-.4267A2.006,2.006,0,0,0,146.7598,8.354Zm-.1914,10.5195a.53159.53159,0,0,0-.0469.2373C146.5859,19.17527,146.5996,19.09707,146.5684,18.87347Zm0-12.28219a.26668.26668,0,0,0,.0488-.1885C146.5859,6.24167,146.5684,6.30707,146.5684,6.59128Zm.1425,14.47359c.2227-.03319.2383-.1435.0489-.334Zm.0489-4.71379c.1269,0,.1582-.1573.0918-.47761Zm.33-11.045c-.0292-.03019-.0449,0-.0449.09571C147.1406,5.62547,147.1543,5.59317,147.0898,5.30607Zm1,2.8106c-.123,0-.1855.0801-.1855.2373C148.0273,8.48087,148.0898,8.40278,148.0898,8.11667Zm.4317-3.71389a1.65307,1.65307,0,0,0-.0977.999,1.02835,1.02835,0,0,0,.1446-.3808A.768.768,0,0,0,148.5215,4.40278Zm.0937,25.3721a.6432.6432,0,0,1,.3829-.6182l2.3789-4.1406,1.4296-3.001a8.12573,8.12573,0,0,0,1.045-2.6172,81.06034,81.06034,0,0,0,4.3789-11.51951c.6679,0,1.3261-.0176,1.9765-.04879.6504-.02931,1.3086-.0479,1.9746-.0479a3.35214,3.35214,0,0,1,1.2364.14359,26.383,26.383,0,0,1,2.7168.04591c.3144,0,.664-.0137,1.0449-.04591l1.9043.04591a8.12733,8.12733,0,0,1,1.7598.0966h3.4316l.4258.1895c.1914.31839.1269.5254-.1895.62109a3.90763,3.90763,0,0,0-1.1894.09281c-.1602,0-.3321-.0069-.5254-.0225a3.26046,3.26046,0,0,1-.4766-.07031.74906.74906,0,0,1-.1875-.05079,18.21806,18.21806,0,0,1-3.5234-.14161c-.3809-.03219-.6055-.04489-.666-.04489h-.7129c-.3203.03119-.5098.04489-.5723.04489l-.5234-.04489a5.795,5.795,0,0,1-1.4766-.09771,4.37382,4.37382,0,0,0-.666.04791,4.16369,4.16369,0,0,1-.666.0498,2.83859,2.83859,0,0,1-.5-.0498,3.31561,3.31561,0,0,0-.5489-.04791h-.1425l-.5254,1.7627q-1.28325,3.28125-2.5215,6.66311-1.09275,2.19-2.332,4.1885a16.55117,16.55117,0,0,1-1.9512,2.81049,19.67966,19.67966,0,0,1-5.4746,5.9483.72777.72777,0,0,1-.4531.1435C148.7031,30.06,148.6152,29.96728,148.6152,29.77488Zm.9532-8.1397c0,.0635.0449.0948.1425.0948C149.9629,21.69868,149.918,21.66647,149.5684,21.63518Zm1.1406,6.2823-.4258.52439.3301-.19049C150.8047,28.06,150.8379,27.95158,150.709,27.91748Zm4.1914-6.7598a2.05152,2.05152,0,0,0-.8106,1.09469A2.82553,2.82553,0,0,0,154.9004,21.15768Zm.998-2.3809-.7617,1.47659a1.821,1.821,0,0,0-.1894.8115l1-2.3799Zm.2383-3.1865a4.12934,4.12934,0,0,1-.4277.8809,1.86832,1.86832,0,0,0-.2852,1.02149,4.87416,4.87416,0,0,0,.6641-1.4268A.8665.8665,0,0,0,156.1367,15.59028Zm.8574,1.09469a4.03737,4.03737,0,0,0-.9062,1.6182c.1269.09471.207-.0176.2383-.333A4.50082,4.50082,0,0,0,156.9941,16.685Zm1.7149,17.042a.72053.72053,0,0,1,.0957-.71479q.7119-2.75837,1.2363-5.57131a3.32027,3.32027,0,0,0,.2871-1.0928,5.00791,5.00791,0,0,1,3.3789-.76069l.1426-3.61921h-.5234c-.2871.0323-.4453.04691-.4766.04691l-.2851-.09281a6.43046,6.43046,0,0,1-1.6192.1885.48844.48844,0,0,0-.4746-.0459.43.43,0,0,1-.3809-.1426c.0313-.3183.2657-.5078.7129-.57119a3.88027,3.88027,0,0,0,.4746-.04691,3.74241,3.74241,0,0,1,.4766-.0498l.3809.0498a10.48436,10.48436,0,0,0,1.7148-.0498l.0469-3q-1.8105.09811-3.6192.14351l-.1406-.28511c0-.22169.0625-.3633.1914-.4278a5.31637,5.31637,0,0,1,1.711-.28709c.5722,0,1.1601-.01361,1.7617-.0468a1.16833,1.16833,0,0,0,.2383-1.1885c-.1289-.09671-.1426-.1612-.0469-.1914a2.9224,2.9224,0,0,1,0-.7627l.0469-.7608a.912.912,0,0,0-.8086,0,3.03092,3.03092,0,0,1-.4766.04589,2.02981,2.02981,0,0,0-.4766.04891,1.49044,1.49044,0,0,0-.7617-.0948c-.2519-.44531-.1093-.77541.4297-1.00091a4.7831,4.7831,0,0,1,1.0938-.09569,1.90611,1.90611,0,0,0,1-.1885l.0488-.5225a3.1888,3.1888,0,0,1,.1426-1.8115.56888.56888,0,0,1,.2383-.7608,1.942,1.942,0,0,1,.6191-.09571c0,.0323.0293.04791.0918.04791a3.59744,3.59744,0,0,1,1.668.1914,1.9905,1.9905,0,0,1,1.7617.52249,6.779,6.779,0,0,0,.0937,1.9521,5.65326,5.65326,0,0,0,1.4766-.09569,6.10905,6.10905,0,0,1,.9531-.04691,6.01259,6.01259,0,0,1,.9492.04691.73826.73826,0,0,1,.5235-.1426l.8125.1426a2.05113,2.05113,0,0,1,.3808,1.334,7.35779,7.35779,0,0,0-.2382,1.3799,2.00328,2.00328,0,0,1-.0977.90331c-.0293.28609.0644.41309.2871.3809a5.922,5.922,0,0,1,1.334-.14261h.4746c.2871.2549.2539.542-.0957.8574l-2.1406.09471a3.10359,3.10359,0,0,1-.1914,1.3321,5.71,5.71,0,0,1-.4278,2.4277c-.2871,0-.5254.0098-.7129.02539a4.17479,4.17479,0,0,0-.6679.1211,22.04874,22.04874,0,0,1-2.5235.23441c-.2519.06539-.3632.288-.332.6689a9.36806,9.36806,0,0,0,0,2.665c.0293.2549.1895.334.4727.2383.0351,0,.1933-.01459.4785-.04689a3.57237,3.57237,0,0,1,.4765-.0478l.2383-.0469a14.49246,14.49246,0,0,0,2-.04981c.8574.0625,1.2207.6358,1.0938,1.71291L172.2754,31.06a7.00161,7.00161,0,0,0-.1426,1.8106,2.64773,2.64773,0,0,0-.3594.4512.59337.59337,0,0,1-.5449.25971l-.3847-.04691a.75321.75321,0,0,1-.4727-.14159.90448.90448,0,0,1-.7617.14159,6.10467,6.10467,0,0,1-.7149.04691,2.79558,2.79558,0,0,0-.666.09669.51091.51091,0,0,0-.4746.0488,25.845,25.845,0,0,0-5.4277.3799.39137.39137,0,0,0-.4297.04981,10.08674,10.08674,0,0,0-1.0449.0459c-.3809.03029-.7305.0488-1.0489.0488A1.56746,1.56746,0,0,1,158.709,33.727Zm1.2363-20.6611-.5234,1.09771c-.0332.25189.0625.15819.2851-.2872A1.11984,1.11984,0,0,0,159.9453,13.06587Zm-.0488-4.3799c-.0938,0-.1445.0645-.1445.1924C159.9141,8.81388,159.9609,8.75047,159.8965,8.686Zm.5742,3.2383a3.74284,3.74284,0,0,0-.4297,1.04591Zm.4746-3.3809c-.0937,0-.1426.0323-.1426.09771C160.832,8.86077,160.8809,8.82758,160.9453,8.54337Zm.3809,19.708-.2871,1.47659a2.2426,2.2426,0,0,0,.2382-.668A1.04118,1.04118,0,0,0,161.3262,28.25138Zm.2832-1.28321.1894.0928C161.8652,26.80807,161.7988,26.77678,161.6094,26.96817Zm.5722,6.3291.7129.04691c.543,0,1.0645-.0156,1.5743-.04691l1.9492-.1884c.2539-.0655.3496-.2559.289-.5733a21.09645,21.09645,0,0,0,1.0469-3.95109,6.5742,6.5742,0,0,0,.3301-1.712c.1914-.47749.207-.74609.0488-.8115a2.16864,2.16864,0,0,0-.666.09571,5.20934,5.20934,0,0,1-2,.19139,3.10043,3.10043,0,0,0-1.0488.18951.84512.84512,0,0,0-.6172.19139q-.75885,2.61766-1.332,5.28321a1.366,1.366,0,0,0-.1661.71579A.95952.95952,0,0,1,162.1816,33.29727Zm.3829-32.22849a.85811.85811,0,0,1,.3808-.997,1.30677,1.30677,0,0,1,.8555,0c.3808.1572.8105.31731,1.2871.4736a1.46732,1.46732,0,0,0,.9492.71581,4.91992,4.91992,0,0,1,1.3809.90329q.38085.955-.711,1.5723a23.5021,23.5021,0,0,1-2.4765,2.1406c-.1914-.0605-.2559-.2051-.1914-.42869Q163.418,4.12012,162.8945,2.688A3.03774,3.03774,0,0,1,162.5645,1.06878Zm2.6152,14.043c.1601.03321.207-.1885.1465-.66409C165.1973,14.479,165.1484,14.70258,165.1797,15.11177Zm.0508-2.66409a.56863.56863,0,0,0,.0957.334C165.3535,12.59028,165.3262,12.479,165.2305,12.44768Zm.0449,12.47169c-.0293.15821.0176.2549.1426.28711C165.5801,25.01608,165.5293,24.91937,165.2754,24.91937Zm.0977-13.4219c0-.0634.0937-.09759.2851-.09759C165.4981,11.24167,165.4043,11.27288,165.3731,11.49747Zm0,13.13481c0,.1299.0449.1924.1406.1924V23.68307a.19434.19434,0,0,1-.0469.1426A1.74091,1.74091,0,0,1,165.3731,24.63228Zm2.3808-2.2822c.0313.0947.0469.01659.0469-.23931C167.8008,21.92227,167.7852,22.00047,167.7539,22.35008Zm.0938-6.7598c.125.09669.1718-.081.1445-.52541C167.8633,15.00337,167.8164,15.17717,167.8477,15.59028Zm.2851,14.1846.1426-.47661C168.0195,29.36277,167.9727,29.522,168.1328,29.77488Zm.1895-.9522a.55216.55216,0,0,0-.0938.3809Q168.3692,29.15812,168.3223,28.82268Zm.0508-.14161a1.00379,1.00379,0,0,0,.1875-.5713C168.3731,28.20458,168.3086,28.395,168.3731,28.68107Zm.0449-7.9502c.0332.1905.1426.2373.3359.1416a2.12778,2.12778,0,0,0,.9024-.09469,24.52485,24.52485,0,0,0,.3808-3.04691,2.121,2.121,0,0,0-1.5215,0l-.0976.7618A8.5901,8.5901,0,0,1,168.418,20.73087Zm1.2851-6.90329-.9492.23829-.2871,2.90331a3.87354,3.87354,0,0,0,.4277-.04691,6.92951,6.92951,0,0,1,1.1426-.09469v-.5723a11.08223,11.08223,0,0,0,.1426-2.2841A.51984.51984,0,0,0,169.7031,13.82758Zm.3809,17.0899a1.53906,1.53906,0,0,0-.1895.666.55633.55633,0,0,0,.3809-.28521C170.4961,31.10977,170.4316,30.98287,170.084,30.91748Zm2.0937-14.71-.0449.4277C172.2891,16.44577,172.3066,16.30517,172.1777,16.20748Z"/>
      <path d="M177.3887,21.82658c.1914-.31731.1738-.39841-.0489-.2382-.2851.21969-.4589.1416-.5214-.2373a11.72334,11.72334,0,0,1-.1446-2.80961,4.89231,4.89231,0,0,1,.0508-1.52639.4717.4717,0,0,0-.0976-.4267l-.0469-3.9981a.79689.79689,0,0,1,.6172-.331.55343.55343,0,0,1,.7148.0468,2.29964,2.29964,0,0,1,.9531.09481,1.14037,1.14037,0,0,0,.8086-.1924.73526.73526,0,0,1,.5235.09759,1.40878,1.40878,0,0,1,.8086.14161,3.4292,3.4292,0,0,0,.9785-.0468,5.02434,5.02434,0,0,1,.9726-.09481,12.48538,12.48538,0,0,1,2.1914.09481,1.23792,1.23792,0,0,1,.7637.0468,2.33517,2.33517,0,0,1,2.0918.3809,26.07182,26.07182,0,0,1-.332,5.23729,1.99847,1.99847,0,0,1-.0957,1.0449.60431.60431,0,0,0,.0469.52441c0,.2549-.1094.3975-.3321.42969,0,.666-.3965.9815-1.1914.95121-.0957,0-.3027.0156-.6191.04879-.3164.0322-.5078.0469-.5703.0469l-1.0489.23931a1.4942,1.4942,0,0,1-.7617-.09671q-1.7109.2871-3.4258.6679a5.53714,5.53714,0,0,1-.664.0459,1.25362,1.25362,0,0,0-.9551.18951C177.7695,22.35008,177.5469,22.23777,177.3887,21.82658Zm-.0957-2.52441c-.0313-.03119-.0469,0-.0469.09571C177.2754,19.58838,177.293,19.55707,177.293,19.30217Zm.6679-5.5693a.52438.52438,0,0,0,.0938.28711C178.0547,13.73287,178.0234,13.63817,177.9609,13.73287Zm.5235,7.5215c-.0938,0-.1446.01661-.1446.0498C178.3711,21.52288,178.4199,21.50927,178.4844,21.25437Zm.0469-7.90329.1445.4287C178.7363,13.46428,178.6895,13.32268,178.5313,13.35108Zm.8574-.23831c-.1582,0-.2364.09571-.2364.28711a.47161.47161,0,0,1,.5684,0C179.7207,13.20848,179.6113,13.11277,179.3887,13.11277Zm1.1894,7.47461a5.08833,5.08833,0,0,0,1.5723-.14161,2.51716,2.51716,0,0,0,.5234-.05079,2.31522,2.31522,0,0,0,1.1407-.28421l-.334-.28319q.0966-2.8095-.0469-5.6191a1.07758,1.07758,0,0,0-.2363-1.1885,3.738,3.738,0,0,0-1.334.04589,7.03623,7.03623,0,0,1-.7852-.04589,7.16338,7.16338,0,0,0-.83-.0498,6.93091,6.93091,0,0,0,.0917,1.6191c-.1269.19139-.1269.34869,0,.47559l.0489,2.57131A23.40433,23.40433,0,0,1,180.5781,20.58738Zm4.1055,8.03219a.53757.53757,0,0,1,.1738-.6162q2.66025-2.13433,5.4492-4.05369,1.8135-1.44587,3.5176-2.9736c.4785-.18561.7031-.11431.666.21579-.1757-.0948-.2265-.0078-.1425.26761l-1.1524,1.6171q-1.374,1.75784-2.6113,3.67779c-.6777,1.0625-1.3692,2.1084-2.084,3.14551-.2344.2998-.4785.6367-.7324,1.0049a4.54707,4.54707,0,0,1-.9649,1.33879c-.1894.3594-.3847.3633-.5761.01171Q185.5498,30.44476,184.6836,28.61957Zm-.1543-11.8389v.61721c-.0312.35159.0156.5088.1426.47559a8.87258,8.87258,0,0,0-.0957-1.8076Zm1.2852,13.8526.1894-.334C185.7188,30.33148,185.6563,30.44087,185.8145,30.63327Zm3.666-19.375a1.28082,1.28082,0,0,1,.334-.5713,1.51649,1.51649,0,0,1,1.3789-.09669.37862.37862,0,0,0,.1914.3809,56.34393,56.34393,0,0,1,3.664,5.4287,2.06456,2.06456,0,0,1-.8554,1.71289,10.09479,10.09479,0,0,1-1.3809,1.47561,7.66711,7.66711,0,0,1-1.1406-1.9522,7.9919,7.9919,0,0,0-.5274-1.71291,6.11068,6.11068,0,0,1-.8066-1.999,4.52736,4.52736,0,0,1-.2383-.71579A4.13046,4.13046,0,0,1,189.4805,11.25827Zm1.3398-4.98539a2.18511,2.18511,0,0,1,.8223-.7627,28.75325,28.75325,0,0,1,5.2109,2.48639c.1016.33881.3067.46091.6153.3632a.56536.56536,0,0,0-.3457.3252l.3769-.04289a.3695.3695,0,0,1-.2637.21969,3.6815,3.6815,0,0,0-.9121,1.2519.535.535,0,0,0-.4511.67291.69441.69441,0,0,0-.002.4326.86225.86225,0,0,1-.4688.5322Q193.1787,8.97848,190.8203,6.27288Zm.0391,18.791a.13262.13262,0,0,0,.0469-.0947C190.9063,24.80907,190.8926,24.84028,190.8594,25.06388Zm1.334,7.47169.2851-.333a1.58281,1.58281,0,0,0,.2871-.71291c.3789-.8564.7461-1.7617,1.0938-2.71379a4.2354,4.2354,0,0,0,.6191-1.3809,2.744,2.744,0,0,1,.2871-.71481l3.2813-11.376a5.79285,5.79285,0,0,0,.5-1.78519,1.83518,1.83518,0,0,1,.9765-1.4512h2.334a3.03816,3.03816,0,0,0,.7129.0958,6.7682,6.7682,0,0,1,.7617.0449h.8106l.666-6.2334a1.44372,1.44372,0,0,1,.1895-1.1446.47534.47534,0,0,1,.6406.0245.48057.48057,0,0,0,.6445.0263l2.0469.61719a2.75953,2.75953,0,0,1,.8105.56931c.0293,1.11329.0157,2.22369-.0488,3.3331a1.00557,1.00557,0,0,1-.1426.52439l-.1875,2.28321c-.0976.1924-.0664.33489.0918.4316a4.67458,4.67458,0,0,0,1.4766.23539,3.5408,3.5408,0,0,1,1.1426.09471c.1582,0,.3398-.0068.5488-.0205a1.415,1.415,0,0,1,.5918.0703l2,.5225q.5244.38083,0,.95109-1.52055,1.7622-3.1406,3.4297a1.94375,1.94375,0,0,0-1.2383.85351c-.2207-.02831-.2696-.16991-.1426-.4257a.47034.47034,0,0,1-.4277-.09671l.5234-4.28319c.2227-.3174.1582-.4912-.1914-.52441a8.44355,8.44355,0,0,0-1.2852-.09569l-.6191,5.75969,1.6699.23931a8.52711,8.52711,0,0,0,1.0918.02339,3.5722,3.5722,0,0,1,1.0957.1201l.7149.3789q.6621.57135,0,1.2393a.55831.55831,0,0,1-.1211.47661.48184.48184,0,0,0-.1172.4267,46.23021,46.23021,0,0,1-2.9043,4.1416,1.27766,1.27766,0,0,0,.7363.4307,1.26377,1.26377,0,0,1,.6445.28509,8.26646,8.26646,0,0,1,2.7129,1.4248q-1.0956,1.28911-2.2851,2.52541a1.14357,1.14357,0,0,0-.7149.667,2.74916,2.74916,0,0,0-1.1445-.7607l-1.5195-1.19139a1.3549,1.3549,0,0,0-.7168-.56941,20.28478,20.28478,0,0,0-1.8086,1.5235c-.2188.21871-.4356.4502-.6426.6894a3.58543,3.58543,0,0,1-.7363.6397c-.2539.44631-.4785.44631-.666,0q.7587-2.19,1.666-4.3799a.58.58,0,0,0,.0957-.4727l-2.4746-1.90429a6.911,6.911,0,0,0-.8594-1.0488.52346.52346,0,0,1-.332-.52241q2.09475.61517,4.1894,1.4267c.2852.127.4766-.01559.5703-.4287a19.68282,19.68282,0,0,0,1.5703-3.998c.0977-.3819-.1601-.5694-.7617-.5694a3.37541,3.37541,0,0,0-.8086-.1924,21.66354,21.66354,0,0,1-3.8066-.2373c-.4785-.15719-.5566-.3965-.2402-.71679h1.3789l.6211-5.4257c-.0313-.254-.2207-.3809-.5704-.3809s-.4765.2236-.3808.668a21.5072,21.5072,0,0,0-1.0488,3.4277.74446.74446,0,0,1-.2383.6191l-.4746,1.4258a40.001,40.001,0,0,1-4.3809,8.23831.81381.81381,0,0,0-.1894.52149,44.06291,44.06291,0,0,1-4.1407,4.90431c-.1289-.0635-.2226,0-.2871.1885A.45056.45056,0,0,1,192.1934,32.53557Zm3.625-21.79c-.0996-.02149-.1426.01561-.1289.1123C195.6992,10.94868,195.7402,10.91447,195.8184,10.74557Zm.7656-.46879-.5391.34569Q196.11825,10.42777,196.584,10.27678Zm-.4395,16.64159a1.84943,1.84943,0,0,0-.4277.9073l.2832-.335A.83386.83386,0,0,0,196.1445,26.91837Zm.3809-.331c-.1895,0-.2871.1103-.2871.331Q196.5722,26.91837,196.5254,26.58738Zm.2832-.47761c-.123,0-.1855.07911-.1855.2383C196.7461,26.34807,196.8086,26.27,196.8086,26.10977Zm.5254-1.04589-.2383.5235C197.3828,25.42617,197.459,25.25337,197.334,25.06388Zm.1894-5.5214a3.77327,3.77327,0,0,0,.334-.8125.73332.73332,0,0,0,.0469-.7598A4.63094,4.63094,0,0,0,197.5234,19.54248Zm2.4278-2.76181-.2364.7627c0,.09281.0801.04591.2364-.14549A.975.975,0,0,0,199.9512,16.78067Zm5.1914-.95209a.58213.58213,0,0,0,.0937-.334C205.1426,15.52678,205.1113,15.63618,205.1426,15.82858Zm.0937,2.04489c.1895.09671.2852.0498.2852-.1426C205.2988,17.60587,205.207,17.65178,205.2363,17.87347Zm.2364-8.9951a.12465.12465,0,0,0-.1407.14161C205.3945,9.36957,205.4414,9.32368,205.4727,8.87837Zm-.0469-.09569c.1601-.0635.1933-.1914.0957-.3799C205.4609,8.33838,205.4258,8.46428,205.4258,8.78268Zm.9551,8.8535c-.1914.0313-.2871.09469-.2871.1924C206.1563,17.89108,206.252,17.82858,206.3809,17.63618Zm.0468.999c.0938.1914.2051.21.334.04979C206.6328,18.39788,206.5215,18.38028,206.4277,18.63518Zm1.6192,9.47459c0,.16021.1094.2383.332.2383C208.3789,28.18987,208.2656,28.10977,208.0469,28.10977Zm.2832-.4296a.46711.46711,0,0,0,.334.1455A.27437.27437,0,0,0,208.3301,27.68017Zm1.0488-7.377c-.0957.03221-.1445.1426-.1445.3311C209.3926,20.54047,209.4414,20.42917,209.3789,20.30317Zm.1895,4.1875a.35253.35253,0,0,0-.2852.4287A.59192.59192,0,0,0,209.5684,24.49067Zm.2851-.5723a.49444.49444,0,0,0-.332.47761A.77937.77937,0,0,0,209.8535,23.91837Zm.668-3.6152a.18729.18729,0,0,0-.0957.1895C210.5215,20.65278,210.5488,20.58738,210.5215,20.30317ZM211.7578,14.02c-.0937,0-.1426.03119-.1426.09369C211.6777,14.36857,211.7246,14.33638,211.7578,14.02Z"/>
      <path d="M217.9883,21.77c.1875-.35941.1719-.4502-.0508-.2686-.2852.24909-.459.1612-.5234-.27051a14.97425,14.97425,0,0,1-.1426-3.1787,6.3198,6.3198,0,0,1,.0488-1.72749.57933.57933,0,0,0-.0957-.4844l-.0488-4.52731a.78884.78884,0,0,1,.6191-.37409.50729.50729,0,0,1,.7149.05179,2.06506,2.06506,0,0,1,.9531.10841,1.0319,1.0319,0,0,0,.8086-.2178.674.674,0,0,1,.5215.10939,1.30856,1.30856,0,0,1,.8125.16111,2.97659,2.97659,0,0,0,.9746-.0527,4.54247,4.54247,0,0,1,.9765-.10841,11.13348,11.13348,0,0,1,2.1895.10841,1.1013,1.1013,0,0,1,.7617.0527,2.12582,2.12582,0,0,1,2.0938.4317,33.5257,33.5257,0,0,1-.3321,5.9287,2.5795,2.5795,0,0,1-.0957,1.18459.78258.78258,0,0,0,.045.5937c0,.28711-.1075.4492-.3301.48631,0,.75389-.3985,1.1123-1.1914,1.07619-.0957,0-.3028.0176-.6192.05571-.3164.0351-.5058.0517-.5683.0517l-1.0508.27049a1.31725,1.31725,0,0,1-.7617-.1074c-1.1407.21681-2.2832.46581-3.4258.7549a4.81627,4.81627,0,0,1-.666.0527,1.13839,1.13839,0,0,0-.9532.21491C218.3672,22.36277,218.1445,22.23677,217.9883,21.77Zm-.0977-2.46781c-.0332-.03119-.0449,0-.0449.09571C217.8731,19.58838,217.8906,19.55707,217.8906,19.30217Zm.666-5.5693a.52742.52742,0,0,0,.0957.28711C218.6523,13.73287,218.6211,13.63817,218.5566,13.73287Zm.5254,7.5215c-.0957,0-.1464.01661-.1464.0498C218.9707,21.52288,219.0176,21.50927,219.082,21.25437Zm.0469-7.90329.1406.4287C219.3359,13.46428,219.2852,13.32268,219.1289,13.35108Zm.8574-.23831c-.1601,0-.2382.09571-.2382.28711a.47146.47146,0,0,1,.5683,0C220.3164,13.20848,220.207,13.11277,219.9863,13.11277Zm1.1895,7.47461a5.0939,5.0939,0,0,0,1.5723-.14161,2.51784,2.51784,0,0,0,.5234-.05079,2.31457,2.31457,0,0,0,1.1406-.28421l-.332-.28319q.09375-2.8095-.0469-5.6191a1.08478,1.08478,0,0,0-.2383-1.1885,3.75012,3.75012,0,0,0-1.3359.04589,6.99982,6.99982,0,0,1-.7832-.04589,7.22667,7.22667,0,0,0-.832-.0498,7.03657,7.03657,0,0,0,.0937,1.6191c-.125.19139-.125.34869,0,.47559l.0488,2.57131A23.40449,23.40449,0,0,1,221.1758,20.58738Zm3.8555,7.04589a.5378.5378,0,0,1,.2851-.5723q3-1.61715,6.0938-2.998,2.0448-1.09423,4-2.28519c.5058-.09471.7129.01559.6171.333-.1582-.125-.2226-.0459-.1894.23931L234.4121,23.73q-1.67,1.47795-3.2383,3.14249-1.28895,1.38135-2.6191,2.71291c-.2852.2549-.5879.53909-.9043.85549a4.538,4.538,0,0,1-1.1914,1.14261c-.2539.3203-.4434.28709-.5684-.09381Q225.5537,29.58394,225.0313,27.63327Zm.0976-10.8526v.61721c-.0332.35159.0137.5088.1406.47559a8.866,8.866,0,0,0-.0937-1.8076Zm1.2832,13.8526.1895-.334C226.3164,30.33148,226.2539,30.44087,226.4121,30.63327Zm3.6641-19.375a1.30308,1.30308,0,0,1,.3359-.5713,1.51651,1.51651,0,0,1,1.3789-.09669.38058.38058,0,0,0,.1895.3809,55.99934,55.99934,0,0,1,3.666,5.4287,2.07,2.07,0,0,1-.8555,1.71289,10.09412,10.09412,0,0,1-1.3808,1.47561,7.66436,7.66436,0,0,1-1.1407-1.9522,8.10045,8.10045,0,0,0-.5273-1.71291,6.1085,6.1085,0,0,1-.8066-1.999,4.51718,4.51718,0,0,1-.2383-.71579A4.13366,4.13366,0,0,1,230.0762,11.25827Zm.8144-6.7129a2.14879,2.14879,0,0,1,.9004-.66509,28.81279,28.81279,0,0,1,4.9024,3.045c.0644.34961.2558.4941.5703.4306a.56727.56727,0,0,0-.3789.28421h.3789a.36747.36747,0,0,1-.2832.1895,3.62687,3.62687,0,0,0-1.0449,1.1416.5364.5364,0,0,0-.5254.6181.69846.69846,0,0,0-.0489.4307.87141.87141,0,0,1-.5234.47849Q232.93365,7.497,230.8906,4.54537Zm.5684,20.51851a.13746.13746,0,0,0,.0449-.0947C231.5039,24.80907,231.4902,24.84028,231.459,25.06388Zm1.9199,7.93949.2734-.34569a1.54183,1.54183,0,0,0,.252-.72461q.51855-1.30665.9824-2.7569a4.28206,4.28206,0,0,0,.5606-1.40619,2.75313,2.75313,0,0,1,.2539-.72661L238.5,15.53947a5.80626,5.80626,0,0,0,.4277-1.8066,1.82128,1.82128,0,0,1,.9121-1.4902l2.3321-.09769a2.85326,2.85326,0,0,0,.7148.0635,6.87668,6.87668,0,0,1,.7617.0156l.8106-.0352.4004-6.25481a1.44222,1.44222,0,0,1,.1445-1.1534.47929.47929,0,0,1,.6445-.00189.479.479,0,0,0,.6426-.0029l2.0703.53119a2.75211,2.75211,0,0,1,.834.53421c.0742,1.1113.1074,2.22169.0899,3.334a.99262.99262,0,0,1-.1192.52931l-.0918,2.291a.289.289,0,0,0,.1094.4248,4.75829,4.75829,0,0,0,1.4863.17381,3.46749,3.46749,0,0,1,1.1465.0459c.1582-.00681.3379-.02241.5449-.0459a1.46532,1.46532,0,0,1,.5977.0488l2.0195.4375c.3594.2383.3711.55379.0391.9493q-1.44435,1.82368-2.9922,3.5595a1.94229,1.94229,0,0,0-1.2031.90629c-.2207-.01949-.2774-.16209-.1602-.42189a.46252.46252,0,0,1-.4297-.07621l.3418-4.30369q.31065-.48916-.2148-.51461a8.57221,8.57221,0,0,0-1.2852-.043l-.3769,5.78419,1.6777.166a8.59492,8.59492,0,0,0,1.0918-.0225,3.55211,3.55211,0,0,1,1.0996.0723l.7305.35059c.459.36231.4746.77441.0547,1.2363a.56651.56651,0,0,1-.1016.48151.48663.48663,0,0,0-.1016.43359,46.12322,46.12322,0,0,1-2.7265,4.25971,1.294,1.294,0,0,0,.7578.39939,1.24273,1.24273,0,0,1,.6523.2559,8.28136,8.28136,0,0,1,2.7715,1.3115q-1.03995,1.33305-2.1777,2.6162a1.152,1.152,0,0,0-.6836.6983,2.78469,2.78469,0,0,0-1.1758-.71289l-1.5703-1.127a1.37456,1.37456,0,0,0-.7383-.539,21.14577,21.14577,0,0,0-1.7441,1.59861c-.209.2314-.416.47069-.6133.71779a3.59164,3.59164,0,0,1-.709.67191c-.2324.45309-.457.4628-.6641.02829q.6651-2.21924,1.4805-4.4463a.59675.59675,0,0,0,.0723-.47849l-2.5528-1.7969a6.76571,6.76571,0,0,0-.9003-1.0117.52092.52092,0,0,1-.3536-.5088q2.1183.53024,4.2442,1.249.4365.1728.5547-.45121a19.83249,19.83249,0,0,0,1.4004-4.0634q.11415-.57435-.7871-.53619a3.36535,3.36535,0,0,0-.8145-.15721,22.08969,22.08969,0,0,1-3.8184-.0752c-.4824-.13869-.5703-.373-.2675-.70509l1.3789-.0595.3906-5.4483c-.0449-.25-.2363-.3701-.5859-.3564-.3516.01559-.4668.2461-.3536.6855a21.27491,21.27491,0,0,0-.9004,3.46779.75594.75594,0,0,1-.2148.6289l-.4121,1.44631a40.10075,40.10075,0,0,1-4.0293,8.41309.82369.82369,0,0,0-.168.52831,43.88331,43.88331,0,0,1-3.9316,5.0752q-.19335-.08506-.2754.20209A.45225.45225,0,0,1,233.3789,33.00337Zm1.9824-23.46089c-.0976-.0303-.1425,0-.1425.0976C235.2188,9.73287,235.2637,9.70458,235.3613,9.54248Zm.8125-.3789-.5761.2841C235.6641,9.32368,235.8535,9.227,236.1738,9.16358Zm.5684,17.75479a1.81532,1.81532,0,0,0-.4277.9073l.2851-.335A.85248.85248,0,0,0,236.7422,26.91837Zm.3789-.331c-.1875,0-.2832.1103-.2832.331C237.0586,26.91837,237.1563,26.80807,237.1211,26.58738Zm.2852-.47761c-.125,0-.1875.07911-.1875.2383C237.3438,26.34807,237.4063,26.27,237.4063,26.10977Zm.5253-1.04589-.2382.5235C237.9785,25.42617,238.0566,25.25337,237.9316,25.06388Zm.1915-5.5214a4.09877,4.09877,0,0,0,.3339-.8125.74666.74666,0,0,0,.0469-.7598A4.54153,4.54153,0,0,0,238.1231,19.54248Zm2.4257-2.76181-.2343.7627c0,.09281.0781.04591.2343-.14549A.97359.97359,0,0,0,240.5488,16.78067Zm5.1914-.95209a.59818.59818,0,0,0,.0957-.334C245.7402,15.52678,245.709,15.63618,245.7402,15.82858Zm.0957,2.04489c.1895.09671.2832.0498.2832-.1426C245.8965,17.60587,245.8027,17.65178,245.8359,17.87347Zm.2344-8.9951a.1268.1268,0,0,0-.1426.14161C245.9941,9.36957,246.0391,9.32368,246.0703,8.87837Zm-.0449-.09569c.1582-.0635.1914-.1914.0937-.3799C246.0566,8.33838,246.0254,8.46428,246.0254,8.78268Zm.9512,8.8535c-.1914.0313-.2871.09469-.2871.1924C246.7539,17.89108,246.8496,17.82858,246.9766,17.63618Zm.0488.999c.0957.1914.2051.21.334.04979C247.2305,18.39788,247.1211,18.38028,247.0254,18.63518Zm1.6172,9.47459c0,.16021.1113.2383.334.2383C248.9766,28.18987,248.8652,28.10977,248.6426,28.10977Zm.2871-.4296a.45633.45633,0,0,0,.332.1455A.27187.27187,0,0,0,248.9297,27.68017Zm1.0469-7.377c-.0938.03221-.1446.1426-.1446.3311C249.9902,20.54047,250.0391,20.42917,249.9766,20.30317Zm.1894,4.1875a.34991.34991,0,0,0-.2832.4287A.58933.58933,0,0,0,250.166,24.49067Zm.2871-.5723a.49379.49379,0,0,0-.334.47761A.79726.79726,0,0,0,250.4531,23.91837Zm.666-3.6152a.18744.18744,0,0,0-.0957.1895C251.1191,20.65278,251.1484,20.58738,251.1191,20.30317ZM252.3535,14.02c-.0918,0-.1426.03119-.1426.09369C252.2754,14.36857,252.3223,14.33638,252.3535,14.02Z"/>
      <path d="M257.0684,29.44087l2.3808-4.7598q1.9044-4.47358,3.6172-8.9941a.98942.98942,0,0,0,.1426-.52439q.7149-2.669,1.5723-5.335c.0918-.21971.2226-.33011.3808-.33011a23.96853,23.96853,0,0,1,3.0469,1.66511.55959.55959,0,0,1,.1914.665,7.30705,7.30705,0,0,1-1.2871,2.85839c-.2207.41311-.2207.6182,0,.6182a32.03372,32.03372,0,0,1,3.3808-1.90429,8.26746,8.26746,0,0,1,.6641,1.665q.38385,1.002-.3809,1.3809a32.85173,32.85173,0,0,0-4.9023,1.76171,1.9432,1.9432,0,0,0-1.0469.95309c-.0312.18951.0957.23731.3809.1416a31.03321,31.03321,0,0,0,3.5723,4.6162,1.13038,1.13038,0,0,1-.0508.9541,12.7474,12.7474,0,0,0-1.3301,1.57131,1.34815,1.34815,0,0,0-.5273.7617.67925.67925,0,0,1-.5684.23539c-.1602,0-.2852-.1406-.3789-.42679q-.67095-1.4736-1.3828-2.90431a.34922.34922,0,0,1-.2832-.4267,12.50166,12.50166,0,0,1-.668-1.333.37443.37443,0,0,0-.334-.335,41.54881,41.54881,0,0,1-5.6172,7.47559c-.1914.28421-.3808.4258-.5722.4258h-.0469A.49965.49965,0,0,1,257.0684,29.44087Zm2.6679-9.5684-.5722-1.331a1.0796,1.0796,0,0,1-.1914-.37989q-.80565-1.95406-1.5235-3.998v-.9551a.54345.54345,0,0,1,.5235-.14261l2.2871,1.667,1.8554,1.61821a1.25966,1.25966,0,0,0,.0489.90329,8.65441,8.65441,0,0,1-.7168.8115l-1.045,1.665A.43833.43833,0,0,1,259.7363,19.87247Zm4.9043-.3789a.281.281,0,0,0,.1407.2373A.27879.27879,0,0,0,264.6406,19.49357Zm3.3301,9.1875a41.44777,41.44777,0,0,0,3.9981-5.666,3.26332,3.26332,0,0,0,.6191-1.1885l-1.9023.04589q-.7149-.37935.0917-.71479a3.52747,3.52747,0,0,1,.67-.09281,6.83122,6.83122,0,0,0,1.8066-.04879,1.81673,1.81673,0,0,0,1.4766-.334l.1894-3.5693c-.0937-.2539-.3164-.3174-.666-.1905-.1582,0-.373-.0058-.6406-.02339-.2715-.01561-.4063-.13571-.4063-.35551a1.35891,1.35891,0,0,1,1.7129-.6699A9.00277,9.00277,0,0,0,275.207,14.02c.0938-.22361.2539-.27151.4746-.1436a3.141,3.141,0,0,1,2.4297.5245l-.0507.7617q-.1875.09375,0,.4277c.0644.31539.2578.3809.5742.1914a3.823,3.823,0,0,0,1.5703-.04881l.1445-.76269a.40327.40327,0,0,0,.1426-.47661.49613.49613,0,0,1,.2851-.61719,2.17765,2.17765,0,0,1,1.2364-.38371,5.61058,5.61058,0,0,0,1.8086-.3799.80765.80765,0,0,1,.9531.23831,6.17208,6.17208,0,0,1,0,2.14349l1.2383.04791a.8499.8499,0,0,1-.1426.95109l-1.2402-.0478v3.8574h1.0468a2.68641,2.68641,0,0,1,1.334-.14549c.0938,0,.3008-.0147.6192-.04691a3.479,3.479,0,0,0,1.1425-.09469,1.07422,1.07422,0,0,1,.4766-.09281l.0469.04691c.1894,0,.3965.00679.6211.02339.2187.0157.3301.16411.3301.4522a.95516.95516,0,0,1-.9512.4756c-.2246.0654-.3653.0468-.4317-.0489l-1.7089.14361a1.83625,1.83625,0,0,1,.2832.23829,1.52939,1.52939,0,0,0,.7168.4287,3.12435,3.12435,0,0,0,.9023.76171,5.715,5.715,0,0,1,.4277.47559c.7305.53811,1.4453,1.11231,2.1426,1.71191a.52866.52866,0,0,1,.1445.47849,16.421,16.421,0,0,1-2.8574,1.71391,1.40409,1.40409,0,0,1-.9512.28609c-.2226.0625-.3339-.03419-.3339-.28609a6.75641,6.75641,0,0,0-1.1895-1.71391,17.10674,17.10674,0,0,1-3.7129-3.71479,1.7425,1.7425,0,0,0-1.334-.14161.98707.98707,0,0,0-1.1406.334c-.1914.21969-.3828.15819-.5742-.1924a2.68827,2.68827,0,0,0-2.6172.8115,49.15689,49.15689,0,0,1-8.5215,6.90229Q268.11335,29.34709,267.9707,28.68107Zm2.5703,2.09481a.22473.22473,0,0,1,.1914-.2383,1.34567,1.34567,0,0,1,1.0469-.5703,28.11252,28.11252,0,0,0,4.5703-1.61921,1.24722,1.24722,0,0,0,.7617.18951.38715.38715,0,0,1,.1895.47559c-.1895.1601-.2539.30461-.1895.4277a4.92245,4.92245,0,0,1-1.1425.668q-2.048,1.5702-4.1426,3.09371a.5195.5195,0,0,1-.8574.04789A8.75993,8.75993,0,0,1,270.541,30.77588Zm2.2852-19.9473a1.41829,1.41829,0,0,0-.0469-.9522,1.76087,1.76087,0,0,1-.0957-.57121q-.4776-3.33254-.7598-6.66309a.786.786,0,0,1,.045-.71681c-.127,0-.1719-.09179-.1426-.28419a5.7111,5.7111,0,0,1,2.5215-.28521c.4785,0,.9531-.01659,1.4296-.0478a.90276.90276,0,0,0,.2872-.04689,7.17494,7.17494,0,0,0,1.664-.09571,1.13359,1.13359,0,0,0,.4766.05081,1.66256,1.66256,0,0,0,.4765-.05081q2.56935-.09225,5.0918-.3809a2.825,2.825,0,0,1,.5254-.0468,2.10653,2.10653,0,0,1,2.1895.85741,25.46722,25.46722,0,0,1-.0469,2.71089,43.00079,43.00079,0,0,1-.3808,7.5713l-.5704.28621a1.815,1.815,0,0,1-.5254.1181c-.1894.01559-.3652.02439-.5234.02439h-.8594a6.25058,6.25058,0,0,1-1.7109.14161.72291.72291,0,0,0-.7148,0c-.5684.03129-1.1094.04589-1.6172.04589-.5703,0-1.1114.0196-1.6211.0498l-1.711.1426a.91788.91788,0,0,0-.7148,0,.82142.82142,0,0,1-.8574,0,2.22472,2.22472,0,0,0-.4766.0459,1.51524,1.51524,0,0,1-.4746.09671.826.826,0,0,1-.7148-.4775A8.21318,8.21318,0,0,0,272.8262,10.82858Zm.8574-1.47661a.79472.79472,0,0,0,.0937.42971C273.8086,9.36957,273.7773,9.227,273.6836,9.352Zm.0937-2.8056c.127-.03419.1426-.127.0489-.28619C273.7969,6.06778,273.7773,6.16258,273.7773,6.54637Zm.1915-4.2383a.921.921,0,0,0,.4765.1894C274.3828,2.18307,274.2227,2.11767,273.9688,2.30807Zm.8574,25.46681-.1914-1.28521a2.77029,2.77029,0,0,1-.1426-1.665.72291.72291,0,0,1,.5723-.14361,10.71372,10.71372,0,0,1,1.9043,2.0479,4.8215,4.8215,0,0,1-1,1.6191.35676.35676,0,0,0-.334.2862.45543.45543,0,0,0-.334-.1446C275.0156,28.42717,274.8555,28.18987,274.8262,27.77488Zm-.334-18.89651c-.0313-.06449-.0469-.05079-.0469.0469C274.5391,9.02,274.5547,9.00337,274.4922,8.87837Zm.0469,1.76171a.21.21,0,0,0,.2382.23729C274.7773,10.62157,274.6973,10.54337,274.5391,10.64008Zm.3808,21.708q.61815-.955,1.8125-.0986c.2188.0986.3301.01761.3301-.23729q.38085-2.2368.9512-4.4258a18.22506,18.22506,0,0,0,.6679-3.23931.40565.40565,0,0,1,.1446-.4287,11.281,11.281,0,0,1,4.5683,1.14551,12.68973,12.68973,0,0,1-.9531,4.28319c.0957.31651.2715.3331.5234.04691a19.28679,19.28679,0,0,1,1.4766-2.09371.56032.56032,0,0,0,.334-.3819.65391.65391,0,0,1,.8066-.331.30643.30643,0,0,1,.2891.331l1.0918.61821a.71363.71363,0,0,1,.4297.57319q-1.4268.9507-2.9512,1.8067l2.4297.8125c.0605,0,.2344.0127.5215.04691l1.1894.37979c.3184.1924.334.3985.0508.61821a5.38024,5.38024,0,0,1-1.0019,2.0459.37261.37261,0,0,1-.3809.28709,2.586,2.586,0,0,1-.7617-.333l-4.0469-3.3789c-.2207-.09571-.3496-.01561-.3808.23829a21.15419,21.15419,0,0,1-.9043,3.665c-.1895.34961-.379.6963-.5684,1.0449a1.17548,1.17548,0,0,1-1.0957-.23819.4764.4764,0,0,0-.5234-.3301,11.22062,11.22062,0,0,1-1.9532-1.1934,1.20225,1.20225,0,0,0-.4297-.2373A13.0463,13.0463,0,0,1,274.9199,32.34807Zm.2871-23.89939a.63266.63266,0,0,0-.0957-.52341A.67354.67354,0,0,0,275.207,8.44868Zm1.5254,3.42869h.9961c.3496,0,.7149-.0156,1.0977-.04979a9.673,9.673,0,0,1,1.2363-.1885,1.01036,1.01036,0,0,0,.5254-.0488c.6328-.09281.8535-.53811.6641-1.331q0-2.71589.0957-5.42879a17.88785,17.88785,0,0,0-.0489-2.90521l-3.7597-.045a4.8759,4.8759,0,0,1-1.8086.1426,11.13161,11.13161,0,0,1,.2383,2.23639,20.51255,20.51255,0,0,0,.2382,3.14251.86876.86876,0,0,0,.1426.666c.8242-.1562,1.6817-.2861,2.5703-.38081a1.423,1.423,0,0,1,.5215-.09569,3.23073,3.23073,0,0,1,1.5723.1904c.0625.25389-.0645.41509-.3809.4756a17.954,17.954,0,0,1-3.1875.3838,6.5362,6.5362,0,0,1-.7129.09469.69681.69681,0,0,0-.4785.9502,1.06684,1.06684,0,0,0,.0957.4785A3.08656,3.08656,0,0,0,276.7324,11.87737Zm-.7636,7.6162-.0977.4297C276.125,19.73087,276.1582,19.58838,275.9688,19.49357Zm.4746,1.1407a.59759.59759,0,0,0,.4765,0A.29956.29956,0,0,0,276.4434,20.63427Zm1.4746-1.5235-.0918,1.667c.2519,0,.4726-.0068.664-.02341.1914-.0157.4297-.03809.7168-.0723l.6153-.0478.334-3.90429h-2l-.0957.19229a1.20984,1.20984,0,0,0,0,.667Zm1.0957,7.2373a4.29465,4.29465,0,0,0-.5235,1.90331A5.27958,5.27958,0,0,0,279.0137,26.34807Zm.0469,4.9502c.0976.09571.1738-.03119.2382-.38079C279.1387,30.91748,279.0606,31.04437,279.0606,31.29827Zm.3808-.90329a.321.321,0,0,0-.1426.28419C279.3945,30.67917,279.4414,30.58348,279.4414,30.395Zm2.2383-25.3272a.77377.77377,0,0,0,.1914.5723l.1426-1.4267c0-.3838-.0801-.54011-.2383-.47661A4.703,4.703,0,0,1,281.6797,5.06778Zm.6191,20.3272v-.09471c0-.15729-.1289-.23639-.3808-.23639A.393.393,0,0,0,282.2988,25.395Zm-.1894-5.33011c0,.03131-.0176.0459-.0488.0459C282.1231,20.20848,282.1406,20.19278,282.1094,20.06487Zm2.4746-10.7597c.125.28411.2383.1923.332-.28519C284.7578,8.82758,284.6484,8.92527,284.584,9.30517Zm1.8105,18.66211-.1933.09269C286.1387,28.28457,286.2012,28.25138,286.3945,27.96728Zm2.9493-3.5225c0,.126.0312.1875.0957.1875C289.6621,24.478,289.6309,24.41258,289.3438,24.44478Zm1.6171.23629a.77462.77462,0,0,0-.1406.47661C291.0723,25.06388,291.1231,24.90378,290.9609,24.68107Z"/>
      <path d="M301.1445,32.91748a2.33162,2.33162,0,0,1,.0957-.7149,3.00446,3.00446,0,0,0,.1426-1.1885q.8613-5.42865,1.2383-10.94921l-1.3809,1.47371a3.74083,3.74083,0,0,1-.8105,1.1914q-.85545.763-1.666,1.52239l-1.2852,1.3809a.30376.30376,0,0,0-.2832.3349,3.2123,3.2123,0,0,0-1.2402,1.04591,3.53132,3.53132,0,0,0-1.3789.7608q-1.2861.71475-2.5723,1.52339-.5214.57285-.8574.1426a11.10764,11.10764,0,0,1,1.7656-2.5684,76.6921,76.6921,0,0,0,5.1875-8.23729,24.96983,24.96983,0,0,0,1.9043-3.6152c-.2266-.2559-.4941-.2559-.8105,0a37.29561,37.29561,0,0,0-4.6661.7617,1.96367,1.96367,0,0,1-.621.09179,1.035,1.035,0,0,1-.5215-.61819.42138.42138,0,0,1,.5215-.4277c.7343-.125,1.4472-.2383,2.1464-.334a2.717,2.717,0,0,0,.5235-.04589l4.9961-.76271a6.69449,6.69449,0,0,1,.8105-.0468,2.23308,2.23308,0,0,0,.8086-.1455,2.34694,2.34694,0,0,0,.2871-1.14159,29.745,29.745,0,0,1,.1406-3.7598,1.03162,1.03162,0,0,1,.1446-.71291,5.02988,5.02988,0,0,1,.2851-2.5723,1.323,1.323,0,0,0,.1426-.9502A5.397,5.397,0,0,1,307,3.40278a3.72754,3.72754,0,0,1,.4746-.04591,14.2378,14.2378,0,0,1,2.668-.52339q.2373.139.0937.4267c-.0625.2539-.1093.4444-.1425.5694a2.79808,2.79808,0,0,1-.0469.90819l.2383-.3819q-.43065,2.52406-.6192,5.09181c-.0644.8252-.0957,1.6368-.0957,2.42969a1.08756,1.08756,0,0,1,.1914.6162l2.0469-.33a.55324.55324,0,0,0,.0957-.62021,12.0275,12.0275,0,0,0,.6191-1.76169l.8086-4.8056a2.74161,2.74161,0,0,1,2.2364-.43071c.2851.03121.4765.04691.5722.04691.2871.0341.5547.0556.8086.07319q.38085.0234.8086.02341a.53819.53819,0,0,1,.1406.5713.38343.38343,0,0,0-.1875.42779,26.54371,26.54371,0,0,1-1.7148,4.332,2.78173,2.78173,0,0,0-.5703,1.332c-.127.1914-.0488.2549.2383.1914a1.05923,1.05923,0,0,1,.4765-.0966,2.716,2.716,0,0,0,.4766-.04689l2.6152-.4287a1.3748,1.3748,0,0,0,.7149-.09381q1.0956-.33255,1.2851.71291a.44017.44017,0,0,0-.334.28709c-.6328.0322-1.2851.09381-1.9492.19041a6.66428,6.66428,0,0,1-.8125.04589,2.29861,2.29861,0,0,1-.9472.1924c-.0977,0-.2969.0069-.5957.02351a.98577.98577,0,0,0-.5489.1181,2.71668,2.71668,0,0,1-.5234.04589l-2.1426.4297a22.93752,22.93752,0,0,0,3.7129,4.8574,27.36732,27.36732,0,0,0,3.3809,4.0918,2.22407,2.22407,0,0,1-1.2871,1.66511,11.91255,11.91255,0,0,1-1.7129,1.0947,4.57786,4.57786,0,0,0-.9043,1.001c-.1914.2236-.3477.2236-.4766,0l-1.5234-2.09569a10.807,10.807,0,0,1-1.4766-2.23341,26.082,26.082,0,0,1-1.6172-2.335,3.42167,3.42167,0,0,1-.9043-1.5713c-.1601.0664-.2383.0157-.2383-.14351-.3496,0-.4765-.1416-.3808-.42679q-.28425-.4761-.6192-.28421c-.2851,0-.4453.12411-.4765.3789a.2655.2655,0,0,1-.1895.3809l-.1914,2.6201a4.19063,4.19063,0,0,1-.1426,2.09181c0,.1279-.0468.0801-.1425-.14261-.0313.3496-.0157.47761.0488.3799v.90631q-.334,3.85828-.8086,7.6172a3.68261,3.68261,0,0,0,0,.8564,1.17726,1.17726,0,0,1-.4785.47559,2.59112,2.59112,0,0,1-1.4727.333,1.91151,1.91151,0,0,0-.4765.0488l-1,.28521a4.65352,4.65352,0,0,1-2.0957.47559C301.5254,33.43987,301.2734,33.32858,301.1445,32.91748Zm-6.6172-5.9034a.2552.2552,0,0,0-.1894.28619C294.6231,27.23777,294.6856,27.14208,294.5273,27.01408Zm1.1915-.6191a1.73569,1.73569,0,0,0-.9532.6191,1.30329,1.30329,0,0,0,.5723-.33391C295.6211,26.58738,295.75,26.48967,295.7188,26.395Zm1.8554-1.665a18.21526,18.21526,0,0,0-1.6191,1.52339l1.2851-1.04689C297.5586,24.98187,297.6699,24.82468,297.5742,24.73Zm-.1406-3.0948a.28067.28067,0,0,0-.1934.04789,8.92467,8.92467,0,0,0-1.0937,1.8096l.8105-1.04789A2.43428,2.43428,0,0,0,297.4336,21.63518Zm-.6699,2.71189-.6172.71681.2383-.14451A.76406.76406,0,0,0,296.7637,24.34707Zm1.6191-14.0878c-.0312,0-.0469.01361-.0469.0468-.1894,0-.2363-.15129-.1406-.4521a1.218,1.218,0,0,0-.1465-.9756,32.13742,32.13742,0,0,1-1.0918-3.90229,1.45111,1.45111,0,0,1-.0254-.69151,3.26925,3.26925,0,0,1,.1915-.64349.44261.44261,0,0,1,.4511-.28421,7.11164,7.11164,0,0,1,1.7129,1.1885l2.336,2.5723a1.09927,1.09927,0,0,1,.1406.5693,19.39393,19.39393,0,0,1-1.9512,1.95311,1.89241,1.89241,0,0,1-1.1426.8086A.257.257,0,0,0,298.3828,10.25927Zm1.7168,10.8056c-.0957,0-.1758.0645-.2402.1895C299.9551,21.25437,300.0332,21.18888,300.0996,21.06487Zm.4746-1.85739-.332.28609C300.2422,19.71528,300.3516,19.62057,300.5742,19.20748Zm.7617-1.14161-.4296.4756c-.2852.2539-.3497.4453-.1895.5693Zm1.3321,10.9473q-.04695-.04845-.0469.0966C302.6856,29.23677,302.7012,29.20358,302.668,29.01317Zm.9511-8.1407c-.0957,0-.1269.07131-.0957.21391C303.5566,21.23087,303.5879,21.15768,303.6191,20.87247Zm0-.8076.0469.3809a4.03616,4.03616,0,0,0,.1446-1.85839.68848.68848,0,0,0-.1172.59569,1.46266,1.46266,0,0,1-.0274.6894Zm.334,5.9961-.1894,1.2393A2.44556,2.44556,0,0,0,303.9531,26.061Zm.1914-11.1377q-.0468-.0966-.0468.04691C304.127,15.16258,304.1445,15.145,304.1445,14.92327Zm.4278-5.47559c.2207.0948.2871-.1103.1914-.6201a1.16276,1.16276,0,0,0-.1426-.7598Zm.0488.23829a.39584.39584,0,0,0,.0937.38181Q304.8555,9.73672,304.6211,9.686Zm0,.71491a.57058.57058,0,0,0,.0937.333Q304.76175,10.07027,304.6211,10.40088Zm.4277-5.7588c0,.1269.1094.2392.334.334C305.5723,4.75138,305.4609,4.64208,305.0488,4.64208Zm.6641,21.18359.0977-.43069C305.7441,25.36567,305.7129,25.50827,305.7129,25.82567Zm.0508.56931-.0508.8105C305.9043,26.82468,305.9199,26.55417,305.7637,26.395Zm.0957-19.9463a1.757,1.757,0,0,0-.0957.85739A2.01319,2.01319,0,0,0,305.8594,6.44868Zm.0449,3.90429.0469.1904a.73323.73323,0,0,0,.1426.61921l.1445-2.335c-.1602-.0596-.2227.05079-.1914.336C306.0156,9.57658,305.9668,9.97207,305.9043,10.353Zm.7148-4.71289a.48357.48357,0,0,0,.1895.5713,4.4826,4.4826,0,0,0-.0957-1.28521Zm.2403,6.3311a.32158.32158,0,0,0,.0449.3799,14.43192,14.43192,0,0,0,.1914-2.379A4.67121,4.67121,0,0,0,306.8594,11.97118Zm0,17.85059a.41569.41569,0,0,0,.1875-.5694C306.8867,29.22018,306.8262,29.41258,306.8594,29.82177Zm.1875-15.61329.0488-.2373C307.0957,13.81388,307.0801,13.89208,307.0469,14.20848Zm.9043-10.3282-.4278.045c-.2246,0-.3652.0644-.4277.1924l.4277-.09569C307.7461,4.05417,307.8867,4.00628,307.9512,3.88028ZM307.6191,5.688c0,.15821.0489.2363.1426.2363l-.0469-.71289C307.6484,5.18107,307.6191,5.33838,307.6191,5.688Zm.1895,18.2304a.20691.20691,0,0,1-.0469.1446C307.791,24.28658,307.8086,24.23867,307.8086,23.91837Zm.7148-18.6123a3.80178,3.80178,0,0,0-.1425,1.001A1.50924,1.50924,0,0,0,308.5234,5.30607ZM309,9.25827l-.1914,2.80951h.0937l.2872-2.80951Zm.0938-.1416a1.67913,1.67913,0,0,0,.0507-.47559Zm2,6.71191a.25132.25132,0,0,0,.2871.28419C311.3809,16.021,311.2852,15.92327,311.0938,15.82858Zm.5234.5225c.0293.12689.1445.2373.334.33389Zm4.332-9.42581a3.17143,3.17143,0,0,0-.5722,1.332,1.52161,1.52161,0,0,0-.3301.9531Zm-.5234,10.5215a1.10629,1.10629,0,0,0,.3808.76071C315.8711,17.95458,315.7422,17.69868,315.4258,17.44677Zm.0469,1.33.5234.52539c.1289-.03119.0957-.1269-.0938-.28709C315.7422,18.79537,315.5996,18.71628,315.4727,18.77678Zm1.2851,5.3809c0,.09469.0488.14159.1465.14159.1563-.0606.0918-.14159-.1934-.2363C316.4277,24.09518,316.4395,24.12837,316.7578,24.15768Zm.1914-2.85351a.25193.25193,0,0,0,.2852.28421A.25193.25193,0,0,0,316.9492,21.30417Zm.2852.331c0,.1914.0781.30279.2383.333C317.5684,21.77778,317.4883,21.66647,317.2344,21.63518Zm.2851.42969a.18526.18526,0,0,0,.1446.1875C317.6641,22.09518,317.6152,22.03268,317.5195,22.06487Zm.3789,1.711c-.1562.1269-.2832.2392-.3789.33389C317.8379,24.04637,317.9629,23.937,317.8984,23.77588Zm.9082-.66411c-.2871.03121-.4453.15821-.4785.3809A.74351.74351,0,0,0,318.8066,23.11177Zm.379-1.666c.0312.2207.1269.332.2851.332C319.4707,21.55607,319.377,21.44577,319.1856,21.44577Z"/>
      <path d="M324.418,33.86857l.0937-.47559a1.33737,1.33737,0,0,1,.1914-.85741l.4785-4.94919a1.13425,1.13425,0,0,1,.0957-.668,2.97553,2.97553,0,0,1,.0938-1.0459c.0957-1.0136.2051-2.0644.334-3.14249a3.29081,3.29081,0,0,1,.1894-1.5723,18.87418,18.87418,0,0,0-3.3789,1c-.3808.0312-.7773.08009-1.1933.14549a1.167,1.167,0,0,0-.4258.09281.44721.44721,0,0,1-.668-.14361.33679.33679,0,0,1,.3809-.3799,44.95,44.95,0,0,0,6.664-5.0918.58651.58651,0,0,1,.4766-.2373l1.5254-1.4785c.1894-.2519.3144-.3789.3789-.3789a7.36109,7.36109,0,0,0,1.7148-1.42869.3209.3209,0,0,1,.4747.18949,8.05974,8.05974,0,0,1,1.6679,2.2402l.7149.7588a1.79053,1.79053,0,0,1-1.5254,1.38281c-.1582.21969-.3184.2676-.4746.1416-.4141.25289-.8262.50779-1.2383.7598q-.14355,1.812-.2852,3.57319a18.4834,18.4834,0,0,0-.4297,2.9502,1.15553,1.15553,0,0,0,.0957.52251,54.50872,54.50872,0,0,0-.8574,6.4267,11.53612,11.53612,0,0,1-3.0449,1.5713,6.399,6.399,0,0,1-1.5234.5713A.626.626,0,0,1,324.418,33.86857Zm10.9961-20.4218.0488-.7608a30.81754,30.81754,0,0,0,1.332-3.1885c.1602-.28709.2071-.4941.1426-.6191a5.36262,5.36262,0,0,0,.5254-1.23829,2.13067,2.13067,0,0,0-.7402-.1211c-.3633-.0137-.5957-.02151-.6895-.02151l-.7129.0479a1.40639,1.40639,0,0,1-.9512-.0479,4.28958,4.28958,0,0,0-.6679-.04979,4.057,4.057,0,0,0-1.9512.1924q-.5244,1.56883-.9512,3.23729c-.2558.60261-.5078,1.20611-.7656,1.8086a.69387.69387,0,0,1-.6152,0,2.1982,2.1982,0,0,0-.4766.0459.37665.37665,0,0,1-.5723-.0459.6704.6704,0,0,1-.6191-.1426l.3809-3.76069a3.52249,3.52249,0,0,1,.1914-1.42681l-1.4766-.28809a7.17083,7.17083,0,0,1-1.6641.0958l-.6191-.47561a1.612,1.612,0,0,0,.3809-.28519,1.577,1.577,0,0,1,.4765-.0478l2.3301.0478c.6367.0635.9531-.3027.9531-1.09671a1.1366,1.1366,0,0,1,.0957-.664,2.5745,2.5745,0,0,1,.0957-.95411c-.0957-.666.125-1.04589.668-1.1416.4102.03021.8066.04881,1.1875.04881a8.2362,8.2362,0,0,1,1.1914.09279l.7129.0966c.2539.15821.3027.3965.1426.7139a12.37018,12.37018,0,0,1-.5703,3.001l1.9043.09181a3.27352,3.27352,0,0,0,1.0957.09669,4.355,4.355,0,0,1,.6172.0488l.2832.04691a3.15772,3.15772,0,0,0,.4785.0713c.1894.01559.3633.02339.5234.02339a1.35868,1.35868,0,0,0,.7149-.09469l1.4257-4.7608a.43225.43225,0,0,1,.3809-.28421l.4785.045c.0313,0,.2383.03219.6172.0966a2.8915,2.8915,0,0,0,.6191.1426l1.4278.333a.63069.63069,0,0,0,.5234.1416,1.53828,1.53828,0,0,1,1.3809.47861,3.24045,3.24045,0,0,1-1.045,1.4267,8.58659,8.58659,0,0,1-1.666,2.334c-.1601.125-.1797.2519-.0507.3809l1.0488-.04989a.82035.82035,0,0,0,.7617-.09571l2.6152.19151a.42555.42555,0,0,0,.4766,0c.4141-.0645.6055.0966.5742.4765a1.84464,1.84464,0,0,1-1,.3799,42.48213,42.48213,0,0,0-5.334-.14161,22.20376,22.20376,0,0,0-2.4258,2.76171,7.90088,7.90088,0,0,1-1.2851,1.4277,4.50073,4.50073,0,0,1-1.5723,1.61719C335.543,13.84518,335.4141,13.76408,335.4141,13.44677Zm-8.9473,8.331.1895-1A1.28268,1.28268,0,0,0,326.4668,21.77778Zm1-.2392a.41536.41536,0,0,0,0-.5225Zm.9023,3.0478c-.0312-.0615-.0468-.0488-.0468.0459C328.418,24.73,328.4336,24.71528,328.3691,24.58638Zm.2383-2.66411c.0645.22071.1114.17291.1426-.14449C328.7188,21.65088,328.6719,21.69868,328.6074,21.92227Zm.1426-.8105v.1924C328.8125,21.49357,328.8125,21.42817,328.75,21.11177Zm.1445-.2861.1895-.7608c-.0645-.28709-.1289-.2558-.1895.09281A.631.631,0,0,0,328.8945,20.82567Zm.668-9.3282-.0977.0459c-.2558.15921-.3183.253-.1894.28421C329.6231,11.73187,329.7188,11.62247,329.5625,11.49747ZM336.127,26.729l-3.8067.9043c-.2871-.06549-.3496-.1924-.1914-.3809q2.0478-1.2378,4.0957-2.62009l-.0976-1.665a.6759.6759,0,0,0-.0938-.5225,16.5734,16.5734,0,0,1-.2383-2.8096,1.22158,1.22158,0,0,1,.5235-1.332,1.14109,1.14109,0,0,1,.5722-.09569,3.95631,3.95631,0,0,1,.6192-.09471l.1914-.0469a7.39487,7.39487,0,0,1,1.2344-.09569l1.6679-.04691a.606.606,0,0,1,.8086.3799,9.91939,9.91939,0,0,0,.5742,2.665,3.95779,3.95779,0,0,0,1.1875-.95209,2.44624,2.44624,0,0,0,1-.56931,1.05161,1.05161,0,0,1,.4766-.19149,3.0017,3.0017,0,0,1,1.0215-.88081,9.38053,9.38053,0,0,0,1.0722-.6436.94274.94274,0,0,1,.668.0498,10.77581,10.77581,0,0,1,1.7129,3.9024c.0625.2851,0,.4277-.1894.4277-.129-.09569-.2266-.0459-.2872.1416a36.91282,36.91282,0,0,1-5.7128,2.37991,1.35,1.35,0,0,0-1,.5254c.0644.50779.1425.9844.2382,1.4297a9.44133,9.44133,0,0,0,.0977,3.28219,23.02493,23.02493,0,0,0,2.6172-.332,1.88915,1.88915,0,0,1,.6211-.09671h.664c.0957.2871.1563.27051.1875-.04689a1.00327,1.00327,0,0,1,.5723-.09571,4.475,4.475,0,0,1,.6211-.09469l1.1406-.0469a7.5065,7.5065,0,0,1,.8086-.04691l1.0488-.1416a2.65192,2.65192,0,0,1,.2852-1.19329,11.55089,11.55089,0,0,0,.9531-2.90241,4.20443,4.20443,0,0,1,1.4766-2.52239.6452.6452,0,0,1,.7129-.23931l.6191,1.8574a6.42231,6.42231,0,0,0,0,1.09571l.0469,1.5684a.8653.8653,0,0,1-.1426.62009,4.89226,4.89226,0,0,0,.0488,1.1895.49613.49613,0,0,1-.4765.5713q-3.4278.66946-6.9512,1.14161a5.69908,5.69908,0,0,1-1.666.14449,1.41284,1.41284,0,0,1-1.1426.1924,5.014,5.014,0,0,0-.6191.0693,3.58441,3.58441,0,0,0-.9043.26171,2.16386,2.16386,0,0,0-.5703-.09371h-.5704a3.54744,3.54744,0,0,0-.621.04691l-.6172.09469a4.74616,4.74616,0,0,1-3.666-.71579l-.5235-2.3799A2.88754,2.88754,0,0,0,336.127,26.729Zm-3.9004-10.708.3808.04489C332.543,15.81388,332.416,15.79437,332.2266,16.021Zm4.9492,3.08979c.1914.1914.2695.16021.2363-.09569C337.3184,18.82658,337.2402,18.85887,337.1758,19.11077Zm.2871,2.71581c-.0957,0-.1445.03229-.1445.09569v1.09281h.1445Zm1.5684,3.3311c-.1582,0-.2364.0488-.2364.14259C338.9551,25.33148,339.0313,25.28457,339.0313,25.15768Zm.2851-5.23441a1.58571,1.58571,0,0,0,.2402.85451l.0489-.52441A.30509.30509,0,0,0,339.3164,19.92327Zm.4297-16.85449a.40417.40417,0,0,0-.0957.28809C339.8106,3.32368,339.8438,3.229,339.7461,3.06878Zm1.4277,18.2823c.2539.06339.3184-.03421.1914-.28621C341.3027,20.87247,341.2383,20.96817,341.1738,21.35108Zm1.7618-16.61331a13.60816,13.60816,0,0,0-1.4278,1.8086c-.2226.22161-.2832.3642-.1914.4257l1.2402-1.52339A1.42677,1.42677,0,0,1,342.9356,4.73777Zm-1.4278,24.84761c.0957.15819.1738.15819.2403,0C341.7773,29.29827,341.6992,29.29827,341.5078,29.58538Zm1.0957-7.47461c-.1601,0-.2383.04691-.2383.1416C342.6504,22.25237,342.7305,22.20748,342.6035,22.11077ZM343.9356,23.73a.87224.87224,0,0,0-.6192.2851A.77592.77592,0,0,0,343.9356,23.73Zm1.0957-3.61921c-.129,0-.1915.082-.1915.23931Zm.5703,2.04691a2.98693,2.98693,0,0,0-.7618.3799c0,.06439.1602.01949.4766-.1416C345.5684,22.30317,345.6641,22.22207,345.6016,22.15768Zm1.4297-3.665-.5723.28411c-.0645.32029.0488.334.334.0498A1.31248,1.31248,0,0,0,347.0313,18.49267Zm.0937,2.333c.1582.0957.2871-.0157.3828-.333A.39275.39275,0,0,0,347.125,20.82567Zm.4766-1.5235h.0937C347.666,19.04827,347.6328,19.04827,347.6016,19.30217Zm.7148,2.1436c0,.1582.0449.2373.1406.2373C348.457,21.52288,348.4102,21.44577,348.3164,21.44577Zm3.8555,4.09281c-.0957,0-.1406.08-.1406.2373C352.0898,25.90378,352.1406,25.82567,352.1719,25.53858Z"/>
    </g>
    <g>
      <g>
        <path d="M255.6348,96.518c-.2657-.5488-.1582-.84861.5332-.89841,4.4199-.4492,8.414-2.54689,12.0351-2.6963,2.7168-.1015,5.0606.6973,6.3399,4.14451,1.1172,2.99809.2129,5.8936-1.5996,8.543-2.6621,3.89651-8.4141,7.6426-15.3907,8.89061a5.16451,5.16451,0,0,1-3.3046-.499c-1.4883,2.7471-3.0879,6.0449-4.9512,10.19041-.2129.49909-.4785.49909-.8516.1514-.7461-.75-1.2793-2.25-.4785-4.9472,1.3828-4.545,6.3887-13.9375,11.0234-20.78031A3.95014,3.95014,0,0,1,255.6348,96.518Zm16.6152.9991c-1.1172-2.7471-6.4414-.14941-9.959.79979,0,1.3486-.5332,3.0976-2.0215,5.4951-1.3867,2.2978-2.8789,4.59671-4.4746,7.39351C267.7246,109.10687,273.6895,101.01508,272.25,97.51708Z"/>
        <path d="M299.8945,125.19087c-3.3027.20211-5.5937-.29879-7.4589-1.8975a4.83652,4.83652,0,0,1-1.7032-3.2461c-2.7676,4.74521-5.7519,10.33991-8.3613,15.9336-.2129.4502-.5859.60061-.8516.15141-.7988-1-1.1191-2.44731-.1074-5.4951,1.0664-3.19731,5.5918-11.63871,9.4277-18.1836a7.54857,7.54857,0,0,1-5.0058,1.29979c-1.1192,4.2959-4.4219,9.4912-8.416,10.68941a6.04017,6.04017,0,0,1-6.709-2.14741c-2.3984-2.89839-1.4922-7.294.8516-11.2393,2.0214-3.39739,5.3261-6.29489,8.5214-6.4961a3.67385,3.67385,0,0,1,3.5664,1.70021c1.2266,1.54789,2.8243,1.79789,2.5567,5.4951a4.1398,4.1398,0,0,1-.1602.79789c3.4102-.0498,6.8184-3.64549,9.6407-7.7422.4785-.64839,1.0117-.54979,1.2792.10061a4.66765,4.66765,0,0,1,.4258,2.2471c2.2891-1.9473,5.5391-3.4961,7.7754-1.14941,2.4512,2.5488,1.3321,6.94431-.6914,10.9902-1.6523,3.2969-3.5156,5.64451-5.4863,6.7949,5.1113-.251,8.3086-3.7978,10.0117-7.14449.3203-.69921.9063-.499,1.0645,0a4.59827,4.59827,0,0,1-.7969,3.2461C307.2969,123.29337,303.6738,124.94278,299.8945,125.19087Zm-21.0371-16.93359a20.40448,20.40448,0,0,0-4.1015,4.74609c-2.2911,3.7461-3.0371,8.39161-1.7051,9.44141,1.4922,1.1982,4.7402-.64941,7.3496-5.14651a22.3269,22.3269,0,0,0,1.9707-4.2949A5.9321,5.9321,0,0,1,278.8574,108.25728Zm4.2051,0c-.2129-1.59771-1.3301-1.3486-1.5977.1514a3.74437,3.74437,0,0,0,1.2774,3.3466A9.48844,9.48844,0,0,0,283.0625,108.25728Zm19.3887-1.69821c-1.334-.4991-4.4219,1.84961-6.9258,5.6953-.5859.94821-1.2773,1.94821-1.9707,2.9961-1.2246,3.0478-1.4902,5.9453-.0527,7.0449,1.7578,1.34761,5.2187-2.2988,7.6699-7.0449C303.2481,111.20548,303.7813,107.05807,302.4512,106.55907Z"/>
        <path d="M329.2402,113.853c1.3321,3.34671-2.0781,7.0928-4.3144,8.59181a11.36379,11.36379,0,0,1-11.1328,1.04879c-2.3965-1.1982-4.4707-4.2968-4.5801-8.39249-.2129-10.5899,9.2695-19.6319,15.2324-21.78031,2.877-1.04879,5.4863-1.24809,7.1914.15041a9.30108,9.30108,0,0,1,2.8203,3.64549,5.40049,5.40049,0,0,1-.4785,4.39741c-.7969,1.54889-1.5429,3.4961-2.1289,4.9454-.1601.39939-.5332.6992-1.1719.29979-1.2265-.75-2.0781-2.29789-1.2793-4.79589.8536-2.64751,2.7696-5.49521,1.545-6.6934-1.4922-1.5-9.586,2.5478-14.3789,9.9912-4.6875,7.292-4.1543,14.68559-1.545,16.6836,3.4082,2.5977,9.0528-.749,13.1016-8.19141C328.3887,113.20258,328.9727,113.20258,329.2402,113.853Z"/>
        <path d="M358.4785,124.94278c-4.1015-.20111-5.7519-3.5478-4.4199-7.64451,1.0645-3.34569,4.4199-7.043,6.6582-9.4902a12.78849,12.78849,0,0,1-6.4434,1.94821,8.23294,8.23294,0,0,1-6.6054,4.04689c-1.0664,4.2461-4.3692,9.39061-8.3086,10.58981a6.01767,6.01767,0,0,1-6.7637-2.14841c-2.2891-2.9473-1.4922-7.293.7988-11.23929,2.0235-3.44721,5.3789-6.2441,8.5762-6.4941,1.5957-.14941,2.4473.34959,3.5645,1.6992,1.2812,1.5469,2.8242,1.84769,2.5586,5.4942,0,.25-.1075.5-.1075.79879a6.02781,6.02781,0,0,0,4.1543-3.09669c-3.9394-1.59861,1.2774-8.1933,3.4082-8.24221,1.8653-.0498.9063,3.59671-.1582,6.24421a14.359,14.359,0,0,0,5.75-2.3985c.6953-.45021,1.1739-.59961,1.5996-.0986.959,1.0488,2.2891,3.39549.6914,5.0947-2.5039,2.6485-5.0605,6.044-6.0175,8.6914-1.0118,2.74809-.3731,4.6963,1.332,4.79589,2.1309.14941,4.8457-3.1972,6.5508-6.84369.2109-.44921.584-.5498.7988-.09961a4.1087,4.1087,0,0,1-.1601,3.247C364.4981,122.79437,361.4082,125.09228,358.4785,124.94278Zm-17.7363-16.6855a18.76406,18.76406,0,0,0-4.0977,4.6963c-2.291,3.79589-3.0371,8.34279-1.6523,9.4912,1.3848,1.1494,4.6855-.64941,7.3496-5.19531a20.29864,20.29864,0,0,0,1.8652-4.09569A6.1915,6.1915,0,0,1,340.7422,108.25728Zm4.209-.0498c-.2129-1.64841-1.3848-1.248-1.5977.2012a3.58793,3.58793,0,0,0,1.3321,3.2959A10.69364,10.69364,0,0,0,344.9512,108.20748Z"/>
        <path d="M379.9434,104.46138c1.7578.25,3.4082,2.6973,2.0761,5.2949-1.1172,2.1983-3.7265,5.8946-4.9531,8.49219-1.3848,2.89851-1.0664,5.2451.8535,5.14551,2.1817-.10061,4.793-3.39741,6.8164-6.89351.2676-.4502.6407-.4502.9063-.0498.373.5488.2656,1.69721-.4805,3.1464-1.4375,2.79691-4.793,5.34571-7.8828,5.34571-4.5273,0-5.5918-3.0966-4.0449-7.44331,1.7558-4.8955,6.4433-10.1904,5.4824-10.59079-.5293-.2002-3.6211,1.20019-7.0293,4.6963-3.1406,3.19719-5.4844,7.99209-7.7754,12.6875-.2129.44919-.5332.6503-1.0117.20109-1.0645-1-1.3848-2.64739-.5332-5.1465,1.0644-3.1464,5.168-10.09079,8.5215-14.7353.373-.5498.7988-.5,1.1172,0a5.5872,5.5872,0,0,1,.1621,4.7441C374.5625,106.95948,378.1875,104.21238,379.9434,104.46138Z"/>
      </g>
      <g>
        <path class="a" d="M430.7188,54.27978A15.69722,15.69722,0,0,0,418,60.77878a15.731,15.731,0,1,0,0,18.46189,15.72409,15.72409,0,1,0,12.7188-24.96089Zm-26.3028,7.8877c-.0254.26459-.9629,3.6513-2.0293,7.56639-1.0664,3.8916-2.2597,7.90331-2.6894,8.3105a6.37267,6.37267,0,0,1-2.9453.457c-.4844,0-.6368-.07221-.6368-.29a2.48292,2.48292,0,0,1,.2051-.74321c1.9024-4.8037,3.1211-9.07909,4.4414-13.6211a11.37933,11.37933,0,0,0-2.7929,2.93171c-.2032.3115-.3282.48049-.4317.48049-.3301,0-.6601-.2159-.6601-.43169,0-.14451.8125-1.92191,4.3418-4.51761a3.57072,3.57072,0,0,1,2.6152-.791c.5078,0,.6094.0723.6094.3613ZM406.8555,78.477c-.0254,0-.3555-.1924-.5332-.29a.23363.23363,0,0,1-.1016-.168c0-.09471.0508-.14351.3047-.28711,5.2559-2.76269,6.5234-11.3848,6.5234-12.9951,0-1.3936-.7109-2.3525-1.7519-2.3525-2.2071,0-3.1738,4.34571-3.1738,5.83691,0,1.07909.7128,1.94429,1.3984,1.94429a4.53733,4.53733,0,0,0,1.0137-.2148.3452.3452,0,0,1,.2793.33591,5.12448,5.12448,0,0,1-2.918,1.4648,3.64056,3.64056,0,0,1-3.2734-3.7959c0-3.36231,3.2988-6.4365,6.9023-6.4365,2.7676,0,4.6211,2.16119,4.6211,5.40329C416.1465,74.36957,408.709,78.477,406.8555,78.477Zm15.1054-1.7285c-.2304.791-.3808,1.1035-.6093,1.2959a7.71638,7.71638,0,0,1-3.0196.457c-.4082,0-.5859-.1211-.5859-.38471a7.03052,7.03052,0,0,1,.457-1.61039c.8125-2.25881,2.2598-4.34571,5.1035-7.6865a19.95616,19.95616,0,0,0,2.9688-4.1777,9.47334,9.47334,0,0,1-1.2422.09469c-.6348,0-3.6309-.33589-4.3164-.33589a2.07571,2.07571,0,0,0-2.3359,1.8027,1.77373,1.77373,0,0,1-.6075.14349c-.2031,0-.2812-.0966-.2812-.29a2.29987,2.29987,0,0,1,.1797-.6963l.709-2.1855a2.6415,2.6415,0,0,1,.7129-1.2471,7.45,7.45,0,0,1,2.6894-.40919,13.84477,13.84477,0,0,1,2.2852.21679,11.34078,11.34078,0,0,0,2.0566.21391,4.445,4.445,0,0,0,1.8535-.336.76664.76664,0,0,1,.2774-.09469.341.341,0,0,1,.2793.28709,18.21052,18.21052,0,0,1-1.8028,3.89361A64.592,64.592,0,0,0,421.9609,76.74847Zm11.0196,1.7285c-2.7676,0-4.6211-2.16309-4.6211-5.4052,0-7.44539,7.4375-11.55279,9.291-11.55279.0254,0,.3555.1914.5332.28709a.24553.24553,0,0,1,.1016.169c0,.09669-.0508.14259-.3047.29-5.2539,2.7598-6.5235,11.3838-6.5235,12.99419,0,1.39161.711,2.3535,1.75,2.3535,2.211,0,3.1739-4.34869,3.1739-5.83689,0-1.0811-.709-1.9473-1.3946-1.9473a4.58116,4.58116,0,0,0-1.0175.21679.34467.34467,0,0,1-.2774-.33589,5.13783,5.13783,0,0,1,2.918-1.46391,3.63726,3.63726,0,0,1,3.2754,3.793C439.8848,75.40278,436.584,78.477,432.9805,78.477Z"/>
        <path class="a" d="M215.8867,34.05217a11.0581,11.0581,0,0,1-9.8594,5.9424,11.0585,11.0585,0,0,1,.9981,11.46881,11.06213,11.06213,0,0,1,9.8613-5.9414A11.06058,11.06058,0,0,1,215.8867,34.05217Z"/>
      </g>
      <path d="M385.9297,71.61857c-5.5156,5.27251-9.541,8.64361-13.9082,8.64361-3.8184,0-6.2168-3.9268-6.2168-10.03421,0-1.96389.2187-4.7998.4375-7.63569,14.5059-15.92391,20.6133-28.5762,20.6133-42.7559,0-5.1269-1.418-8.39841-3.4903-8.39841a3.20789,3.20789,0,0,0-.9824.2177l-13.5234,5.0176c-5.0293,9.3223-15.6817,34.23051-16.5215,53.3877-6.4766,6.47171-8.625,8.45611-11.0703,8.45611-1.9649,0-3.2735-1.6368-3.2735-4.58111,0-3.27239,2.3985-12.21579,3.5997-16.1426l4.6894-15.5976h-2.9453l-10.9063,5.998a9.445,9.445,0,0,0-9.2714-6.1064c-9.1875,0-25.5469,11.47069-27.5977,27.96869-4.3066,4.6963-6.8223,5.6289-8.7207,5.7344a8.79057,8.79057,0,0,1-5.6719-2.5098c3.709-9.9248,5.4532-17.34179,5.4532-24.43159,0-2.9453,0-6.65331-9.7071-6.65331a29.50378,29.50378,0,0,0-29.1816,27.89061c-6.8926,7.1172-11.0801,9.52149-16.2969,9.52149-6.7637,0-11.125-5.45409-11.125-13.85259,0-9.707,5.0156-18.8681,10.3594-18.8681,2.1836,0,3.6015,2.0713,3.6015,5.23439,0,.9814-.6562,4.7988-.6562,5.6718,0,.65531.2187,1.0909.7656,1.0909a4.69712,4.69712,0,0,0,1.6348-.545l6.2168-2.9453c1.9648-.873,2.6172-1.7461,2.6172-3.709,0-5.6718-4.3633-9.4892-10.6875-9.4892-12.1543,0-24.4981,13.4844-26.0196,27.6474-7.6933,7.37411-8.6953,8.23731-11.2812,8.23731-2.4004,0-3.8184-1.96381-3.8184-4.90911,0-3.1621.8731-5.77929,4.9102-17.23249l4.9062-13.63371-4.7968.21681c-4.9102,8.9453-8.9454,12.54489-15.4903,13.52629,1.6367-4.2539,2.4004-7.52629,2.4004-9.59859,0-2.836-1.3086-4.25391-4.1445-4.25391-8.1797,0-10.4707,10.69041-10.4707,13.417s1.416,4.58,4.5801,5.998a70.3798,70.3798,0,0,1-6.3223,7.96581v-.0029c-6.8711,6.8701-9.0527,8.9434-11.5625,8.9434-1.9649,0-3.2715-1.6368-3.2715-4.58111,0-3.27239,2.3984-12.21579,3.5996-16.1426l4.6895-15.5976H159.127l-10.9063,5.998a9.44508,9.44508,0,0,0-9.2715-6.1064c-9.1914,0-25.5547,11.47559-27.5996,27.97949-5.9629,6.6338-9.8652,9.7588-12.0996,9.7588-1.3086,0-2.3984-1.418-2.3984-2.94539,0-1.30851,1.1992-5.6708,3.0527-10.46971,2.9453-7.8545,4.582-14.07029,4.582-17.01559,0-4.2539-2.4004-7.08981-6.1093-7.08981-3.4903,0-5.4532,1.20011-14.1797,6.21681,10.1445-13.41511,14.289-21.70511,14.289-29.01271,0-4.36329-1.4179-7.8536-3.2715-7.8536-.9824,0-9.0546,2.7276-18.1054,6.43561C65.6543,36.82468,60.2598,52.19577,59.207,69.95648c-7.4687,8.4258-13.4062,11.5059-21.0332,11.5059-13.0879,0-22.3593-10.5811-22.3593-25.41411,0-18.21479,13.0878-40.46579,23.6679-40.46579,4.5821,0,7.5274,3.709,7.5274,9.59859,0,8.39851-5.7813,17.0147-11.5625,17.0147-2.0723,0-3.4903-.98049-4.6895-3.16309a7.90731,7.90731,0,0,0-2.291,5.34569c0,4.47071,3.9258,7.6348,9.4883,7.6348,10.5801,0,19.6328-10.9073,19.6328-23.7784,0-9.9257-7.1992-16.6875-17.4512-16.6875C21.9219,11.54727,0,32.92527,0,60.19278,0,76.98967,11.9961,88.77,29.1211,88.77c16.5215,0,24.9102-7.707,29.8887-12.5615,0,.15229-.0078.30079-.0078.4541A103.69993,103.69993,0,0,0,59.6582,88.77l11.8867-2.72661a117.12776,117.12776,0,0,1,1.8555-23.5605C79.0723,56.15768,85.1816,51.685,88.125,51.685a2.03509,2.03509,0,0,1,2.0723,2.1807c0,1.3105-.8731,4.2559-2.6172,8.1807-3.1641,7.7451-4.9082,13.96091-4.9082,17.998,0,5.126,3.5976,8.72561,8.3984,8.72561,5.457,0,11.8633-4.0029,20.2422-12.59861.9063,7.1855,5.4121,12.49021,11.0566,12.49021,6.2188,0,11.7813-4.36331,19.0879-14.835-.1093,3.2725-.2187,14.835,7.9629,14.835,5.4532,0,10.0352-4.36331,19.1973-12.98051v-.0039c5.3418-5.34179,8.2871-9.0498,10.9043-13.7392a28.56838,28.56838,0,0,0,8.6152-2.836c-5.5625,8.72561-8.0703,15.05181-8.0703,20.17781,0,5.34469,3.3809,9.4902,7.7442,9.4902,4.9863,0,11.0546-3.77831,20.4453-12.92681,1.3164,7.61231,7.457,12.81841,15.6543,12.81841,7.9023,0,14.7343-3.66211,24.1152-12.7803,1.3047,7.8701,6.3984,12.7803,13.5117,12.7803,6.5449,0,12.4336-3.8193,17.5606-11.5625a12.2481,12.2481,0,0,0,7.6347,2.94529,15.32469,15.32469,0,0,0,8.7832-3.956c.8828,7.22849,5.4004,12.5732,11.0664,12.5732,6.2168,0,11.7793-4.36331,19.0879-14.835-.1093,3.2725-.2187,14.835,7.961,14.835,5.3906,0,9.9355-4.2686,18.8828-12.6855,1.0703,7.8476,5.7422,12.6855,12.4179,12.6855,6.1524,0,12.5215-3.42091,22.295-12.23541A15.69014,15.69014,0,0,1,385.9297,71.61857ZM372.8945,33.68888c3.0547-9.81731,6.1075-16.0351,7.8536-16.0351,1.1992,0,2.0722,1.7471,2.0722,4.3652,0,9.2686-6.5449,23.4483-15.1601,32.8301A203.26059,203.26059,0,0,1,372.8945,33.68888ZM74.9258,53.86567a117.45619,117.45619,0,0,1,5.8906-18.7588C85.1816,24.855,89.543,18.09128,92.1602,18.09128c1.0918,0,1.7461,1.20019,1.7461,3.16309C93.9063,26.92617,89.4336,36.95948,74.9258,53.86567Zm54.7519,24.76071c-2.9453,0-5.0175-2.6191-5.0175-6.43451,0-8.9444,6.9824-25.74219,14.8339-25.74219,3.0547,0,4.9082,2.3994,4.9082,6.3271C144.4023,61.72018,137.5313,78.62638,129.6777,78.62638Zm141.3496-17.997a21.03471,21.03471,0,0,0,5.0157,13.52441c-3.0547,4.7988-5.5625,6.98049-8.1797,6.98049-4.0352,0-6.4356-4.1446-6.4356-11.3428,0-9.1621,3.4903-24.21489,14.7246-24.21489a5.99276,5.99276,0,0,1,2.2911.3272C273.207,50.37638,271.0273,54.63028,271.0273,60.62937Zm42.8614,17.997c-2.9453,0-5.0176-2.6191-5.0176-6.43451,0-8.9444,6.9824-25.74219,14.834-25.74219,3.0547,0,4.9082,2.3994,4.9082,6.3271C328.6133,61.72018,321.7422,78.62638,313.8887,78.62638Z"/>
    </g>
  </g>
</svg>
